<?xml version="1.0" standalone="no"?>
<!DOCTYPE svg PUBLIC "-//W3C//DTD SVG 1.1//EN" "http://www.w3.org/Graphics/SVG/1.1/DTD/svg11.dtd" >
<svg xmlns="http://www.w3.org/2000/svg">
<metadata></metadata>
<defs>
<font id="svn_interfaceregular" horiz-adv-x="1353" >
<font-face units-per-em="2048" ascent="1638" descent="-410" />
<missing-glyph horiz-adv-x="409" />
<glyph horiz-adv-x="0" />
<glyph horiz-adv-x="682" />
<glyph horiz-adv-x="0" />
<glyph horiz-adv-x="0" />
<glyph unicode=" "  horiz-adv-x="409" />
<glyph unicode="&#x09;" horiz-adv-x="409" />
<glyph unicode="&#xa0;" horiz-adv-x="409" />
<glyph unicode="!" horiz-adv-x="405" d="M92 100q0 50 31 86q34 37 80 37t80 -37q30 -34 30 -86t-30 -86q-34 -37 -80 -37t-80 37q-31 36 -31 86zM127 457v909h156v-909h-156z" />
<glyph unicode="&#x22;" horiz-adv-x="645" d="M102 883v483h144v-483h-144zM399 883v483h144v-483h-144z" />
<glyph unicode="#" horiz-adv-x="1212" d="M0 496v139h344v248h-344v137h344v346h139v-346h246v346h139v-346h344v-137h-344v-248h344v-139h-344v-344h-139v344h-246v-344h-139v344h-344zM483 635h246v248h-246v-248z" />
<glyph unicode="$" horiz-adv-x="1105" d="M80 205l125 76q82 -162 278 -168v553q-172 72 -250 147q-106 97 -106 244q0 148 104 239q99 86 252 95v270h131v-270q262 -21 365 -226l-123 -65q-77 135 -242 153v-471q206 -99 283 -176q92 -95 92 -241q0 -167 -106 -273q-102 -99 -269 -117v-276h-131v276 q-126 0 -239 64q-115 65 -164 166zM283 1067q0 -150 200 -242v430q-90 -6 -143 -53q-57 -51 -57 -135zM614 111q92 9 152 69q63 63 63 174q0 88 -55 152q-49 55 -160 112v-507z" />
<glyph unicode="%" horiz-adv-x="1433" d="M66 1026q0 151 71 246q76 104 211 104q134 0 213 -108q70 -94 70 -242q0 -153 -72 -250q-75 -100 -211 -100q-138 0 -211 98q-71 95 -71 252zM193 1028q0 -109 36 -174q44 -78 119 -78t119 78q37 67 37 174q0 105 -37 172q-43 76 -119 76t-119 -76q-36 -65 -36 -172z M291 41l737 1337l115 -55l-737 -1337zM803 342q0 151 71 246q76 104 211 104q133 0 213 -108q70 -94 70 -242q0 -153 -72 -250q-75 -100 -211 -100q-138 0 -211 98q-71 95 -71 252zM930 344q0 -107 37 -174q44 -78 118 -78q75 0 119 78q37 67 37 174q0 105 -37 172 q-43 76 -119 76q-75 0 -118 -76q-37 -67 -37 -172z" />
<glyph unicode="&#x26;" horiz-adv-x="1255" d="M66 340q0 254 288 397l49 25l-43 53q-104 122 -104 268q0 121 90 205q94 88 246 88q164 0 250 -92q73 -79 73 -199q0 -105 -65 -182q-63 -76 -211 -151l-29 -15l297 -362q65 96 127 237l119 -57q-95 -198 -160 -287l221 -268h-186l-129 156q-176 -179 -420 -179 q-207 0 -319 115q-94 94 -94 248zM221 350q0 -90 66 -162q76 -79 209 -79q177 0 321 147l-338 414l-39 -21q-133 -69 -180 -141q-39 -56 -39 -158zM395 1087q0 -83 99 -206l41 -52l28 15q109 56 154 98q59 59 59 133q0 178 -184 178q-95 0 -148 -47q-49 -46 -49 -119z" />
<glyph unicode="'" horiz-adv-x="348" d="M102 883v483h144v-483h-144z" />
<glyph unicode="(" horiz-adv-x="540" d="M90 698q0 289 117 500q109 195 299 295l47 -100q-301 -228 -301 -695q0 -468 301 -696l-47 -100q-191 107 -299 297q-117 211 -117 499z" />
<glyph unicode=")" horiz-adv-x="540" d="M-12 2q301 228 301 696q0 467 -301 695l47 100q190 -100 299 -295q117 -211 117 -500q0 -288 -117 -499q-108 -190 -299 -297z" />
<glyph unicode="*" horiz-adv-x="870" d="M72 924l260 172l-260 178l63 102l240 -164v273h117v-273l243 162l64 -98l-262 -178l260 -178l-58 -107l-247 168v-287h-117v287l-246 -166z" />
<glyph unicode="+" horiz-adv-x="1105" d="M70 463v143h411v449h144v-449h411v-143h-411v-451h-144v451h-411z" />
<glyph unicode="," horiz-adv-x="417" d="M27 -135q36 12 82 43q47 36 63 67q-29 15 -45 43q-23 38 -23 86q0 49 31 91q28 38 78 38t82 -38q31 -42 31 -107q0 -92 -93 -182q-89 -83 -188 -109z" />
<glyph unicode="-" horiz-adv-x="628" d="M92 463v143h445v-143h-445z" />
<glyph unicode="." horiz-adv-x="405" d="M92 100q0 50 31 86q34 37 80 37t80 -37q30 -34 30 -86t-30 -86q-34 -37 -80 -37t-80 37q-31 36 -31 86z" />
<glyph unicode="/" horiz-adv-x="983" d="M0 27l862 1525l121 -67l-858 -1532z" />
<glyph unicode="0" horiz-adv-x="1105" d="M66 672q0 289 118 479q132 215 369 215q239 0 371 -215q116 -192 116 -479q0 -289 -118 -479q-133 -216 -369 -216t-369 216q-118 190 -118 479zM238 674q0 -230 75 -377q82 -172 240 -172q155 0 240 172q73 149 73 377q0 226 -73 375q-83 170 -240 170q-156 0 -242 -170 q-73 -149 -73 -375z" />
<glyph unicode="1" horiz-adv-x="1105" d="M162 1073l409 270h144v-1343h-166v1157l-307 -196z" />
<glyph unicode="2" horiz-adv-x="1105" d="M111 1092q151 274 444 274q175 0 281 -100q104 -101 104 -262q0 -210 -221 -478q-113 -145 -338 -387h594v-139h-821v96q89 103 110 125l53 62l52 59q96 106 188 225q207 257 207 416q0 111 -59 176q-60 60 -160 60q-185 0 -305 -203z" />
<glyph unicode="3" horiz-adv-x="1105" d="M78 221l129 80q102 -176 293 -176q122 0 198 61q88 67 88 191q0 122 -88 192q-77 59 -206 68v123q114 9 188 65q86 65 86 174q0 220 -246 220q-190 0 -272 -172l-129 79q59 115 172 179q107 61 241 61q176 0 289 -94q115 -100 115 -260q0 -205 -199 -307 q221 -89 221 -326q0 -185 -141 -299q-133 -103 -313 -103q-127 0 -244 60q-118 65 -182 184z" />
<glyph unicode="4" horiz-adv-x="1105" d="M80 420v145l672 778h104v-786h148v-137h-148v-420h-154v420h-622zM254 557h448v512z" />
<glyph unicode="5" horiz-adv-x="1105" d="M131 188l127 82q83 -145 281 -145q135 0 211 76q79 76 79 217q0 158 -127 244q-118 81 -354 81h-149v600h727v-139h-574v-321h17q616 0 616 -467q0 -209 -131 -328q-123 -111 -317 -111q-286 0 -406 211z" />
<glyph unicode="6" horiz-adv-x="1105" d="M139 510q0 328 189 567q187 237 506 289l32 -129q-180 -35 -321 -152q-142 -120 -199 -284q113 76 252 76q185 0 297 -136q104 -125 104 -319q0 -195 -112 -313q-117 -132 -305 -132q-218 0 -338 164q-105 144 -105 369zM307 510q0 -151 60 -262q70 -131 217 -131 q121 0 192 92q62 83 62 209q0 134 -68 223q-76 94 -205 94q-139 0 -246 -82q-12 -70 -12 -143z" />
<glyph unicode="7" horiz-adv-x="1105" d="M78 1204v139h936v-110l-514 -1233h-172l499 1204h-749z" />
<glyph unicode="8" horiz-adv-x="1105" d="M123 371q0 227 196 329q-176 120 -176 306q0 170 129 272q113 88 281 88q163 0 278 -86q127 -100 127 -264q0 -191 -170 -314q193 -99 193 -329q0 -190 -133 -299q-123 -97 -295 -97q-175 0 -295 99q-135 108 -135 295zM281 373q0 -121 88 -191q75 -63 186 -63 q107 0 184 59q84 69 84 191q0 119 -86 196q-77 68 -186 68q-104 0 -184 -68q-86 -77 -86 -192zM303 1006q0 -110 78 -179q70 -61 170 -61t170 61q80 68 80 179q0 107 -78 170q-71 53 -170 53t-170 -53q-80 -62 -80 -170z" />
<glyph unicode="9" horiz-adv-x="1105" d="M129 920q0 192 113 317q114 129 303 129q216 0 336 -166q106 -141 106 -371q0 -325 -194 -563q-196 -236 -517 -289l-32 129q190 43 329 152q146 116 205 277q-115 -74 -250 -74q-181 0 -295 141q-104 128 -104 318zM285 924q0 -140 67 -228q76 -98 209 -98q132 0 244 86 q12 70 12 147q0 164 -57 263q-71 133 -217 133q-123 0 -193 -94q-65 -83 -65 -209z" />
<glyph unicode=":" horiz-adv-x="405" d="M92 100q0 50 31 86q34 37 80 37t80 -37q30 -34 30 -86t-30 -86q-34 -37 -80 -37t-80 37q-31 36 -31 86zM92 852q0 50 31 86q34 37 80 37t80 -37q30 -34 30 -86t-30 -86q-34 -37 -80 -37t-80 37q-31 36 -31 86z" />
<glyph unicode=";" horiz-adv-x="417" d="M27 -135q36 12 82 43q47 36 63 67q-29 15 -45 43q-23 38 -23 86q0 49 31 91q28 38 78 38t82 -38q31 -42 31 -107q0 -92 -93 -182q-89 -83 -188 -109zM106 856q0 50 31 86q34 37 80 37t80 -37q31 -36 31 -86q0 -51 -31 -90q-35 -35 -80 -35t-80 35q-31 39 -31 90z" />
<glyph unicode="&#x3c;" horiz-adv-x="1105" d="M113 481v119l841 324l54 -142l-635 -237l661 -256l-57 -148z" />
<glyph unicode="=" horiz-adv-x="1105" d="M70 231v144h966v-144h-966zM70 692v142h966v-142h-966z" />
<glyph unicode="&#x3e;" horiz-adv-x="1105" d="M72 289l661 256l-635 237l54 142l841 -324v-119l-864 -340z" />
<glyph unicode="?" horiz-adv-x="798" d="M-4 1139q62 104 147 164q106 75 252 75q185 0 279 -94q92 -92 92 -262q0 -150 -148 -307q-75 -77 -129 -150q-34 -58 -34 -114v-74h-152v86q0 129 152 295q86 92 110 131q39 62 39 143q0 215 -215 215q-160 0 -285 -186zM268 100q0 50 31 86q34 37 80 37t80 -37 q30 -34 30 -86t-30 -86q-34 -37 -80 -37t-80 37q-31 36 -31 86z" />
<glyph unicode="@" horiz-adv-x="1695" d="M61 373q0 394 261 637q248 233 626 233q322 0 510 -176q176 -170 176 -459q0 -265 -157 -448q-144 -166 -330 -166q-124 0 -176 88q-101 -88 -242 -88q-131 0 -209 90q-71 89 -71 233q0 226 145 377q152 162 414 162q148 0 272 -31l-170 -575q-10 -52 -10 -64 q0 -67 84 -67q110 0 205 133q98 140 98 338q0 238 -137 375q-145 145 -416 145q-314 0 -514 -203q-201 -207 -201 -536q0 -298 182 -451q155 -137 420 -137q313 0 520 145l74 -112q-250 -170 -594 -170q-345 0 -551 188q-209 194 -209 539zM598 315q0 -196 178 -196 q92 0 174 61l6 37q1 4 17 64l129 440q-49 12 -125 12q-177 0 -277 -112q-102 -114 -102 -306z" />
<glyph unicode="A" horiz-adv-x="1163" d="M0 0l526 1366h101l536 -1366h-178l-162 422h-495l-156 -422h-172zM381 567h389l-199 523z" />
<glyph unicode="B" horiz-adv-x="1136" d="M166 0v1366h407q209 0 322 -94q111 -92 111 -254q0 -246 -279 -293q147 -15 236 -86q112 -87 112 -258q0 -175 -119 -279q-114 -102 -297 -102h-493zM330 141h315q256 0 256 240q0 264 -336 264h-235v-504zM330 786h229q129 0 203 62q72 60 72 170q0 207 -254 207h-250 v-439z" />
<glyph unicode="C" horiz-adv-x="1165" d="M100 678q0 355 170 549q147 166 373 166q158 0 277 -76q121 -75 180 -205l-133 -80q-47 86 -117 144q-88 67 -193 67q-177 0 -280 -145q-103 -151 -103 -422q0 -259 115 -410q107 -143 283 -143q185 0 311 205l125 -80q-65 -117 -158 -187q-119 -88 -280 -88 q-257 0 -404 166q-166 181 -166 539z" />
<glyph unicode="D" horiz-adv-x="1280" d="M166 0v1366h352q198 0 326 -61q336 -160 336 -603q0 -274 -125 -454q-112 -161 -310 -221q-51 -13 -112 -21q-59 -6 -115 -6h-352zM330 141h217l53 4q58 6 105 25q301 120 301 524q0 325 -203 457q-115 74 -297 74h-176v-1084z" />
<glyph unicode="E" horiz-adv-x="1052" d="M166 0v1366h797v-141h-633v-439h452v-141h-454v-504h684v-141h-846z" />
<glyph unicode="F" horiz-adv-x="944" d="M166 0v1366h774v-141h-610v-461h450v-141h-452v-623h-162z" />
<glyph unicode="G" horiz-adv-x="1222" d="M100 678q0 363 168 549q147 166 383 166q169 0 285 -72q98 -64 162 -195l-131 -79q-105 200 -316 200q-158 0 -260 -135q-117 -153 -117 -436q0 -258 123 -414q115 -145 289 -145q158 0 270 37v356h-225v143h389v-602q-59 -26 -178 -51q-126 -27 -258 -27 q-259 0 -412 166q-172 184 -172 539z" />
<glyph unicode="H" horiz-adv-x="1341" d="M166 0v1366h164v-592h684v592h162v-1366h-162v629h-684v-629h-164z" />
<glyph unicode="I" horiz-adv-x="495" d="M166 0v1366h164v-1366h-164z" />
<glyph unicode="J" horiz-adv-x="489" d="M-80 -137q252 41 252 221v1282h164v-1278q0 -318 -387 -362z" />
<glyph unicode="K" horiz-adv-x="1150" d="M166 0v1366h164v-600l588 600h194l-526 -537l555 -829h-197l-473 711l-141 -146v-565h-164z" />
<glyph unicode="L" horiz-adv-x="1003" d="M166 0v1366h164v-1225h633v-141h-797z" />
<glyph unicode="M" horiz-adv-x="1521" d="M166 0v1366h192l398 -1055l409 1055h191v-1366h-158v1042l-424 -1065h-33l-415 1063v-1040h-160z" />
<glyph unicode="N" horiz-adv-x="1347" d="M166 0v1366h166l688 -1018v1018h162v-1366h-121l-733 1083v-1083h-162z" />
<glyph unicode="O" d="M100 684q0 291 140 487q157 222 438 222t438 -222q137 -192 137 -487t-137 -487q-155 -224 -438 -224t-438 224q-140 196 -140 487zM272 684q0 -233 99 -389q114 -176 307 -176q194 0 305 176q98 154 98 389q0 229 -96 387q-111 176 -307 176t-307 -176 q-99 -156 -99 -387z" />
<glyph unicode="P" horiz-adv-x="1114" d="M166 0v1366h426q463 0 463 -414q0 -403 -469 -403h-256v-549h-164zM330 692h268q281 0 281 264q0 269 -283 269h-266v-533z" />
<glyph unicode="Q" d="M100 684q0 291 140 487q157 222 438 222t438 -222q137 -192 137 -487q0 -268 -114 -455q-132 -209 -369 -249q43 -112 291 -127l-19 -136q-190 12 -290 68q-106 58 -166 195q-238 35 -369 247q-117 191 -117 457zM272 684q0 -233 99 -389q114 -176 307 -176 q194 0 305 176q98 154 98 389q0 229 -96 387q-111 176 -307 176t-307 -176q-99 -156 -99 -387z" />
<glyph unicode="R" horiz-adv-x="1128" d="M166 0v1366h438q218 0 338 -102q109 -95 109 -271q0 -327 -340 -385l372 -608h-186l-369 598h-198v-598h-164zM330 739h264q285 0 285 254q0 232 -271 232h-278v-486z" />
<glyph unicode="S" horiz-adv-x="1056" d="M61 197l129 96q120 -172 353 -172q114 0 184 55q80 62 80 178q0 105 -98 181q-56 42 -222 116l-69 31l-68 33q-85 43 -123 76q-121 100 -121 249q0 166 134 267q121 86 297 86q298 0 440 -213l-125 -99q-120 166 -317 166q-254 0 -254 -198q0 -91 88 -152 q53 -37 235 -117l70 -32l67 -35q73 -40 121 -82q119 -101 119 -260q0 -196 -133 -305q-121 -95 -316 -95q-135 0 -270 60q-135 63 -201 166z" />
<glyph unicode="T" horiz-adv-x="1046" d="M18 1225v141h1010v-141h-424v-1225h-162v1225h-424z" />
<glyph unicode="U" horiz-adv-x="1325" d="M158 457v909h164v-879q0 -174 90 -270q88 -98 250 -98q163 0 251 94q91 97 91 274v879h163v-909q0 -229 -153 -361q-141 -123 -357 -123q-221 0 -356 123q-143 128 -143 361z" />
<glyph unicode="V" horiz-adv-x="1136" d="M0 1366h180l395 -1040l388 1040h174l-519 -1366h-96z" />
<glyph unicode="W" horiz-adv-x="1538" d="M0 1366h166l252 -965l307 965h86l311 -965l248 965h168l-344 -1366h-98l-328 1018l-326 -1018h-98z" />
<glyph unicode="X" horiz-adv-x="1056" d="M0 0l424 700l-387 666h199l292 -537l299 537h189l-389 -653l430 -713h-205l-328 586l-336 -586h-188z" />
<glyph unicode="Y" horiz-adv-x="1112" d="M0 1366h186l365 -553l383 553h178l-483 -709v-657h-164v655z" />
<glyph unicode="Z" horiz-adv-x="1095" d="M78 0v152l770 1073h-735v141h884v-176l-749 -1049h780v-141h-950z" />
<glyph unicode="[" horiz-adv-x="454" d="M143 -293v1800h303v-129h-155v-1540h155v-131h-303z" />
<glyph unicode="\" horiz-adv-x="968" d="M0 1485l133 74l836 -1498l-129 -84z" />
<glyph unicode="]" horiz-adv-x="454" d="M8 -162h156v1540h-156v129h303v-1800h-303v131z" />
<glyph unicode="^" horiz-adv-x="1028" d="M125 651l326 719h118l334 -690l-139 -59l-256 526l-238 -549z" />
<glyph unicode="_" horiz-adv-x="1024" d="M0 -328h1024v-123h-1024v123z" />
<glyph unicode="`" horiz-adv-x="905" d="M229 1368l105 107l342 -285l-74 -76z" />
<glyph unicode="a" horiz-adv-x="962" d="M78 283q0 189 198 280q162 72 394 72v12q0 230 -203 230q-136 0 -219 -109l-111 78q116 155 344 155q346 0 346 -364v-637h-143l-8 84q-107 -107 -264 -107q-138 0 -232 76q-102 85 -102 230zM238 281q0 -89 63 -134q59 -41 129 -41q127 0 240 101v303q-103 -4 -144 -10 q-68 -7 -139 -33q-149 -55 -149 -186z" />
<glyph unicode="b" horiz-adv-x="1073" d="M141 51v1315l158 27v-447q118 53 238 53q198 0 317 -131q125 -137 125 -381q0 -225 -139 -370q-137 -140 -348 -140q-98 0 -201 25q-76 19 -150 49zM299 139q81 -37 170 -37q168 0 262 107q94 101 94 283q0 172 -92 278q-87 100 -225 100q-115 0 -209 -61v-670z" />
<glyph unicode="c" horiz-adv-x="970" d="M94 485q0 256 142 398q118 118 303 118q143 0 252 -86q74 -63 110 -151l-117 -74q-79 184 -245 184q-118 0 -199 -100q-90 -110 -90 -285q0 -174 90 -284q85 -101 219 -101q166 0 248 175l111 -70q-111 -232 -367 -232q-190 0 -315 125q-142 139 -142 383z" />
<glyph unicode="d" horiz-adv-x="1073" d="M94 498q0 205 119 348q128 155 350 155q122 0 217 -36v401l158 27v-1393h-145l-13 80q-103 -103 -252 -103q-201 0 -321 150q-113 143 -113 371zM250 489q0 -173 76 -274q80 -111 227 -111q139 0 227 111v612q-26 19 -82 33q-52 14 -110 14q-162 0 -254 -120 q-84 -110 -84 -265z" />
<glyph unicode="e" horiz-adv-x="1040" d="M94 494q0 231 121 370q119 137 315 137q210 0 324 -141q107 -131 107 -362h-711q0 -185 84 -289q85 -105 244 -105q170 0 258 156l104 -70q-127 -213 -367 -213q-222 0 -350 134q-129 135 -129 383zM264 623h518q-3 119 -82 192q-71 62 -170 62q-217 0 -266 -254z" />
<glyph unicode="f" horiz-adv-x="600" d="M41 848v129h145v72q0 344 293 344q131 0 228 -54l-48 -120q-87 43 -172 43q-73 0 -106 -39q-39 -45 -39 -176v-70h246l-23 -129h-221v-848h-160v848h-143z" />
<glyph unicode="g" horiz-adv-x="1079" d="M94 496q0 228 144 366q145 139 370 139q164 0 330 -26v-952q0 -437 -416 -437q-270 0 -393 166l111 88q89 -127 282 -127q258 0 258 260v70q-107 -55 -235 -55q-194 0 -320 135q-131 137 -131 373zM252 492q0 -164 86 -267q87 -106 242 -106q105 0 200 59v682 q-60 14 -170 14q-139 0 -243 -96q-115 -109 -115 -286z" />
<glyph unicode="h" horiz-adv-x="1103" d="M141 0v1366l158 27v-494q144 102 305 102q194 0 281 -100q84 -96 84 -293v-608h-160v610q0 264 -234 264q-73 0 -149 -36q-62 -27 -127 -74v-764h-158z" />
<glyph unicode="i" horiz-adv-x="440" d="M117 1249q0 47 30 82t74 35t74 -35q31 -36 31 -82t-31 -82q-30 -34 -74 -34t-74 34t-30 82zM141 0v963l158 28v-991h-158z" />
<glyph unicode="j" horiz-adv-x="434" d="M-8 -291q78 57 108 115q35 65 35 172v967l158 28v-995q0 -271 -223 -399zM109 1249q0 47 30 82t74 35t74 -35t30 -82q0 -48 -30 -82t-74 -34t-74 34t-30 82z" />
<glyph unicode="k" horiz-adv-x="976" d="M141 0v1366l158 27v-787l395 371h201l-334 -315l420 -662h-182l-355 553l-145 -133v-420h-158z" />
<glyph unicode="l" horiz-adv-x="440" d="M141 0v1366l158 27v-1393h-158z" />
<glyph unicode="m" horiz-adv-x="1695" d="M141 0v965l144 24l12 -90q52 41 127 70q77 32 170 32q188 0 272 -124q148 124 342 124q198 0 279 -106q74 -95 74 -305v-590h-160v610q0 260 -219 260q-81 0 -158 -39q-60 -25 -117 -69q21 -65 21 -172v-590h-158v610q0 260 -205 260q-63 0 -141 -34q-47 -22 -125 -74 v-762h-158z" />
<glyph unicode="n" horiz-adv-x="1107" d="M141 0v965l144 24l12 -90q138 102 309 102q197 0 285 -98q82 -94 82 -295v-608h-158v612q0 262 -235 262q-137 0 -281 -108v-766h-158z" />
<glyph unicode="o" horiz-adv-x="1097" d="M94 494q0 213 113 350q127 157 342 157q216 0 342 -159q113 -143 113 -353q0 -209 -113 -352q-127 -160 -342 -160t-340 162q-115 145 -115 355zM250 494q0 -162 76 -269q83 -121 223 -121q145 0 227 123q74 109 74 265q0 155 -74 264q-83 121 -227 121q-142 0 -225 -121 q-74 -109 -74 -262z" />
<glyph unicode="p" horiz-adv-x="1073" d="M141 -387v1352l142 24l14 -84q122 96 283 96q201 0 307 -151q92 -133 92 -350q0 -236 -139 -381q-136 -142 -348 -142q-128 0 -193 33v-397h-158zM299 147q58 -43 162 -43q158 0 258 103q102 108 102 287q0 157 -61 258q-73 122 -221 122q-130 0 -240 -104v-623z" />
<glyph unicode="q" horiz-adv-x="1079" d="M94 489q0 227 144 371q144 141 370 141q164 0 330 -26v-1362h-158v418q-109 -56 -235 -56q-194 0 -320 138q-131 143 -131 376zM252 485q0 -164 84 -268q89 -111 244 -111q103 0 200 60v694q-60 14 -170 14q-142 0 -243 -98q-115 -112 -115 -291z" />
<glyph unicode="r" horiz-adv-x="659" d="M141 0v965l142 24l14 -98q101 110 225 110q40 0 84 -6q37 -3 58 -12l-29 -145q-64 22 -129 22q-59 0 -115 -33q-45 -23 -92 -67v-760h-158z" />
<glyph unicode="s" horiz-adv-x="843" d="M72 166l123 76q73 -138 235 -138q201 0 201 144q0 80 -56 127q-45 37 -192 90q-152 50 -209 113q-63 63 -63 170q0 116 88 186q85 67 229 67q220 0 334 -153l-111 -88q-95 114 -221 114q-170 0 -170 -116q0 -62 51 -96q42 -31 193 -84q274 -95 274 -310q0 -139 -98 -215 q-94 -76 -250 -76q-243 0 -358 189z" />
<glyph unicode="t" horiz-adv-x="671" d="M39 848v129h168v252l158 28v-280h266l-23 -129h-246v-625q0 -119 99 -119q66 0 137 56l61 -107q-101 -76 -223 -76q-229 0 -229 230v641h-168z" />
<glyph unicode="u" horiz-adv-x="1101" d="M135 358v607l158 26v-641q0 -246 235 -246q152 0 273 109v764h160v-977h-146l-10 76q-132 -99 -303 -99q-367 0 -367 381z" />
<glyph unicode="v" horiz-adv-x="913" d="M0 977h170l291 -797l293 797h159l-366 -977h-180z" />
<glyph unicode="w" d="M0 977h170l221 -735l240 735h90l242 -735l221 735h170l-324 -977h-123l-231 705l-230 -705h-122z" />
<glyph unicode="x" horiz-adv-x="825" d="M0 0l328 498l-314 479h179l221 -350l223 350h168l-311 -475l323 -502h-170l-239 365l-238 -365h-170z" />
<glyph unicode="y" horiz-adv-x="927" d="M0 977h180l289 -752l289 752h170l-500 -1235q-64 -156 -242 -156q-46 0 -98 15q-46 8 -82 24l45 117q34 -11 58 -14q30 -9 67 -9q44 0 74 23q29 22 55 88l80 195z" />
<glyph unicode="z" horiz-adv-x="925" d="M82 0v154l582 694h-560v129h721v-162l-583 -686h608l-23 -129h-745z" />
<glyph unicode="{" horiz-adv-x="489" d="M39 631v108q172 24 172 203v305q0 134 68 193q60 54 200 57l13 -111q-93 -3 -119 -45q-21 -27 -21 -124v-275q0 -109 -35 -168q-38 -60 -127 -90q86 -26 127 -88q35 -59 35 -168v-276q0 -92 21 -119q27 -40 119 -43l-13 -117q-139 3 -200 55q-68 59 -68 195v305 q0 179 -172 203z" />
<glyph unicode="|" horiz-adv-x="434" d="M143 -152v1663h148v-1663h-148z" />
<glyph unicode="}" horiz-adv-x="489" d="M-2 -10q92 3 119 43q20 26 20 119v276q0 109 35 168q41 62 127 88q-89 30 -127 90q-35 59 -35 168v275q0 98 -20 124q-26 42 -119 45l12 111q140 -3 203 -57q66 -60 66 -193v-305q0 -179 172 -203v-108q-172 -24 -172 -203v-305q0 -135 -66 -195q-64 -52 -203 -55z" />
<glyph unicode="~" horiz-adv-x="905" d="M-6 1038q38 293 289 293q113 0 213 -80t151 -80q63 0 98 56q30 51 35 108h133q-9 -149 -96 -233q-77 -74 -190 -74q-96 0 -197 82l-35 31l-37 26q-45 25 -88 25q-65 0 -104 -45q-38 -44 -41 -109h-131z" />
<glyph unicode="&#xa2;" horiz-adv-x="1105" d="M184 690q0 166 101 273q89 97 241 118v285h113v-285q71 -3 141 -30q51 -23 99 -62l-64 -108q-83 71 -176 71v-532q86 3 160 47l51 -119q-97 -60 -211 -63v-293h-113v297q-159 21 -252 131q-90 110 -90 270zM342 690q0 -203 184 -264v524q-82 -9 -133 -78 q-51 -63 -51 -182z" />
<glyph unicode="&#xa3;" horiz-adv-x="1105" d="M94 514v139h142v308q0 417 385 417q263 0 374 -237l-155 -76q-68 164 -222 164q-227 0 -227 -277v-299h453v-139h-453v-375h604v-139h-759v514h-142z" />
<glyph unicode="&#xa5;" horiz-adv-x="1105" d="M31 1350h186l332 -596l348 596h178l-395 -652h283v-112h-338v-133h338v-113h-338v-340h-164v340h-338v113h338v133h-338v112h285z" />
<glyph unicode="&#xa8;" horiz-adv-x="905" d="M174 1323q0 44 31 80q26 33 71 33q43 0 72 -33q29 -37 29 -80q0 -45 -29 -82q-29 -33 -72 -33q-45 0 -71 33q-31 36 -31 82zM528 1323q0 43 29 80q29 33 72 33q44 0 73 -33q29 -37 29 -80q0 -45 -29 -82q-29 -33 -73 -33q-43 0 -72 33q-29 37 -29 82z" />
<glyph unicode="&#xa9;" horiz-adv-x="1589" d="M92 608q0 311 178 525q194 237 527 237q331 0 524 -237q176 -218 176 -525q0 -308 -176 -526q-193 -240 -526 -240t-527 240q-176 218 -176 526zM219 608q0 -260 146 -444q164 -203 432 -203q269 0 428 203q145 183 145 444q0 260 -145 443q-159 202 -428 202 q-273 0 -432 -202q-146 -184 -146 -443zM422 604q0 236 110 361q100 112 271 112q199 0 293 -174l-97 -61q-67 125 -200 125q-112 0 -178 -93q-70 -94 -70 -270q0 -169 74 -264q69 -90 178 -90q115 0 203 129l94 -66q-105 -172 -299 -172q-169 0 -269 109q-110 119 -110 354 z" />
<glyph unicode="&#xab;" horiz-adv-x="985" d="M31 512l397 418l107 -80l-297 -328l325 -321l-98 -90zM406 512l397 418l106 -80l-297 -328l326 -321l-98 -90z" />
<glyph unicode="&#xad;" horiz-adv-x="628" d="M92 463v143h445v-143h-445z" />
<glyph unicode="&#xae;" horiz-adv-x="1589" d="M92 608q0 311 178 525q194 237 527 237q331 0 524 -237q176 -218 176 -525q0 -308 -176 -526q-193 -240 -526 -240t-527 240q-176 218 -176 526zM219 608q0 -260 146 -444q164 -203 432 -203q269 0 428 203q145 183 145 444q0 260 -145 443q-159 202 -428 202 q-273 0 -432 -202q-146 -184 -146 -443zM510 164v903h293q299 0 299 -250q0 -212 -215 -256l243 -397h-141l-239 387h-117v-387h-123zM633 662h164q176 0 176 155q0 141 -168 141h-172v-296z" />
<glyph unicode="&#xb4;" horiz-adv-x="905" d="M229 1190l342 285l105 -107l-371 -254z" />
<glyph unicode="&#xb8;" horiz-adv-x="905" d="M287 -330l37 101q46 -27 106 -27q59 0 59 45q0 30 -43 45q-22 10 -88 21l91 155h120l-59 -96q111 -40 111 -121q0 -160 -195 -160q-87 0 -139 37z" />
<glyph unicode="&#xbb;" horiz-adv-x="985" d="M47 201l326 321l-297 328l106 80l398 -418l-435 -401zM422 201l326 321l-297 328l106 80l397 -418l-434 -401z" />
<glyph unicode="&#xc0;" horiz-adv-x="1163" d="M0 0l526 1366h101l536 -1366h-178l-162 422h-495l-156 -422h-172zM295 1708l104 107l342 -285l-73 -76zM381 567h389l-199 523z" />
<glyph unicode="&#xc1;" horiz-adv-x="1163" d="M0 0l526 1366h101l536 -1366h-178l-162 422h-495l-156 -422h-172zM377 1530l342 285l104 -107l-370 -254zM381 567h389l-199 523z" />
<glyph unicode="&#xc2;" horiz-adv-x="1163" d="M0 0l526 1366h101l536 -1366h-178l-162 422h-495l-156 -422h-172zM270 1516l258 294h99l258 -294l-90 -62l-217 229l-216 -229zM381 567h389l-199 523z" />
<glyph unicode="&#xc3;" horiz-adv-x="1163" d="M0 0l526 1366h101l536 -1366h-178l-162 422h-495l-156 -422h-172zM215 1552q65 203 211 203q66 0 152 -57l34 -23l33 -18q36 -19 60 -19q67 0 120 121l101 -49q-71 -201 -209 -201q-34 0 -80 19q-14 6 -74 41q-92 57 -133 57q-62 0 -115 -121zM381 567h389l-199 523z" />
<glyph unicode="&#xc8;" horiz-adv-x="1052" d="M166 0v1366h797v-141h-633v-439h452v-141h-454v-504h684v-141h-846zM326 1708l104 107l342 -285l-74 -76z" />
<glyph unicode="&#xc9;" horiz-adv-x="1052" d="M166 0v1366h797v-141h-633v-439h452v-141h-454v-504h684v-141h-846zM383 1530l342 285l104 -107l-370 -254z" />
<glyph unicode="&#xca;" horiz-adv-x="1052" d="M166 0v1366h797v-141h-633v-439h452v-141h-454v-504h684v-141h-846zM274 1516l258 294h99l258 -294l-90 -62l-217 229l-215 -229z" />
<glyph unicode="&#xcc;" horiz-adv-x="495" d="M-20 1708l104 107l342 -285l-74 -76zM166 0v1366h164v-1366h-164z" />
<glyph unicode="&#xcd;" horiz-adv-x="495" d="M80 1530l342 285l104 -107l-370 -254zM166 0v1366h164v-1366h-164z" />
<glyph unicode="&#xd2;" d="M100 684q0 291 140 487q157 222 438 222t438 -222q137 -192 137 -487t-137 -487q-155 -224 -438 -224t-438 224q-140 196 -140 487zM272 684q0 -233 99 -389q114 -176 307 -176q194 0 305 176q98 154 98 389q0 229 -96 387q-111 176 -307 176t-307 -176 q-99 -156 -99 -387zM453 1708l104 107l342 -285l-74 -76z" />
<glyph unicode="&#xd3;" d="M100 684q0 291 140 487q157 222 438 222t438 -222q137 -192 137 -487t-137 -487q-155 -224 -438 -224t-438 224q-140 196 -140 487zM272 684q0 -233 99 -389q114 -176 307 -176q194 0 305 176q98 154 98 389q0 229 -96 387q-111 176 -307 176t-307 -176 q-99 -156 -99 -387zM471 1530l342 285l105 -107l-371 -254z" />
<glyph unicode="&#xd4;" d="M100 684q0 291 140 487q157 222 438 222t438 -222q137 -192 137 -487t-137 -487q-155 -224 -438 -224t-438 224q-140 196 -140 487zM272 684q0 -233 99 -389q114 -176 307 -176q194 0 305 176q98 154 98 389q0 229 -96 387q-111 176 -307 176t-307 -176 q-99 -156 -99 -387zM371 1516l258 294h98l258 -294l-90 -62l-217 229l-215 -229z" />
<glyph unicode="&#xd5;" d="M100 684q0 291 140 487q157 222 438 222t438 -222q137 -192 137 -487t-137 -487q-155 -224 -438 -224t-438 224q-140 196 -140 487zM272 684q0 -233 99 -389q114 -176 307 -176q194 0 305 176q98 154 98 389q0 229 -96 387q-111 176 -307 176t-307 -176 q-99 -156 -99 -387zM313 1552q65 203 211 203q66 0 152 -57q97 -60 127 -60q68 0 121 121l100 -49q-71 -201 -209 -201q-34 0 -80 19q-10 5 -73 41q-92 57 -134 57q-61 0 -114 -121z" />
<glyph unicode="&#xd9;" horiz-adv-x="1325" d="M158 457v909h164v-879q0 -174 90 -270q88 -98 250 -98q163 0 251 94q91 97 91 274v879h163v-909q0 -229 -153 -361q-141 -123 -357 -123q-221 0 -356 123q-143 128 -143 361zM393 1708l105 107l342 -285l-74 -76z" />
<glyph unicode="&#xda;" horiz-adv-x="1325" d="M158 457v909h164v-879q0 -174 90 -270q88 -98 250 -98q163 0 251 94q91 97 91 274v879h163v-909q0 -229 -153 -361q-141 -123 -357 -123q-221 0 -356 123q-143 128 -143 361zM475 1530l342 285l105 -107l-371 -254z" />
<glyph unicode="&#xdd;" horiz-adv-x="1112" d="M0 1366h186l365 -553l383 553h178l-483 -709v-657h-164v655zM373 1530l342 285l104 -107l-370 -254z" />
<glyph unicode="&#xe0;" horiz-adv-x="962" d="M78 283q0 189 198 280q162 72 394 72v12q0 230 -203 230q-136 0 -219 -109l-111 78q116 155 344 155q346 0 346 -364v-637h-143l-8 84q-107 -107 -264 -107q-138 0 -232 76q-102 85 -102 230zM209 1368l104 107l342 -285l-73 -76zM238 281q0 -89 63 -134q59 -41 129 -41 q127 0 240 101v303q-103 -4 -144 -10q-68 -7 -139 -33q-149 -55 -149 -186z" />
<glyph unicode="&#xe1;" horiz-adv-x="962" d="M78 283q0 189 198 280q162 72 394 72v12q0 230 -203 230q-136 0 -219 -109l-111 78q116 155 344 155q346 0 346 -364v-637h-143l-8 84q-107 -107 -264 -107q-138 0 -232 76q-102 85 -102 230zM238 281q0 -89 63 -134q59 -41 129 -41q127 0 240 101v303q-103 -4 -144 -10 q-68 -7 -139 -33q-149 -55 -149 -186zM303 1190l342 285l105 -107l-371 -254z" />
<glyph unicode="&#xe2;" horiz-adv-x="962" d="M78 283q0 189 198 280q162 72 394 72v12q0 230 -203 230q-136 0 -219 -109l-111 78q116 155 344 155q346 0 346 -364v-637h-143l-8 84q-107 -107 -264 -107q-138 0 -232 76q-102 85 -102 230zM172 1176l258 294h98l258 -294l-90 -62l-217 229l-215 -229zM238 281 q0 -89 63 -134q59 -41 129 -41q127 0 240 101v303q-103 -4 -144 -10q-68 -7 -139 -33q-149 -55 -149 -186z" />
<glyph unicode="&#xe3;" horiz-adv-x="962" d="M78 283q0 189 198 280q162 72 394 72v12q0 230 -203 230q-136 0 -219 -109l-111 78q116 155 344 155q346 0 346 -364v-637h-143l-8 84q-107 -107 -264 -107q-138 0 -232 76q-102 85 -102 230zM98 1212q65 203 211 203q60 0 152 -57l33 -23l32 -18q36 -19 62 -19 q68 0 121 121l100 -49q-71 -201 -209 -201q-37 0 -80 19q-14 6 -74 41q-92 57 -133 57q-61 0 -114 -121zM238 281q0 -89 63 -134q59 -41 129 -41q127 0 240 101v303q-103 -4 -144 -10q-68 -7 -139 -33q-149 -55 -149 -186z" />
<glyph unicode="&#xe8;" horiz-adv-x="1040" d="M94 494q0 231 121 370q119 137 315 137q210 0 324 -141q107 -131 107 -362h-711q0 -185 84 -289q85 -105 244 -105q170 0 258 156l104 -70q-127 -213 -367 -213q-222 0 -350 134q-129 135 -129 383zM264 623h518q-3 119 -82 192q-71 62 -170 62q-217 0 -266 -254z M285 1368l104 107l342 -285l-74 -76z" />
<glyph unicode="&#xe9;" horiz-adv-x="1040" d="M94 494q0 231 121 370q119 137 315 137q210 0 324 -141q107 -131 107 -362h-711q0 -185 84 -289q85 -105 244 -105q170 0 258 156l104 -70q-127 -213 -367 -213q-222 0 -350 134q-129 135 -129 383zM264 623h518q-3 119 -82 192q-71 62 -170 62q-217 0 -266 -254z M328 1190l342 285l104 -107l-371 -254z" />
<glyph unicode="&#xea;" horiz-adv-x="1040" d="M94 494q0 231 121 370q119 137 315 137q210 0 324 -141q107 -131 107 -362h-711q0 -185 84 -289q85 -105 244 -105q170 0 258 156l104 -70q-127 -213 -367 -213q-222 0 -350 134q-129 135 -129 383zM233 1176l259 294h98l258 -294l-90 -62l-217 229l-215 -229zM264 623 h518q-3 119 -82 192q-71 62 -170 62q-217 0 -266 -254z" />
<glyph unicode="&#xec;" horiz-adv-x="440" d="M-98 1368l104 107l342 -285l-74 -76zM141 0v963l158 28v-991h-158z" />
<glyph unicode="&#xed;" horiz-adv-x="440" d="M106 1190l343 285l104 -107l-371 -254zM141 0v963l158 28v-991h-158z" />
<glyph unicode="&#xf2;" horiz-adv-x="1097" d="M94 494q0 213 113 350q127 157 342 157q216 0 342 -159q113 -143 113 -353q0 -209 -113 -352q-127 -160 -342 -160t-340 162q-115 145 -115 355zM250 494q0 -162 76 -269q83 -121 223 -121q145 0 227 123q74 109 74 265q0 155 -74 264q-83 121 -227 121q-142 0 -225 -121 q-74 -109 -74 -262zM281 1368l104 107l342 -285l-74 -76z" />
<glyph unicode="&#xf3;" horiz-adv-x="1097" d="M94 494q0 213 113 350q127 157 342 157q216 0 342 -159q113 -143 113 -353q0 -209 -113 -352q-127 -160 -342 -160t-340 162q-115 145 -115 355zM250 494q0 -162 76 -269q83 -121 223 -121q145 0 227 123q74 109 74 265q0 155 -74 264q-83 121 -227 121q-142 0 -225 -121 q-74 -109 -74 -262zM340 1190l342 285l104 -107l-370 -254z" />
<glyph unicode="&#xf4;" horiz-adv-x="1097" d="M94 494q0 213 113 350q127 157 342 157q216 0 342 -159q113 -143 113 -353q0 -209 -113 -352q-127 -160 -342 -160t-340 162q-115 145 -115 355zM236 1176l258 294h98l258 -294l-90 -62l-217 229l-215 -229zM250 494q0 -162 76 -269q83 -121 223 -121q145 0 227 123 q74 109 74 265q0 155 -74 264q-83 121 -227 121q-142 0 -225 -121q-74 -109 -74 -262z" />
<glyph unicode="&#xf5;" horiz-adv-x="1097" d="M94 494q0 213 113 350q127 157 342 157q216 0 342 -159q113 -143 113 -353q0 -209 -113 -352q-127 -160 -342 -160t-340 162q-115 145 -115 355zM195 1212q65 203 211 203q59 0 151 -57l33 -23l33 -18q36 -19 61 -19q68 0 121 121l100 -49q-71 -201 -209 -201 q-37 0 -80 19q-10 5 -73 41q-92 57 -133 57q-62 0 -115 -121zM250 494q0 -162 76 -269q83 -121 223 -121q145 0 227 123q74 109 74 265q0 155 -74 264q-83 121 -227 121q-142 0 -225 -121q-74 -109 -74 -262z" />
<glyph unicode="&#xf9;" horiz-adv-x="1101" d="M135 358v607l158 26v-641q0 -246 235 -246q152 0 273 109v764h160v-977h-146l-10 76q-132 -99 -303 -99q-367 0 -367 381zM279 1368l104 107l342 -285l-74 -76z" />
<glyph unicode="&#xfa;" horiz-adv-x="1101" d="M135 358v607l158 26v-641q0 -246 235 -246q152 0 273 109v764h160v-977h-146l-10 76q-132 -99 -303 -99q-367 0 -367 381zM369 1190l342 285l104 -107l-371 -254z" />
<glyph unicode="&#xfd;" horiz-adv-x="927" d="M0 977h180l289 -752l289 752h170l-500 -1235q-64 -156 -242 -156q-46 0 -98 15q-46 8 -82 24l45 117q34 -11 58 -14q30 -9 67 -9q44 0 74 23q29 22 55 88l80 195zM285 1190l342 285l104 -107l-371 -254z" />
<glyph unicode="&#x102;" horiz-adv-x="1163" d="M0 0l526 1366h101l536 -1366h-178l-162 422h-495l-156 -422h-172zM291 1737h129q21 -150 162 -150q136 0 163 150h123q-12 -134 -104 -205q-75 -57 -191 -57q-117 0 -186 57q-93 69 -96 205zM381 567h389l-199 523z" />
<glyph unicode="&#x103;" horiz-adv-x="962" d="M78 283q0 189 198 280q162 72 394 72v12q0 230 -203 230q-136 0 -219 -109l-111 78q116 155 344 155q346 0 346 -364v-637h-143l-8 84q-107 -107 -264 -107q-138 0 -232 76q-102 85 -102 230zM199 1397h129q21 -150 161 -150q137 0 164 150h123q-12 -134 -104 -205 q-75 -57 -191 -57q-117 0 -186 57q-93 69 -96 205zM238 281q0 -89 63 -134q59 -41 129 -41q127 0 240 101v303q-103 -4 -144 -10q-68 -7 -139 -33q-149 -55 -149 -186z" />
<glyph unicode="&#x110;" horiz-adv-x="1280" d="M0 647v127h166v592h354q199 0 324 -61q336 -157 336 -603q0 -275 -123 -454q-113 -162 -309 -221q-50 -13 -113 -21q-59 -6 -115 -6h-354v647h-166zM330 141h168q50 0 104 4q57 6 103 25q303 119 303 524q0 322 -205 457q-115 74 -295 74h-178v-451h327v-127h-327v-506z " />
<glyph unicode="&#x111;" horiz-adv-x="1073" d="M94 498q0 205 119 348q128 155 350 155q122 0 217 -36v155h-286v127h286v119l158 27v-146h133v-127h-133v-1120h-145l-13 80q-103 -103 -252 -103q-201 0 -321 150q-113 143 -113 371zM250 489q0 -173 76 -274q80 -111 227 -111q139 0 227 111v612q-26 19 -82 33 q-52 14 -110 14q-162 0 -254 -120q-84 -110 -84 -265z" />
<glyph unicode="&#x128;" horiz-adv-x="495" d="M-102 1552q65 203 211 203q37 0 77 -18q29 -13 74 -39q97 -60 127 -60q68 0 121 121l100 -49q-71 -201 -209 -201q-56 0 -153 60q-92 57 -133 57q-62 0 -115 -121zM166 0v1366h164v-1366h-164z" />
<glyph unicode="&#x129;" horiz-adv-x="440" d="M-131 1212q65 203 211 203q65 0 151 -57l35 -23l33 -18q36 -19 59 -19q68 0 121 121l101 -49q-71 -201 -209 -201q-34 0 -80 19q-14 6 -74 41q-92 57 -133 57q-62 0 -115 -121zM141 0v963l158 28v-991h-158z" />
<glyph unicode="&#x168;" horiz-adv-x="1325" d="M158 457v909h164v-879q0 -174 90 -270q88 -98 250 -98q163 0 251 94q91 97 91 274v879h163v-909q0 -229 -153 -361q-141 -123 -357 -123q-221 0 -356 123q-143 128 -143 361zM322 1552q65 203 210 203q38 0 78 -18q29 -13 74 -39q97 -60 127 -60q68 0 121 121l100 -49 q-71 -201 -209 -201q-56 0 -153 60l-35 20l-33 19q-37 18 -65 18q-62 0 -115 -121z" />
<glyph unicode="&#x169;" horiz-adv-x="1101" d="M135 358v607l158 26v-641q0 -246 235 -246q152 0 273 109v764h160v-977h-146l-10 76q-132 -99 -303 -99q-367 0 -367 381zM215 1212q65 203 211 203q66 0 152 -57l34 -23l33 -18q36 -19 60 -19q67 0 120 121l101 -49q-71 -201 -209 -201q-34 0 -80 19q-14 6 -74 41 q-92 57 -133 57q-62 0 -115 -121z" />
<glyph unicode="&#x1a0;" d="M100 684q0 291 140 487q157 222 438 222q107 0 203 -35q14 1 31.5 4.5t19.5 3.5q25 7 57 29q32 25 49 53q20 28 29 80h131q-3 -83 -35 -137q-34 -58 -80 -95q-17 -15 -53 -30q43 -40 86 -95q137 -198 137 -487q0 -295 -137 -487q-155 -224 -438 -224t-438 224 q-140 196 -140 487zM272 684q0 -233 99 -389q114 -176 307 -176q194 0 305 176q98 154 98 389q0 229 -96 387q-111 176 -307 176t-307 -176q-99 -156 -99 -387z" />
<glyph unicode="&#x1a1;" horiz-adv-x="1097" d="M94 494q0 213 113 350q127 157 342 157q82 0 164 -28q14 1 33 4.5t20 3.5q25 7 57 29q32 25 49 53q20 28 29 80h131q-3 -83 -35 -137q-35 -60 -79 -95q-15 -11 -60 -34l16 -17l17 -18q113 -143 113 -353q0 -209 -113 -352q-127 -160 -342 -160t-340 162 q-115 145 -115 355zM250 494q0 -162 76 -269q83 -121 223 -121q145 0 227 123q74 109 74 265q0 155 -74 264q-83 121 -227 121q-142 0 -225 -121q-74 -109 -74 -262z" />
<glyph unicode="&#x1af;" horiz-adv-x="1325" d="M158 457v909h164v-879q0 -174 90 -270q88 -98 250 -98q163 0 251 94q91 97 91 274v879h102q25 7 57 29q32 25 49 53q20 28 29 80h131q-3 -83 -35 -137q-34 -58 -80 -95q-47 -31 -90 -47v-792q0 -229 -153 -361q-141 -123 -357 -123q-221 0 -356 123q-143 128 -143 361z " />
<glyph unicode="&#x1b0;" horiz-adv-x="1101" d="M135 358v607l158 26v-641q0 -246 235 -246q152 0 273 109v764h129l10 2l8 2q26 8 58 29q32 25 49 53q18 26 28 80h131q-3 -85 -34 -137q-34 -58 -80 -95q-47 -31 -109 -53l-14 -4l-16 -4v-850h-146l-10 76q-132 -99 -303 -99q-367 0 -367 381z" />
<glyph unicode="&#x2c6;" horiz-adv-x="905" d="M145 1176l258 294h99l258 -294l-90 -62l-217 229l-215 -229z" />
<glyph unicode="&#x2da;" horiz-adv-x="905" d="M262 1296q0 84 49 142q51 63 142 63q92 0 143 -63q49 -58 49 -142q0 -81 -49 -139q-54 -63 -143 -63q-91 0 -142 63q-49 58 -49 139zM348 1296q0 -48 27 -82q28 -38 78 -38q49 0 77 38q27 34 27 82q0 52 -27 86q-27 37 -77 37q-51 0 -78 -37q-27 -34 -27 -86z" />
<glyph unicode="&#x2dc;" horiz-adv-x="905" d="M98 1212q65 203 211 203q66 0 152 -57l35 -23l32 -18q36 -19 60 -19q68 0 121 121l100 -49q-71 -201 -209 -201q-34 0 -80 19q-14 6 -74 41q-92 57 -133 57q-61 0 -114 -121z" />
<glyph unicode="&#x1ea0;" horiz-adv-x="1163" d="M0 0l526 1366h101l536 -1366h-178l-162 422h-495l-156 -422h-172zM381 567h389l-199 523zM471 -274q0 50 31 86q33 36 80 36t80 -36q30 -35 30 -86q0 -52 -30 -86q-34 -37 -80 -37t-80 37q-31 36 -31 86z" />
<glyph unicode="&#x1ea1;" horiz-adv-x="962" d="M78 283q0 189 198 280q162 72 394 72v12q0 230 -203 230q-136 0 -219 -109l-111 78q116 155 344 155q346 0 346 -364v-637h-143l-8 84q-107 -107 -264 -107q-138 0 -232 76q-102 85 -102 230zM238 281q0 -89 63 -134q59 -41 129 -41q127 0 240 101v303q-103 -4 -144 -10 q-68 -7 -139 -33q-149 -55 -149 -186zM342 -274q0 50 31 86q33 36 80 36q46 0 79 -36q31 -36 31 -86t-31 -86q-34 -37 -79 -37q-46 0 -80 37q-31 36 -31 86z" />
<glyph unicode="&#x1ea2;" horiz-adv-x="1163" d="M0 0l526 1366h101l536 -1366h-178l-162 422h-495l-156 -422h-172zM381 567h389l-199 523zM395 1731q70 137 201 137q74 0 123 -43t49 -111q0 -64 -59 -129l-25 -24l-27 -27q-31 -31 -43 -59l-98 24q10 32 29 57l18 23l21 23q49 52 49 90q0 69 -68 69q-56 0 -100 -71z" />
<glyph unicode="&#x1ea3;" horiz-adv-x="962" d="M78 283q0 189 198 280q162 72 394 72v12q0 230 -203 230q-136 0 -219 -109l-111 78q116 155 344 155q346 0 346 -364v-637h-143l-8 84q-107 -107 -264 -107q-138 0 -232 76q-102 85 -102 230zM238 281q0 -89 63 -134q59 -41 129 -41q127 0 240 101v303q-103 -4 -144 -10 q-68 -7 -139 -33q-149 -55 -149 -186zM266 1341q70 138 201 138q74 0 123 -43t49 -111q0 -64 -59 -129l-25 -25l-27 -26q-30 -30 -43 -60l-98 25q10 32 29 57l18 23l21 22q49 52 49 91q0 69 -68 69q-56 0 -100 -72z" />
<glyph unicode="&#x1ea4;" horiz-adv-x="1163" d="M0 0l526 1366h101l536 -1366h-178l-162 422h-495l-156 -422h-172zM272 1518l258 294h99l258 -294l-90 -62l-217 230l-215 -230zM381 567h389l-199 523zM846 1722l342 285l104 -106l-370 -254z" />
<glyph unicode="&#x1ea5;" horiz-adv-x="962" d="M78 283q0 189 198 280q162 72 394 72v12q0 230 -203 230q-136 0 -219 -109l-111 78q116 155 344 155q346 0 346 -364v-637h-143l-8 84q-107 -107 -264 -107q-138 0 -232 76q-102 85 -102 230zM145 1176l258 294h99l258 -294l-90 -62l-217 229l-215 -229zM238 281 q0 -89 63 -134q59 -41 129 -41q127 0 240 101v303q-103 -4 -144 -10q-68 -7 -139 -33q-149 -55 -149 -186zM748 1450l342 285l104 -107l-371 -254z" />
<glyph unicode="&#x1ea6;" horiz-adv-x="1163" d="M-172 1901l104 106l342 -285l-75 -75zM0 0l526 1366h101l536 -1366h-178l-162 422h-495l-156 -422h-172zM272 1518l258 294h99l258 -294l-90 -62l-217 230l-215 -230zM381 567h389l-199 523z" />
<glyph unicode="&#x1ea7;" horiz-adv-x="962" d="M78 283q0 189 198 280q162 72 394 72v12q0 230 -203 230q-136 0 -219 -109l-111 78q116 155 344 155q346 0 346 -364v-637h-143l-8 84q-107 -107 -264 -107q-138 0 -232 76q-102 85 -102 230zM145 1176l258 294h99l258 -294l-90 -62l-217 229l-215 -229zM238 281 q0 -89 63 -134q59 -41 129 -41q127 0 240 101v303q-103 -4 -144 -10q-68 -7 -139 -33q-149 -55 -149 -186zM328 1774l104 106l342 -285l-74 -75z" />
<glyph unicode="&#x1ea8;" horiz-adv-x="1163" d="M0 0l526 1366h101l536 -1366h-178l-162 422h-495l-156 -422h-172zM274 1518l258 294h99l258 -294l-90 -62l-217 230l-215 -230zM381 567h389l-199 523zM743 1921q70 137 201 137q74 0 123 -43t49 -110q0 -64 -59 -129l-25 -25l-26 -27q-31 -31 -43 -59l-99 25 q10 32 29 57l18 22l21 23q49 52 49 90q0 70 -68 70q-56 0 -100 -72z" />
<glyph unicode="&#x1ea9;" horiz-adv-x="962" d="M78 283q0 189 198 280q162 72 394 72v12q0 230 -203 230q-136 0 -219 -109l-111 78q116 155 344 155q346 0 346 -364v-637h-143l-8 84q-107 -107 -264 -107q-138 0 -232 76q-102 85 -102 230zM145 1176l258 294h99l258 -294l-90 -62l-217 229l-215 -229zM238 281 q0 -89 63 -134q59 -41 129 -41q127 0 240 101v303q-103 -4 -144 -10q-68 -7 -139 -33q-149 -55 -149 -186zM535 1679q71 138 200 138q74 0 123 -43t49 -111q0 -64 -59 -129l-25 -25l-26 -26q-30 -30 -43 -60l-99 25q10 32 29 57l18 23l21 22q49 52 49 90q0 70 -67 70 q-57 0 -101 -72z" />
<glyph unicode="&#x1eaa;" horiz-adv-x="1163" d="M0 0l526 1366h101l536 -1366h-178l-162 422h-495l-156 -422h-172zM274 1520l258 295h99l258 -295l-90 -62l-217 230l-215 -230zM322 1896q65 203 210 203q38 0 78 -18q29 -13 74 -39q97 -60 127 -60q68 0 121 121l100 -49q-71 -201 -209 -201q-56 0 -153 60l-35 20 l-33 19q-37 18 -65 18q-62 0 -115 -121zM381 567h389l-199 523z" />
<glyph unicode="&#x1eab;" horiz-adv-x="962" d="M78 283q0 189 198 280q162 72 394 72v12q0 230 -203 230q-136 0 -219 -109l-111 78q116 155 344 155q346 0 346 -364v-637h-143l-8 84q-107 -107 -264 -107q-138 0 -232 76q-102 85 -102 230zM98 1581q65 203 211 203q64 0 152 -58l35 -22l32 -18q36 -19 60 -19 q68 0 121 121l100 -49q-71 -201 -209 -201q-36 0 -80 18q-14 6 -74 41q-94 58 -133 58q-61 0 -114 -121zM145 1176l258 294h99l258 -294l-90 -62l-217 229l-215 -229zM238 281q0 -89 63 -134q59 -41 129 -41q127 0 240 101v303q-103 -4 -144 -10q-68 -7 -139 -33 q-149 -55 -149 -186z" />
<glyph unicode="&#x1eac;" horiz-adv-x="1163" d="M0 0l526 1366h101l536 -1366h-178l-162 422h-495l-156 -422h-172zM274 1518l258 294h99l258 -294l-90 -62l-217 230l-215 -230zM381 567h389l-199 523zM471 -274q0 50 31 86q33 36 80 36t80 -36q30 -35 30 -86q0 -52 -30 -86q-34 -37 -80 -37t-80 37q-31 36 -31 86z" />
<glyph unicode="&#x1ead;" horiz-adv-x="962" d="M78 283q0 189 198 280q162 72 394 72v12q0 230 -203 230q-136 0 -219 -109l-111 78q116 155 344 155q346 0 346 -364v-637h-143l-8 84q-107 -107 -264 -107q-138 0 -232 76q-102 85 -102 230zM145 1176l258 294h99l258 -294l-90 -62l-217 229l-215 -229zM238 281 q0 -89 63 -134q59 -41 129 -41q127 0 240 101v303q-103 -4 -144 -10q-68 -7 -139 -33q-149 -55 -149 -186zM342 -274q0 50 31 86q33 36 80 36q46 0 79 -36q31 -36 31 -86t-31 -86q-34 -37 -79 -37q-46 0 -80 37q-31 36 -31 86z" />
<glyph unicode="&#x1eae;" horiz-adv-x="1163" d="M0 0l526 1366h101l536 -1366h-178l-162 422h-495l-156 -422h-172zM293 1718h129q21 -149 162 -149q137 0 164 149h122q-12 -134 -104 -205q-75 -57 -191 -57q-117 0 -186 57q-93 69 -96 205zM381 567h389l-199 523zM508 1851l342 285l104 -106l-370 -254z" />
<glyph unicode="&#x1eaf;" horiz-adv-x="962" d="M78 283q0 189 198 280q162 72 394 72v12q0 230 -203 230q-136 0 -219 -109l-111 78q116 155 344 155q346 0 346 -364v-637h-143l-8 84q-107 -107 -264 -107q-138 0 -232 76q-102 85 -102 230zM164 1397h129q21 -150 162 -150q136 0 163 150h123q-12 -134 -104 -205 q-75 -57 -191 -57q-117 0 -186 57q-93 69 -96 205zM238 281q0 -89 63 -134q59 -41 129 -41q127 0 240 101v303q-103 -4 -144 -10q-68 -7 -139 -33q-149 -55 -149 -186zM305 1563l342 284l105 -106l-371 -254z" />
<glyph unicode="&#x1eb0;" horiz-adv-x="1163" d="M0 0l526 1366h101l536 -1366h-178l-162 422h-495l-156 -422h-172zM209 2003l104 106l342 -284l-73 -76zM293 1720h129q21 -149 162 -149q137 0 164 149h122q-12 -133 -104 -204q-76 -58 -191 -58q-116 0 -186 58q-93 69 -96 204zM381 567h389l-199 523z" />
<glyph unicode="&#x1eb1;" horiz-adv-x="962" d="M78 283q0 189 198 280q162 72 394 72v12q0 230 -203 230q-136 0 -219 -109l-111 78q116 155 344 155q346 0 346 -364v-637h-143l-8 84q-107 -107 -264 -107q-138 0 -232 76q-102 85 -102 230zM154 1741l104 106l342 -284l-74 -76zM164 1397h129q21 -150 162 -150 q136 0 163 150h123q-12 -134 -104 -205q-75 -57 -191 -57q-117 0 -186 57q-93 69 -96 205zM238 281q0 -89 63 -134q59 -41 129 -41q127 0 240 101v303q-103 -4 -144 -10q-68 -7 -139 -33q-149 -55 -149 -186z" />
<glyph unicode="&#x1eb2;" horiz-adv-x="1163" d="M0 0l526 1366h101l536 -1366h-178l-162 422h-495l-156 -422h-172zM293 1724h129q21 -149 162 -149q137 0 164 149h122q-12 -133 -104 -204q-76 -58 -191 -58q-116 0 -186 58q-93 69 -96 204zM381 567h389l-199 523zM403 1894q70 105 201 105q73 0 123 -33q49 -34 49 -84 q0 -46 -59 -96l-25 -19l-26 -20q-28 -21 -43 -43l-99 18q10 24 29 43l18 17l21 16q49 40 49 68q0 53 -68 53q-57 0 -100 -55z" />
<glyph unicode="&#x1eb3;" horiz-adv-x="962" d="M78 283q0 189 198 280q162 72 394 72v12q0 230 -203 230q-136 0 -219 -109l-111 78q116 155 344 155q346 0 346 -364v-637h-143l-8 84q-107 -107 -264 -107q-138 0 -232 76q-102 85 -102 230zM164 1397h129q21 -150 162 -150q136 0 163 150h123q-12 -134 -104 -205 q-75 -57 -191 -57q-117 0 -186 57q-93 69 -96 205zM238 281q0 -89 63 -134q59 -41 129 -41q127 0 240 101v303q-103 -4 -144 -10q-68 -7 -139 -33q-149 -55 -149 -186zM266 1653q70 137 201 137q74 0 123 -43t49 -111q0 -64 -59 -129l-25 -24l-27 -27q-31 -31 -43 -59 l-98 24q10 34 29 58l18 22l21 23q49 52 49 90q0 69 -68 69q-56 0 -100 -71z" />
<glyph unicode="&#x1eb4;" horiz-adv-x="1163" d="M0 0l526 1366h101l536 -1366h-178l-162 422h-495l-156 -422h-172zM238 1825q65 203 211 203q63 0 151 -58l35 -22l33 -19q35 -18 59 -18q68 0 121 121l100 -50q-71 -200 -209 -200q-58 0 -153 59l-35 21l-33 18q-38 18 -65 18q-63 0 -115 -120zM293 1720h129 q21 -149 162 -149q137 0 164 149h122q-12 -133 -104 -204q-76 -58 -191 -58q-116 0 -186 58q-93 69 -96 204zM381 567h389l-199 523z" />
<glyph unicode="&#x1eb5;" horiz-adv-x="962" d="M78 283q0 189 198 280q162 72 394 72v12q0 230 -203 230q-136 0 -219 -109l-111 78q116 155 344 155q346 0 346 -364v-637h-143l-8 84q-107 -107 -264 -107q-138 0 -232 76q-102 85 -102 230zM98 1507q65 203 211 203q66 0 152 -57l35 -23l32 -18q36 -19 60 -19 q68 0 121 121l100 -49q-71 -201 -209 -201q-34 0 -80 19q-14 6 -74 41q-92 57 -133 57q-61 0 -114 -121zM164 1397h129q21 -150 162 -150q136 0 163 150h123q-12 -134 -104 -205q-75 -57 -191 -57q-117 0 -186 57q-93 69 -96 205zM238 281q0 -89 63 -134q59 -41 129 -41 q127 0 240 101v303q-103 -4 -144 -10q-68 -7 -139 -33q-149 -55 -149 -186z" />
<glyph unicode="&#x1eb6;" horiz-adv-x="1163" d="M0 0l526 1366h101l536 -1366h-178l-162 422h-495l-156 -422h-172zM293 1786h129q21 -150 162 -150q137 0 164 150h122q-12 -134 -104 -205q-75 -57 -191 -57q-117 0 -186 57q-93 69 -96 205zM381 567h389l-199 523zM471 -274q0 50 31 86q33 36 80 36t80 -36 q30 -35 30 -86q0 -52 -30 -86q-34 -37 -80 -37t-80 37q-31 36 -31 86z" />
<glyph unicode="&#x1eb7;" horiz-adv-x="962" d="M78 283q0 189 198 280q162 72 394 72v12q0 230 -203 230q-136 0 -219 -109l-111 78q116 155 344 155q346 0 346 -364v-637h-143l-8 84q-107 -107 -264 -107q-138 0 -232 76q-102 85 -102 230zM164 1397h129q21 -150 162 -150q136 0 163 150h123q-12 -134 -104 -205 q-75 -57 -191 -57q-117 0 -186 57q-93 69 -96 205zM238 281q0 -89 63 -134q59 -41 129 -41q127 0 240 101v303q-103 -4 -144 -10q-68 -7 -139 -33q-149 -55 -149 -186zM342 -274q0 50 31 86q33 36 80 36q46 0 79 -36q31 -36 31 -86t-31 -86q-34 -37 -79 -37q-46 0 -80 37 q-31 36 -31 86z" />
<glyph unicode="&#x1eb8;" horiz-adv-x="1052" d="M166 0v1366h797v-141h-633v-439h452v-141h-454v-504h684v-141h-846zM479 -274q0 50 31 86q33 36 80 36t80 -36q30 -35 30 -86q0 -52 -30 -86q-34 -37 -80 -37t-80 37q-31 36 -31 86z" />
<glyph unicode="&#x1eb9;" horiz-adv-x="1040" d="M94 494q0 231 121 370q119 137 315 137q210 0 324 -141q107 -131 107 -362h-711q0 -185 84 -289q85 -105 244 -105q170 0 258 156l104 -70q-127 -213 -367 -213q-222 0 -350 134q-129 135 -129 383zM264 623h518q-3 119 -82 192q-71 62 -170 62q-217 0 -266 -254z M418 -274q0 50 31 86q33 36 79 36q47 0 80 -36q31 -36 31 -86t-31 -86q-34 -37 -80 -37q-45 0 -79 37q-31 36 -31 86z" />
<glyph unicode="&#x1eba;" horiz-adv-x="1052" d="M166 0v1366h797v-141h-633v-439h452v-141h-454v-504h684v-141h-846zM403 1731q70 137 201 137q74 0 123 -43t49 -111q0 -64 -59 -129l-25 -24l-26 -27q-31 -31 -43 -59l-99 24q10 32 29 57l18 23l21 23q49 52 49 90q0 69 -68 69q-56 0 -100 -71z" />
<glyph unicode="&#x1ebb;" horiz-adv-x="1040" d="M94 494q0 231 121 370q119 137 315 137q210 0 324 -141q107 -131 107 -362h-711q0 -185 84 -289q85 -105 244 -105q170 0 258 156l104 -70q-127 -213 -367 -213q-222 0 -350 134q-129 135 -129 383zM264 623h518q-3 119 -82 192q-71 62 -170 62q-217 0 -266 -254z M342 1341q70 138 201 138q74 0 123 -43t49 -111q0 -63 -60 -129l-24 -25l-27 -26q-30 -30 -43 -60l-98 25q10 32 29 57l18 23l20 22q50 53 50 91q0 69 -68 69q-56 0 -100 -72z" />
<glyph unicode="&#x1ebc;" horiz-adv-x="1052" d="M166 0v1366h797v-141h-633v-439h452v-141h-454v-504h684v-141h-846zM233 1602q64 202 211 202q66 0 152 -57l35 -23l33 -18q34 -18 59 -18q69 0 121 120l100 -49q-71 -200 -209 -200q-37 0 -80 18q-10 5 -73 41q-92 57 -133 57q-62 0 -115 -121z" />
<glyph unicode="&#x1ebd;" horiz-adv-x="1040" d="M94 494q0 231 121 370q119 137 315 137q210 0 324 -141q107 -131 107 -362h-711q0 -185 84 -289q85 -105 244 -105q170 0 258 156l104 -70q-127 -213 -367 -213q-222 0 -350 134q-129 135 -129 383zM172 1212q65 203 211 203q66 0 152 -57l34 -23l33 -18q36 -19 60 -19 q67 0 120 121l101 -49q-71 -201 -209 -201q-34 0 -80 19q-14 6 -74 41q-92 57 -133 57q-62 0 -115 -121zM264 623h518q-3 119 -82 192q-71 62 -170 62q-217 0 -266 -254z" />
<glyph unicode="&#x1ebe;" horiz-adv-x="1052" d="M166 0v1366h797v-141h-633v-439h452v-141h-454v-504h684v-141h-846zM281 1518l258 294h98l258 -294l-90 -62l-217 230l-215 -230zM854 1722l342 285l104 -106l-370 -254z" />
<glyph unicode="&#x1ebf;" horiz-adv-x="1040" d="M94 494q0 231 121 370q119 137 315 137q210 0 324 -141q107 -131 107 -362h-711q0 -185 84 -289q85 -105 244 -105q170 0 258 156l104 -70q-127 -213 -367 -213q-222 0 -350 134q-129 135 -129 383zM221 1176l258 294h99l258 -294l-91 -62l-217 229l-215 -229zM264 623 h518q-3 119 -82 192q-71 62 -170 62q-217 0 -266 -254zM795 1470l342 285l104 -106l-371 -254z" />
<glyph unicode="&#x1ec0;" horiz-adv-x="1052" d="M-90 1901l104 106l342 -285l-75 -75zM166 0v1366h797v-141h-633v-439h452v-141h-454v-504h684v-141h-846zM281 1518l258 294h98l258 -294l-90 -62l-217 230l-215 -230z" />
<glyph unicode="&#x1ec1;" horiz-adv-x="1040" d="M94 494q0 231 121 370q119 137 315 137q210 0 324 -141q107 -131 107 -362h-711q0 -185 84 -289q85 -105 244 -105q170 0 258 156l104 -70q-127 -213 -367 -213q-222 0 -350 134q-129 135 -129 383zM221 1176l258 294h99l258 -294l-91 -62l-217 229l-215 -229zM264 623 h518q-3 119 -82 192q-71 62 -170 62q-217 0 -266 -254zM469 1792l104 106l342 -284l-73 -76z" />
<glyph unicode="&#x1ec2;" horiz-adv-x="1052" d="M166 0v1366h797v-141h-633v-439h452v-141h-454v-504h684v-141h-846zM283 1518l258 294h98l258 -294l-90 -62l-217 230l-215 -230zM752 1921q70 137 200 137q74 0 123 -43t49 -110q0 -64 -59 -129l-25 -25l-26 -27q-31 -31 -43 -59l-99 25q10 32 29 57l19 22l20 23 q49 52 49 90q0 70 -67 70q-57 0 -101 -72z" />
<glyph unicode="&#x1ec3;" horiz-adv-x="1040" d="M94 494q0 231 121 370q119 137 315 137q210 0 324 -141q107 -131 107 -362h-711q0 -185 84 -289q85 -105 244 -105q170 0 258 156l104 -70q-127 -213 -367 -213q-222 0 -350 134q-129 135 -129 383zM221 1176l258 294h99l258 -294l-91 -62l-217 229l-215 -229zM264 623 h518q-3 119 -82 192q-71 62 -170 62q-217 0 -266 -254zM641 1659q70 137 201 137q74 0 123 -43t49 -111q0 -63 -60 -129l-24 -24l-27 -27q-31 -31 -43 -59l-98 24q10 34 29 58l18 22l20 23q50 53 50 90q0 70 -68 70q-56 0 -100 -72z" />
<glyph unicode="&#x1ec4;" horiz-adv-x="1052" d="M166 0v1366h797v-141h-633v-439h452v-141h-454v-504h684v-141h-846zM281 1520l258 295h98l258 -295l-90 -62l-217 230l-215 -230zM328 1896q65 203 211 203q65 0 151 -57l35 -23l33 -18q36 -19 59 -19q68 0 121 121l100 -49q-71 -201 -209 -201q-56 0 -153 60l-35 20 l-33 19q-37 18 -65 18q-62 0 -115 -121z" />
<glyph unicode="&#x1ec5;" horiz-adv-x="1040" d="M94 494q0 231 121 370q119 137 315 137q210 0 324 -141q107 -131 107 -362h-711q0 -185 84 -289q85 -105 244 -105q170 0 258 156l104 -70q-127 -213 -367 -213q-222 0 -350 134q-129 135 -129 383zM172 1581q65 203 211 203q64 0 152 -58q95 -59 127 -59q67 0 120 121 l101 -49q-71 -201 -209 -201q-59 0 -154 59l-35 21l-32 18q-40 19 -66 19q-62 0 -115 -121zM221 1176l258 294h99l258 -294l-91 -62l-217 229l-215 -229zM264 623h518q-3 119 -82 192q-71 62 -170 62q-217 0 -266 -254z" />
<glyph unicode="&#x1ec6;" horiz-adv-x="1052" d="M166 0v1366h797v-141h-633v-439h452v-141h-454v-504h684v-141h-846zM281 1518l258 294h98l258 -294l-90 -62l-217 230l-215 -230zM479 -274q0 50 31 86q33 36 80 36t80 -36q30 -35 30 -86q0 -52 -30 -86q-34 -37 -80 -37t-80 37q-31 36 -31 86z" />
<glyph unicode="&#x1ec7;" horiz-adv-x="1040" d="M94 494q0 231 121 370q119 137 315 137q210 0 324 -141q107 -131 107 -362h-711q0 -185 84 -289q85 -105 244 -105q170 0 258 156l104 -70q-127 -213 -367 -213q-222 0 -350 134q-129 135 -129 383zM221 1176l258 294h99l258 -294l-91 -62l-217 229l-215 -229zM264 623 h518q-3 119 -82 192q-71 62 -170 62q-217 0 -266 -254zM418 -274q0 50 31 86q33 36 79 36q47 0 80 -36q31 -36 31 -86t-31 -86q-34 -37 -80 -37q-45 0 -79 37q-31 36 -31 86z" />
<glyph unicode="&#x1ec8;" horiz-adv-x="495" d="M61 1731q70 137 201 137q74 0 123 -43t49 -111q0 -64 -59 -129l-25 -24l-26 -27q-31 -31 -43 -59l-99 24q10 32 29 57l18 23l21 23q49 52 49 90q0 69 -68 69q-56 0 -100 -71zM166 0v1366h164v-1366h-164z" />
<glyph unicode="&#x1ec9;" horiz-adv-x="440" d="M35 1341q71 138 201 138q73 0 122 -43q50 -44 50 -111q0 -63 -60 -129l-24 -25l-27 -26q-30 -30 -43 -60l-98 25q10 34 28 57l19 23l20 22q49 52 49 91q0 69 -67 69q-57 0 -101 -72zM141 0v963l158 28v-991h-158z" />
<glyph unicode="&#x1eca;" horiz-adv-x="495" d="M137 -274q0 50 31 86q33 36 80 36t80 -36q30 -34 30 -86t-30 -86q-34 -37 -80 -37t-80 37q-31 36 -31 86zM166 0v1366h164v-1366h-164z" />
<glyph unicode="&#x1ecb;" horiz-adv-x="440" d="M111 -274q0 52 30 86q33 36 80 36t80 -36q31 -36 31 -86t-31 -86q-34 -37 -80 -37t-80 37q-30 34 -30 86zM117 1249q0 47 30 82t74 35t74 -35q31 -36 31 -82t-31 -82q-30 -34 -74 -34t-74 34t-30 82zM141 0v963l158 28v-991h-158z" />
<glyph unicode="&#x1ecc;" d="M100 684q0 291 140 487q157 222 438 222t438 -222q137 -192 137 -487t-137 -487q-155 -224 -438 -224t-438 224q-140 196 -140 487zM272 684q0 -233 99 -389q114 -176 307 -176q194 0 305 176q98 154 98 389q0 229 -96 387q-111 176 -307 176t-307 -176 q-99 -156 -99 -387zM567 -274q0 50 31 86q33 36 80 36t80 -36q30 -35 30 -86q0 -52 -30 -86q-34 -37 -80 -37t-80 37q-31 36 -31 86z" />
<glyph unicode="&#x1ecd;" horiz-adv-x="1097" d="M94 494q0 213 113 350q127 157 342 157q216 0 342 -159q113 -143 113 -353q0 -209 -113 -352q-127 -160 -342 -160t-340 162q-115 145 -115 355zM250 494q0 -162 76 -269q83 -121 223 -121q145 0 227 123q74 109 74 265q0 155 -74 264q-83 121 -227 121q-142 0 -225 -121 q-74 -109 -74 -262zM438 -274q0 50 31 86q33 36 80 36t80 -36q30 -35 30 -86q0 -52 -30 -86q-34 -37 -80 -37t-80 37q-31 36 -31 86z" />
<glyph unicode="&#x1ece;" d="M100 684q0 291 140 487q157 222 438 222t438 -222q137 -192 137 -487t-137 -487q-155 -224 -438 -224t-438 224q-140 196 -140 487zM272 684q0 -233 99 -389q114 -176 307 -176q194 0 305 176q98 154 98 389q0 229 -96 387q-111 176 -307 176t-307 -176 q-99 -156 -99 -387zM492 1731q70 137 200 137q74 0 123 -43t49 -111q0 -64 -59 -129l-25 -24l-26 -27q-31 -31 -43 -59l-99 24q10 32 29 57l18 23l21 23q49 52 49 90q0 69 -67 69q-57 0 -101 -71z" />
<glyph unicode="&#x1ecf;" horiz-adv-x="1097" d="M94 494q0 213 113 350q127 157 342 157q216 0 342 -159q113 -143 113 -353q0 -209 -113 -352q-127 -160 -342 -160t-340 162q-115 145 -115 355zM250 494q0 -162 76 -269q83 -121 223 -121q145 0 227 123q74 109 74 265q0 155 -74 264q-83 121 -227 121q-142 0 -225 -121 q-74 -109 -74 -262zM362 1341q70 138 201 138q74 0 123 -43t49 -111q0 -64 -59 -129l-25 -25l-26 -26q-30 -30 -43 -60l-99 25q10 32 29 57l18 23l21 22q49 52 49 91q0 69 -68 69q-56 0 -100 -72z" />
<glyph unicode="&#x1ed0;" d="M100 684q0 291 140 487q157 222 438 222t438 -222q137 -192 137 -487t-137 -487q-155 -224 -438 -224t-438 224q-140 196 -140 487zM272 684q0 -233 99 -389q114 -176 307 -176q194 0 305 176q98 154 98 389q0 229 -96 387q-111 176 -307 176t-307 -176 q-99 -156 -99 -387zM369 1518l258 294h98l258 -294l-90 -62l-217 230l-215 -230zM942 1722l342 285l105 -106l-371 -254z" />
<glyph unicode="&#x1ed1;" horiz-adv-x="1097" d="M94 494q0 213 113 350q127 157 342 157q216 0 342 -159q113 -143 113 -353q0 -209 -113 -352q-127 -160 -342 -160t-340 162q-115 145 -115 355zM242 1176l258 294h98l258 -294l-90 -62l-217 229l-215 -229zM250 494q0 -162 76 -269q83 -121 223 -121q145 0 227 123 q74 109 74 265q0 155 -74 264q-83 121 -227 121q-142 0 -225 -121q-74 -109 -74 -262zM844 1427l342 285l104 -106l-370 -254z" />
<glyph unicode="&#x1ed2;" d="M-31 1901l105 106l342 -285l-76 -75zM100 684q0 291 140 487q157 222 438 222t438 -222q137 -192 137 -487t-137 -487q-155 -224 -438 -224t-438 224q-140 196 -140 487zM272 684q0 -233 99 -389q114 -176 307 -176q194 0 305 176q98 154 98 389q0 229 -96 387 q-111 176 -307 176t-307 -176q-99 -156 -99 -387zM369 1518l258 294h98l258 -294l-90 -62l-217 230l-215 -230z" />
<glyph unicode="&#x1ed3;" horiz-adv-x="1097" d="M94 494q0 213 113 350q127 157 342 157q216 0 342 -159q113 -143 113 -353q0 -209 -113 -352q-127 -160 -342 -160t-340 162q-115 145 -115 355zM242 1176l258 294h98l258 -294l-90 -62l-217 229l-215 -229zM250 494q0 -162 76 -269q83 -121 223 -121q145 0 227 123 q74 109 74 265q0 155 -74 264q-83 121 -227 121q-142 0 -225 -121q-74 -109 -74 -262zM467 1712l104 107l342 -285l-73 -76z" />
<glyph unicode="&#x1ed4;" d="M100 684q0 291 140 487q157 222 438 222t438 -222q137 -192 137 -487t-137 -487q-155 -224 -438 -224t-438 224q-140 196 -140 487zM272 684q0 -233 99 -389q114 -176 307 -176q194 0 305 176q98 154 98 389q0 229 -96 387q-111 176 -307 176t-307 -176 q-99 -156 -99 -387zM371 1518l258 294h98l258 -294l-90 -62l-217 230l-215 -230zM840 1921q70 137 200 137q74 0 123 -43t49 -110q0 -64 -59 -129l-25 -25l-26 -27q-31 -31 -43 -59l-98 25q10 34 28 57l19 22l20 23q49 52 49 90q0 70 -67 70q-57 0 -101 -72z" />
<glyph unicode="&#x1ed5;" horiz-adv-x="1097" d="M94 494q0 213 113 350q127 157 342 157q216 0 342 -159q113 -143 113 -353q0 -209 -113 -352q-127 -160 -342 -160t-340 162q-115 145 -115 355zM242 1176l258 294h98l258 -294l-90 -62l-217 229l-215 -229zM250 494q0 -162 76 -269q83 -121 223 -121q145 0 227 123 q74 109 74 265q0 155 -74 264q-83 121 -227 121q-142 0 -225 -121q-74 -109 -74 -262zM672 1671q70 137 200 137q74 0 123 -43t49 -110q0 -64 -59 -129l-24 -25l-27 -26q-30 -30 -43 -60l-98 25q10 34 28 57l19 23l20 22q49 52 49 90q0 70 -67 70q-57 0 -101 -72z" />
<glyph unicode="&#x1ed6;" d="M100 684q0 291 140 487q157 222 438 222t438 -222q137 -192 137 -487t-137 -487q-155 -224 -438 -224t-438 224q-140 196 -140 487zM272 684q0 -233 99 -389q114 -176 307 -176q194 0 305 176q98 154 98 389q0 229 -96 387q-111 176 -307 176t-307 -176 q-99 -156 -99 -387zM369 1520l258 295h98l258 -295l-90 -62l-217 230l-215 -230zM416 1896q65 203 211 203q37 0 78 -18q25 -11 73 -39q97 -60 127 -60q68 0 121 121l100 -49q-71 -201 -208 -201q-57 0 -154 60l-35 20l-33 19q-38 18 -65 18q-62 0 -115 -121z" />
<glyph unicode="&#x1ed7;" horiz-adv-x="1097" d="M94 494q0 213 113 350q127 157 342 157q216 0 342 -159q113 -143 113 -353q0 -209 -113 -352q-127 -160 -342 -160t-340 162q-115 145 -115 355zM195 1581q65 203 211 203q63 0 151 -58l35 -22l33 -18q36 -19 59 -19q68 0 121 121l100 -49q-71 -201 -209 -201 q-58 0 -153 59q-94 58 -133 58q-62 0 -115 -121zM242 1176l258 294h98l258 -294l-90 -62l-217 229l-215 -229zM250 494q0 -162 76 -269q83 -121 223 -121q145 0 227 123q74 109 74 265q0 155 -74 264q-83 121 -227 121q-142 0 -225 -121q-74 -109 -74 -262z" />
<glyph unicode="&#x1ed8;" d="M100 684q0 291 140 487q157 222 438 222t438 -222q137 -192 137 -487t-137 -487q-155 -224 -438 -224t-438 224q-140 196 -140 487zM272 684q0 -233 99 -389q114 -176 307 -176q194 0 305 176q98 154 98 389q0 229 -96 387q-111 176 -307 176t-307 -176 q-99 -156 -99 -387zM371 1565l258 295h98l258 -295l-90 -62l-217 230l-215 -230zM567 -274q0 50 31 86q33 36 80 36t80 -36q30 -35 30 -86q0 -52 -30 -86q-34 -37 -80 -37t-80 37q-31 36 -31 86z" />
<glyph unicode="&#x1ed9;" horiz-adv-x="1097" d="M94 494q0 213 113 350q127 157 342 157q216 0 342 -159q113 -143 113 -353q0 -209 -113 -352q-127 -160 -342 -160t-340 162q-115 145 -115 355zM242 1176l258 294h98l258 -294l-90 -62l-217 229l-215 -229zM250 494q0 -162 76 -269q83 -121 223 -121q145 0 227 123 q74 109 74 265q0 155 -74 264q-83 121 -227 121q-142 0 -225 -121q-74 -109 -74 -262zM438 -274q0 50 31 86q33 36 80 36t80 -36q30 -35 30 -86q0 -52 -30 -86q-34 -37 -80 -37t-80 37q-31 36 -31 86z" />
<glyph unicode="&#x1eda;" d="M100 684q0 291 140 487q157 222 438 222q107 0 203 -35q14 1 31.5 4.5t19.5 3.5q25 7 57 29q32 25 49 53q20 28 29 80h131q-3 -83 -35 -137q-34 -58 -80 -95q-17 -15 -53 -30q43 -40 86 -95q137 -198 137 -487q0 -295 -137 -487q-155 -224 -438 -224t-438 224 q-140 196 -140 487zM272 684q0 -233 99 -389q114 -176 307 -176q194 0 305 176q98 154 98 389q0 229 -96 387q-111 176 -307 176t-307 -176q-99 -156 -99 -387zM528 1579l342 285l105 -107l-371 -254z" />
<glyph unicode="&#x1edb;" horiz-adv-x="1097" d="M94 494q0 213 113 350q127 157 342 157q82 0 164 -28q14 1 33 4.5t20 3.5q25 7 57 29q32 25 49 53q20 28 29 80h131q-3 -83 -35 -137q-35 -60 -79 -95q-15 -11 -60 -34l16 -17l17 -18q113 -143 113 -353q0 -209 -113 -352q-127 -160 -342 -160t-340 162 q-115 145 -115 355zM250 494q0 -162 76 -269q83 -121 223 -121q145 0 227 123q74 109 74 265q0 155 -74 264q-83 121 -227 121q-142 0 -225 -121q-74 -109 -74 -262zM342 1190l342 285l104 -107l-370 -254z" />
<glyph unicode="&#x1edc;" d="M100 684q0 291 140 487q157 222 438 222q107 0 203 -35q14 1 31.5 4.5t19.5 3.5q25 7 57 29q32 25 49 53q20 28 29 80h131q-3 -83 -35 -137q-34 -58 -80 -95q-17 -15 -53 -30q43 -40 86 -95q137 -198 137 -487q0 -295 -137 -487q-155 -224 -438 -224t-438 224 q-140 196 -140 487zM272 684q0 -233 99 -389q114 -176 307 -176q194 0 305 176q98 154 98 389q0 229 -96 387q-111 176 -307 176t-307 -176q-99 -156 -99 -387zM379 1757l104 107l342 -285l-73 -76z" />
<glyph unicode="&#x1edd;" horiz-adv-x="1097" d="M94 494q0 213 113 350q127 157 342 157q82 0 164 -28q14 1 33 4.5t20 3.5q25 7 57 29q32 25 49 53q20 28 29 80h131q-3 -83 -35 -137q-35 -60 -79 -95q-15 -11 -60 -34l16 -17l17 -18q113 -143 113 -353q0 -209 -113 -352q-127 -160 -342 -160t-340 162 q-115 145 -115 355zM190 1368l105 107l342 -285l-74 -76zM250 494q0 -162 76 -269q83 -121 223 -121q145 0 227 123q74 109 74 265q0 155 -74 264q-83 121 -227 121q-142 0 -225 -121q-74 -109 -74 -262z" />
<glyph unicode="&#x1ede;" d="M100 684q0 291 140 487q157 222 438 222q107 0 203 -35q14 1 31.5 4.5t19.5 3.5q25 7 57 29q32 25 49 53q20 28 29 80h131q-3 -83 -35 -137q-34 -58 -80 -95q-17 -15 -53 -30q43 -40 86 -95q137 -198 137 -487q0 -295 -137 -487q-155 -224 -438 -224t-438 224 q-140 196 -140 487zM272 684q0 -233 99 -389q114 -176 307 -176q194 0 305 176q98 154 98 389q0 229 -96 387q-111 176 -307 176t-307 -176q-99 -156 -99 -387zM492 1731q70 137 200 137q74 0 123 -43t49 -111q0 -64 -59 -129l-25 -24l-26 -27q-31 -31 -43 -59l-99 24 q10 32 29 57l18 23l21 23q49 52 49 90q0 69 -67 69q-57 0 -101 -71z" />
<glyph unicode="&#x1edf;" horiz-adv-x="1097" d="M94 494q0 213 113 350q127 157 342 157q82 0 164 -28q14 1 33 4.5t20 3.5q25 7 57 29q32 25 49 53q20 28 29 80h131q-3 -83 -35 -137q-35 -60 -79 -95q-15 -11 -60 -34l16 -17l17 -18q113 -143 113 -353q0 -209 -113 -352q-127 -160 -342 -160t-340 162 q-115 145 -115 355zM250 494q0 -162 76 -269q83 -121 223 -121q145 0 227 123q74 109 74 265q0 155 -74 264q-83 121 -227 121q-142 0 -225 -121q-74 -109 -74 -262zM342 1341q70 138 201 138q74 0 123 -43t49 -111q0 -63 -60 -129l-24 -25l-27 -26q-30 -30 -43 -60l-98 25 q10 32 29 57l18 23l20 22q50 53 50 91q0 69 -68 69q-56 0 -100 -72z" />
<glyph unicode="&#x1ee0;" d="M100 684q0 291 140 487q157 222 438 222q107 0 203 -35q14 1 31.5 4.5t19.5 3.5q25 7 57 29q32 25 49 53q20 28 29 80h131q-3 -83 -35 -137q-34 -58 -80 -95q-17 -15 -53 -30q43 -40 86 -95q137 -198 137 -487q0 -295 -137 -487q-155 -224 -438 -224t-438 224 q-140 196 -140 487zM272 684q0 -233 99 -389q114 -176 307 -176q194 0 305 176q98 154 98 389q0 229 -96 387q-111 176 -307 176t-307 -176q-99 -156 -99 -387zM322 1602q64 202 210 202q38 0 78 -18q29 -13 74 -39q95 -59 127 -59q69 0 121 120l100 -49q-71 -200 -209 -200 q-58 0 -153 59l-35 20l-33 19q-37 18 -65 18q-62 0 -115 -121z" />
<glyph unicode="&#x1ee1;" horiz-adv-x="1097" d="M94 494q0 213 113 350q127 157 342 157q82 0 164 -28q14 1 33 4.5t20 3.5q25 7 57 29q32 25 49 53q20 28 29 80h131q-3 -83 -35 -137q-35 -60 -79 -95q-15 -11 -60 -34l16 -17l17 -18q113 -143 113 -353q0 -209 -113 -352q-127 -160 -342 -160t-340 162 q-115 145 -115 355zM133 1212q65 203 211 203q66 0 152 -57l34 -23l33 -18q36 -19 60 -19q67 0 120 121l101 -49q-71 -201 -209 -201q-34 0 -80 19q-14 6 -74 41q-92 57 -133 57q-62 0 -115 -121zM250 494q0 -162 76 -269q83 -121 223 -121q145 0 227 123q74 109 74 265 q0 155 -74 264q-83 121 -227 121q-142 0 -225 -121q-74 -109 -74 -262z" />
<glyph unicode="&#x1ee2;" d="M100 684q0 291 140 487q157 222 438 222q107 0 203 -35q14 1 31.5 4.5t19.5 3.5q25 7 57 29q32 25 49 53q20 28 29 80h131q-3 -83 -35 -137q-34 -58 -80 -95q-17 -15 -53 -30q43 -40 86 -95q137 -198 137 -487q0 -295 -137 -487q-155 -224 -438 -224t-438 224 q-140 196 -140 487zM272 684q0 -233 99 -389q114 -176 307 -176q194 0 305 176q98 154 98 389q0 229 -96 387q-111 176 -307 176t-307 -176q-99 -156 -99 -387zM567 -274q0 50 31 86q33 36 80 36t80 -36q30 -35 30 -86q0 -52 -30 -86q-34 -37 -80 -37t-80 37q-31 36 -31 86z " />
<glyph unicode="&#x1ee3;" horiz-adv-x="1097" d="M94 494q0 213 113 350q127 157 342 157q82 0 164 -28q14 1 33 4.5t20 3.5q25 7 57 29q32 25 49 53q20 28 29 80h131q-3 -83 -35 -137q-35 -60 -79 -95q-15 -11 -60 -34l16 -17l17 -18q113 -143 113 -353q0 -209 -113 -352q-127 -160 -342 -160t-340 162 q-115 145 -115 355zM250 494q0 -162 76 -269q83 -121 223 -121q145 0 227 123q74 109 74 265q0 155 -74 264q-83 121 -227 121q-142 0 -225 -121q-74 -109 -74 -262zM455 -274q0 52 30 86q33 36 80 36t80 -36q31 -36 31 -86t-31 -86q-34 -37 -80 -37t-80 37q-30 34 -30 86z " />
<glyph unicode="&#x1ee4;" horiz-adv-x="1325" d="M158 457v909h164v-879q0 -174 90 -270q88 -98 250 -98q163 0 251 94q91 97 91 274v879h163v-909q0 -229 -153 -361q-141 -123 -357 -123q-221 0 -356 123q-143 128 -143 361zM553 -274q0 50 31 86q33 36 80 36q46 0 79 -36q31 -36 31 -86t-31 -86q-34 -37 -79 -37 q-46 0 -80 37q-31 36 -31 86z" />
<glyph unicode="&#x1ee5;" horiz-adv-x="1101" d="M135 358v607l158 26v-641q0 -246 235 -246q152 0 273 109v764h160v-977h-146l-10 76q-132 -99 -303 -99q-367 0 -367 381zM438 -274q0 50 31 86q33 36 80 36t80 -36q30 -35 30 -86q0 -52 -30 -86q-34 -37 -80 -37t-80 37q-31 36 -31 86z" />
<glyph unicode="&#x1ee6;" horiz-adv-x="1325" d="M158 457v909h164v-879q0 -174 90 -270q88 -98 250 -98q163 0 251 94q91 97 91 274v879h163v-909q0 -229 -153 -361q-141 -123 -357 -123q-221 0 -356 123q-143 128 -143 361zM477 1731q70 137 201 137q74 0 123 -43t49 -111q0 -64 -59 -129l-25 -24l-27 -27 q-31 -31 -43 -59l-98 24q10 32 29 57l18 23l21 23q49 52 49 90q0 69 -68 69q-56 0 -100 -71z" />
<glyph unicode="&#x1ee7;" horiz-adv-x="1101" d="M135 358v607l158 26v-641q0 -246 235 -246q152 0 273 109v764h160v-977h-146l-10 76q-132 -99 -303 -99q-367 0 -367 381zM362 1341q70 138 201 138q74 0 123 -43t49 -111q0 -64 -59 -129l-25 -25l-26 -26q-30 -30 -43 -60l-99 25q10 32 29 57l18 23l21 22q49 52 49 91 q0 69 -68 69q-56 0 -100 -72z" />
<glyph unicode="&#x1ee8;" horiz-adv-x="1325" d="M158 457v909h164v-879q0 -174 90 -270q88 -98 250 -98q163 0 251 94q91 97 91 274v879h102q25 7 57 29q32 25 49 53q20 28 29 80h131q-3 -83 -35 -137q-34 -58 -80 -95q-47 -31 -90 -47v-792q0 -229 -153 -361q-141 -123 -357 -123q-221 0 -356 123q-143 128 -143 361z M616 1579l342 285l105 -107l-371 -254z" />
<glyph unicode="&#x1ee9;" horiz-adv-x="1101" d="M135 358v607l158 26v-641q0 -246 235 -246q152 0 273 109v764h129l10 2l8 2q26 8 58 29q32 25 49 53q18 26 28 80h131q-3 -85 -34 -137q-34 -58 -80 -95q-47 -31 -109 -53l-14 -4l-16 -4v-850h-146l-10 76q-132 -99 -303 -99q-367 0 -367 381zM494 1190l342 285l104 -107 l-371 -254z" />
<glyph unicode="&#x1eea;" horiz-adv-x="1325" d="M158 457v909h164v-879q0 -174 90 -270q88 -98 250 -98q163 0 251 94q91 97 91 274v879h102q25 7 57 29q32 25 49 53q20 28 29 80h131q-3 -83 -35 -137q-34 -58 -80 -95q-47 -31 -90 -47v-792q0 -229 -153 -361q-141 -123 -357 -123q-221 0 -356 123q-143 128 -143 361z M467 1757l104 107l342 -285l-73 -76z" />
<glyph unicode="&#x1eeb;" horiz-adv-x="1101" d="M135 358v607l158 26v-641q0 -246 235 -246q152 0 273 109v764h129l10 2l8 2q26 8 58 29q32 25 49 53q18 26 28 80h131q-3 -85 -34 -137q-34 -58 -80 -95q-47 -31 -109 -53l-14 -4l-16 -4v-850h-146l-10 76q-132 -99 -303 -99q-367 0 -367 381zM338 1368l104 107l342 -285 l-73 -76z" />
<glyph unicode="&#x1eec;" horiz-adv-x="1325" d="M158 457v909h164v-879q0 -174 90 -270q88 -98 250 -98q163 0 251 94q91 97 91 274v879h102q25 7 57 29q32 25 49 53q20 28 29 80h131q-3 -83 -35 -137q-34 -58 -80 -95q-47 -31 -90 -47v-792q0 -229 -153 -361q-141 -123 -357 -123q-221 0 -356 123q-143 128 -143 361z M465 1731q70 137 201 137q73 0 122 -43q50 -44 50 -111q0 -63 -60 -129l-24 -24l-27 -27q-31 -31 -43 -59l-98 24q10 34 28 57l19 23l20 23q49 52 49 90q0 69 -67 69q-56 0 -100 -71z" />
<glyph unicode="&#x1eed;" horiz-adv-x="1101" d="M135 358v607l158 26v-641q0 -246 235 -246q152 0 273 109v764h129l10 2l8 2q26 8 58 29q32 25 49 53q18 26 28 80h131q-3 -85 -34 -137q-34 -58 -80 -95q-47 -31 -109 -53l-14 -4l-16 -4v-850h-146l-10 76q-132 -99 -303 -99q-367 0 -367 381zM373 1341q71 138 200 138 q74 0 123 -43t49 -111q0 -64 -59 -129l-24 -25l-27 -26q-30 -30 -43 -60l-98 25q10 34 28 57l19 23l20 22q49 52 49 91q0 69 -67 69q-57 0 -101 -72z" />
<glyph unicode="&#x1eee;" horiz-adv-x="1325" d="M158 457v909h164v-879q0 -174 90 -270q88 -98 250 -98q163 0 251 94q91 97 91 274v879h102q25 7 57 29q32 25 49 53q20 28 29 80h131q-3 -83 -35 -137q-34 -58 -80 -95q-47 -31 -90 -47v-792q0 -229 -153 -361q-141 -123 -357 -123q-221 0 -356 123q-143 128 -143 361z M326 1602q64 202 211 202q65 0 151 -57l35 -23l33 -18q34 -18 59 -18q68 0 121 120l100 -49q-71 -200 -209 -200q-58 0 -153 59q-92 57 -133 57q-62 0 -115 -121z" />
<glyph unicode="&#x1eef;" horiz-adv-x="1101" d="M135 358v607l158 26v-641q0 -246 235 -246q152 0 273 109v764h129l10 2l8 2q26 8 58 29q32 25 49 53q18 26 28 80h131q-3 -85 -34 -137q-34 -58 -80 -95q-47 -31 -109 -53l-14 -4l-16 -4v-850h-146l-10 76q-132 -99 -303 -99q-367 0 -367 381zM285 1212q65 203 211 203 q65 0 151 -57l35 -23l33 -18q36 -19 59 -19q68 0 121 121l100 -49q-71 -201 -209 -201q-33 0 -79 19q-14 6 -74 41q-92 57 -133 57q-62 0 -115 -121z" />
<glyph unicode="&#x1ef0;" horiz-adv-x="1325" d="M158 457v909h164v-879q0 -174 90 -270q88 -98 250 -98q163 0 251 94q91 97 91 274v879h102q25 7 57 29q32 25 49 53q20 28 29 80h131q-3 -83 -35 -137q-34 -58 -80 -95q-47 -31 -90 -47v-792q0 -229 -153 -361q-141 -123 -357 -123q-221 0 -356 123q-143 128 -143 361z M561 -274q0 50 31 86q33 36 80 36t80 -36q30 -35 30 -86q0 -52 -30 -86q-34 -37 -80 -37t-80 37q-31 36 -31 86z" />
<glyph unicode="&#x1ef1;" horiz-adv-x="1101" d="M135 358v607l158 26v-641q0 -246 235 -246q152 0 273 109v764h129l10 2l8 2q26 8 58 29q32 25 49 53q18 26 28 80h131q-3 -85 -34 -137q-34 -58 -80 -95q-47 -31 -109 -53l-14 -4l-16 -4v-850h-146l-10 76q-132 -99 -303 -99q-367 0 -367 381zM451 -274q0 52 30 86 q33 36 80 36t80 -36q31 -36 31 -86t-31 -86q-34 -37 -80 -37t-80 37q-30 34 -30 86z" />
<glyph unicode="&#x1ef2;" horiz-adv-x="1112" d="M0 1366h186l365 -553l383 553h178l-483 -709v-657h-164v655zM326 1708l104 107l342 -285l-74 -76z" />
<glyph unicode="&#x1ef3;" horiz-adv-x="927" d="M0 977h180l289 -752l289 752h170l-500 -1235q-64 -156 -242 -156q-46 0 -98 15q-46 8 -82 24l45 117q34 -11 58 -14q30 -9 67 -9q44 0 74 23q29 22 55 88l80 195zM207 1368l104 107l342 -285l-73 -76z" />
<glyph unicode="&#x1ef4;" horiz-adv-x="1112" d="M0 1366h186l365 -553l383 553h178l-483 -709v-657h-164v655zM446 -274q0 50 31 86q33 36 80 36t80 -36q31 -36 31 -86t-31 -86q-34 -37 -80 -37t-80 37q-31 36 -31 86z" />
<glyph unicode="&#x1ef5;" horiz-adv-x="927" d="M0 977h180l289 -752l289 752h170l-500 -1235q-64 -156 -242 -156q-46 0 -98 15q-46 8 -82 24l45 117q34 -11 58 -14q30 -9 67 -9q44 0 74 23q29 22 55 88l80 195zM555 -274q0 50 31 86q33 36 80 36q46 0 79 -36q31 -36 31 -86t-31 -86q-34 -37 -79 -37q-46 0 -80 37 q-31 36 -31 86z" />
<glyph unicode="&#x1ef6;" horiz-adv-x="1112" d="M0 1366h186l365 -553l383 553h178l-483 -709v-657h-164v655zM371 1731q70 137 200 137q74 0 123 -43t49 -111q0 -64 -59 -129l-25 -24l-26 -27q-31 -31 -43 -59l-98 24q10 34 28 57l19 23l20 23q49 52 49 90q0 69 -67 69q-57 0 -101 -71z" />
<glyph unicode="&#x1ef7;" horiz-adv-x="927" d="M0 977h180l289 -752l289 752h170l-500 -1235q-64 -156 -242 -156q-46 0 -98 15q-46 8 -82 24l45 117q34 -11 58 -14q30 -9 67 -9q44 0 74 23q29 22 55 88l80 195zM279 1341q71 138 200 138q74 0 123 -43t49 -111q0 -64 -59 -129l-25 -25l-26 -26q-30 -30 -43 -60l-99 25 q10 32 29 57l18 23l21 22q49 52 49 91q0 69 -67 69q-57 0 -101 -72z" />
<glyph unicode="&#x1ef8;" horiz-adv-x="1112" d="M0 1366h186l365 -553l383 553h178l-483 -709v-657h-164v655zM201 1602q64 202 211 202q36 0 77 -18q29 -13 74 -39q95 -59 127 -59q68 0 121 120l100 -49q-71 -200 -209 -200q-36 0 -79 18q-14 6 -74 41q-92 57 -133 57q-62 0 -115 -121z" />
<glyph unicode="&#x1ef9;" horiz-adv-x="927" d="M0 977h180l289 -752l289 752h170l-500 -1235q-64 -156 -242 -156q-46 0 -98 15q-46 8 -82 24l45 117q34 -11 58 -14q30 -9 67 -9q44 0 74 23q29 22 55 88l80 195zM109 1212q65 203 210 203q37 0 78 -18q29 -13 74 -39q97 -60 127 -60q68 0 121 121l100 -49 q-71 -201 -209 -201q-56 0 -153 60l-35 20l-33 19q-37 18 -65 18q-62 0 -115 -121z" />
<glyph unicode="&#x2000;" horiz-adv-x="1068" />
<glyph unicode="&#x2001;" horiz-adv-x="2136" />
<glyph unicode="&#x2002;" horiz-adv-x="1068" />
<glyph unicode="&#x2003;" horiz-adv-x="2136" />
<glyph unicode="&#x2004;" horiz-adv-x="712" />
<glyph unicode="&#x2005;" horiz-adv-x="534" />
<glyph unicode="&#x2006;" horiz-adv-x="356" />
<glyph unicode="&#x2007;" horiz-adv-x="356" />
<glyph unicode="&#x2008;" horiz-adv-x="267" />
<glyph unicode="&#x2009;" horiz-adv-x="427" />
<glyph unicode="&#x200a;" horiz-adv-x="118" />
<glyph unicode="&#x2010;" horiz-adv-x="628" d="M92 463v143h445v-143h-445z" />
<glyph unicode="&#x2011;" horiz-adv-x="628" d="M92 463v143h445v-143h-445z" />
<glyph unicode="&#x2012;" horiz-adv-x="628" d="M92 463v143h445v-143h-445z" />
<glyph unicode="&#x2013;" horiz-adv-x="1024" d="M0 463v147h1024v-147h-1024z" />
<glyph unicode="&#x2014;" horiz-adv-x="1380" d="M0 463v147h1380v-147h-1380z" />
<glyph unicode="&#x2018;" horiz-adv-x="393" d="M92 1081q0 90 58 172q53 77 124 125l41 -53q-34 -24 -61 -61q-37 -43 -47 -86q43 0 74 -31q30 -35 30 -84t-26 -82q-30 -37 -84 -37q-60 0 -86 45q-23 44 -23 92z" />
<glyph unicode="&#x2019;" horiz-adv-x="393" d="M78 997q33 23 61 62q37 43 47 86q-42 0 -73 31q-31 36 -31 84q0 44 29 81q30 37 82 37q59 0 86 -47q22 -42 22 -90q0 -92 -57 -172q-52 -76 -125 -125z" />
<glyph unicode="&#x201a;" horiz-adv-x="393" d="M78 -90q34 24 61 61q37 43 47 86q-42 0 -73 31q-31 36 -31 84q0 45 29 82q30 37 82 37q59 0 86 -47q22 -42 22 -90q0 -92 -57 -172q-52 -76 -125 -125z" />
<glyph unicode="&#x201c;" horiz-adv-x="745" d="M92 1081q0 90 58 172q53 77 124 125l41 -53q-34 -24 -61 -61q-37 -43 -47 -86q43 0 74 -31q30 -35 30 -84t-26 -82q-30 -37 -84 -37q-60 0 -86 45q-23 44 -23 92zM444 1081q0 90 58 172q52 76 125 125l41 -53q-36 -25 -62 -61q-37 -43 -47 -86q43 0 74 -31q31 -36 31 -84 q0 -47 -27 -82q-30 -37 -84 -37q-60 0 -86 45q-23 44 -23 92z" />
<glyph unicode="&#x201d;" horiz-adv-x="745" d="M78 997q33 23 61 62q37 43 47 86q-42 0 -73 31q-31 36 -31 84q0 44 29 81q30 37 82 37q59 0 86 -47q22 -42 22 -90q0 -92 -57 -172q-52 -76 -125 -125zM430 997q35 24 62 62q37 43 47 86q-43 0 -74 31q-31 36 -31 84q0 44 29 81q30 37 82 37q59 0 86 -47q22 -42 22 -90 q0 -92 -57 -172q-52 -76 -125 -125z" />
<glyph unicode="&#x201e;" horiz-adv-x="745" d="M78 -90q34 24 61 61q37 43 47 86q-42 0 -73 31q-31 36 -31 84q0 45 29 82q30 37 82 37q59 0 86 -47q22 -42 22 -90q0 -92 -57 -172q-52 -76 -125 -125zM430 -90q36 25 62 61q37 43 47 86q-43 0 -74 31q-31 36 -31 84q0 45 29 82q30 37 82 37q59 0 86 -47q22 -42 22 -90 q0 -92 -57 -172q-52 -76 -125 -125z" />
<glyph unicode="&#x2026;" horiz-adv-x="1165" d="M92 100q0 50 31 86q34 37 80 37t80 -37q30 -34 30 -86t-30 -86q-34 -37 -80 -37t-80 37q-31 36 -31 86zM473 100q0 50 31 86q34 37 80 37t80 -37q30 -34 30 -86t-30 -86q-34 -37 -80 -37t-80 37q-31 36 -31 86zM852 100q0 50 31 86q34 37 80 37q45 0 79 -37 q31 -36 31 -86t-31 -86q-34 -37 -79 -37q-46 0 -80 37q-31 36 -31 86z" />
<glyph unicode="&#x202f;" horiz-adv-x="427" />
<glyph unicode="&#x2039;" horiz-adv-x="612" d="M31 512l397 418l107 -80l-297 -328l325 -321l-98 -90z" />
<glyph unicode="&#x203a;" horiz-adv-x="612" d="M49 201l326 321l-297 328l106 80l398 -418l-435 -401z" />
<glyph unicode="&#x205f;" horiz-adv-x="534" />
<glyph unicode="&#x20ac;" horiz-adv-x="1105" d="M25 500v112h161v138h-161v112h172q53 516 452 516q154 0 248 -73q69 -55 131 -181l-149 -63q-77 170 -240 170q-229 0 -270 -369h436v-112h-445v-138h445v-112h-438q37 -377 295 -377q93 0 151 49q50 44 94 133l125 -80q-61 -119 -135 -178q-94 -70 -242 -70 q-410 0 -460 523h-170z" />
<glyph unicode="&#x2122;" horiz-adv-x="1269" d="M39 1264v102h440v-102h-164v-486h-112v486h-164zM573 778v588h115l184 -410l172 410h113v-588h-115v365l-153 -369h-33l-168 371v-367h-115z" />
<glyph unicode="&#x25fc;" horiz-adv-x="972" d="M0 0v973h973v-973h-973z" />
</font>
</defs>
</svg>
