<?xml version="1.0" standalone="no"?>
<!DOCTYPE svg PUBLIC "-//W3C//DTD SVG 1.1//EN" "http://www.w3.org/Graphics/SVG/1.1/DTD/svg11.dtd" >
<svg xmlns="http://www.w3.org/2000/svg">
<metadata></metadata>
<defs>
<font id="svn_interfacebold" horiz-adv-x="1105" >
<font-face units-per-em="2048" ascent="1638" descent="-410" />
<missing-glyph horiz-adv-x="409" />
<glyph horiz-adv-x="682" />
<glyph horiz-adv-x="0" />
<glyph horiz-adv-x="0" />
<glyph unicode="&#xd;" horiz-adv-x="409" />
<glyph unicode=" "  horiz-adv-x="409" />
<glyph unicode="&#x09;" horiz-adv-x="409" />
<glyph unicode="&#xa0;" horiz-adv-x="409" />
<glyph unicode="!" horiz-adv-x="493" d="M80 143q0 68 48 117t120 49q70 0 118 -50t48 -116q0 -67 -47.5 -116.5t-118.5 -49.5q-72 0 -120 49t-48 117zM115 432v934h270v-934h-270z" />
<glyph unicode="&#x22;" horiz-adv-x="833" d="M102 803v563h238v-563h-238zM494 803v563h237v-563h-237z" />
<glyph unicode="#" horiz-adv-x="1374" d="M72 422v233h284v207h-284v232h284v272h234v-272h205v272h231v-272h287v-232h-287v-207h287v-233h-287v-270h-231v270h-205v-270h-234v270h-284zM590 655h205v207h-205v-207z" />
<glyph unicode="$" d="M43 248l217 131q55 -89 127 -127.5t168 -38.5q99 0 157 37.5t58 103.5q0 35 -12 64.5t-29 49.5t-46.5 39.5t-53.5 30.5t-62 27q-23 10 -64.5 26t-67 26t-64 27.5t-63.5 31.5t-57 35.5t-52.5 42t-42 49t-34 59t-20.5 69t-8 81.5q0 81 31.5 147.5t86 111t121 72.5t144.5 41 v302h187v-295q126 -14 226 -76t159 -170l-226 -117q-86 131 -250 131q-94 0 -150 -37t-56 -102q0 -32 18 -60t50.5 -49t58.5 -33.5t61 -25.5q18 -7 59.5 -22.5t69.5 -26.5t71.5 -30.5t74 -39t67 -46t61.5 -58.5t47 -70t33 -86t11 -102q0 -163 -110 -263.5t-275 -127.5v-265 h-187v262q-304 39 -434 271z" />
<glyph unicode="%" horiz-adv-x="1466" d="M53 1030q0 150 74 249t215 99q140 0 215.5 -100t75.5 -248q0 -156 -76.5 -253t-214.5 -97q-142 0 -215.5 95t-73.5 255zM225 1030q0 -77 28 -131.5t89 -54.5t90 54.5t29 131.5q0 76 -29 130t-90 54t-89 -54t-28 -130zM272 84l750 1296l176 -94l-756 -1300zM836 342 q0 97 30 174t96.5 125.5t161.5 48.5q140 0 215.5 -100t75.5 -248q0 -156 -76.5 -253t-214.5 -97q-142 0 -215 95t-73 255zM1008 342q0 -49 10 -88.5t37 -68.5t69 -29q61 0 90 54.5t29 131.5q0 76 -29 130t-90 54t-88.5 -54t-27.5 -130z" />
<glyph unicode="&#x26;" horiz-adv-x="1386" d="M61 373q0 74 23 135t67.5 109t97 84t124.5 71q-66 74 -94.5 138t-28.5 134q0 159 110.5 247.5t282.5 88.5q164 0 266.5 -85.5t102.5 -237.5q0 -105 -63.5 -184t-209.5 -154l203 -234q54 82 107 197l223 -96q-91 -183 -168 -285l262 -301h-330l-104 119 q-182 -142 -418 -142q-199 0 -326 105t-127 291zM326 385q0 -86 55 -137t156 -51q134 0 247 96l-272 317l-8 -4q-86 -42 -132 -92.5t-46 -128.5zM496 1065q0 -43 20 -76.5t64 -85.5l18 -22q93 45 131.5 81t38.5 93q0 60 -37 93.5t-100 33.5q-62 0 -98.5 -29.5t-36.5 -87.5z " />
<glyph unicode="'" horiz-adv-x="442" d="M102 803v563h238v-563h-238z" />
<glyph unicode="(" horiz-adv-x="638" d="M82 698q0 283 128.5 489.5t367.5 325.5l79 -167q-305 -215 -305 -648q0 -227 77.5 -384t229.5 -265l-81 -166q-239 119 -367.5 325t-128.5 490z" />
<glyph unicode=")" horiz-adv-x="638" d="M-20 49q152 108 229.5 265t77.5 384q0 433 -305 648l79 167q239 -119 367.5 -325.5t128.5 -489.5q0 -284 -128.5 -490t-367.5 -325z" />
<glyph unicode="*" horiz-adv-x="931" d="M55 1235l117 166l188 -121v205h203v-205l195 121l119 -166l-226 -137l219 -137l-104 -177l-203 125v-215h-203v215l-196 -125l-105 177l224 135z" />
<glyph unicode="+" d="M47 436v226h393v411h224v-411h393v-226h-393v-405h-224v405h-393z" />
<glyph unicode="," horiz-adv-x="477" d="M6 -111q46 10 90.5 34.5t65.5 49.5q-29 20 -45.5 57t-16.5 79q0 67 39.5 116t108.5 49q65 0 108 -46.5t43 -114.5q0 -97 -90.5 -190.5t-267.5 -139.5z" />
<glyph unicode="-" horiz-adv-x="675" d="M78 436v226h520v-226h-520z" />
<glyph unicode="." horiz-adv-x="454" d="M78 125q0 62 39 105.5t112 43.5q70 0 109 -44t39 -105q0 -60 -38.5 -104t-109.5 -44q-73 0 -112 43.5t-39 104.5z" />
<glyph unicode="/" horiz-adv-x="1112" d="M0 51l909 1518l203 -109l-905 -1526z" />
<glyph unicode="0" d="M39 672q0 101 16 196t54.5 187t96 160t147 109.5t200.5 41.5t200.5 -41.5t147 -109.5t96 -160t54.5 -187t16 -196t-16 -196t-54.5 -187t-96 -160.5t-147 -110t-200.5 -41.5t-200.5 41.5t-147 109.5t-96 160t-54.5 187t-16 197zM319 672q0 -131 22.5 -231t76.5 -164 t135 -64q60 0 105.5 36t73 100t41 145.5t13.5 177.5q0 98 -13.5 179t-40.5 144.5t-73 99t-106 35.5q-80 0 -134 -63t-77 -163t-23 -232z" />
<glyph unicode="1" d="M135 1071l451 272h215v-1343h-281v1028l-258 -156z" />
<glyph unicode="2" d="M51 1049q73 142 203 229.5t319 87.5q89 0 167 -25t137.5 -72.5t94 -121.5t34.5 -166q0 -212 -189 -440q-57 -70 -176 -188t-123 -122h526v-231h-927v160q38 40 152.5 157t188 197t136.5 158q64 82 96.5 147t32.5 144t-46.5 123t-131.5 44q-74 0 -145 -54t-126 -148z" />
<glyph unicode="3" d="M29 262l219 125q62 -101 133 -140.5t158 -39.5q95 0 156 47t61 129q0 92 -77.5 141t-219.5 51v207q134 10 204 63t70 140q0 67 -50.5 105t-141.5 38q-76 0 -137 -40t-113 -134l-219 125q161 287 506 287q118 0 215 -42.5t157 -127t60 -195.5q0 -241 -176 -307 q88 -32 143 -106t55 -193q0 -102 -40.5 -183.5t-109.5 -131.5t-156 -76.5t-185 -26.5q-346 0 -512 285z" />
<glyph unicode="4" d="M55 342v203l645 798h222v-765h141v-236h-141v-342h-269v342h-598zM369 578h284v360z" />
<glyph unicode="5" d="M78 233l219 134q54 -86 111.5 -122t134.5 -36q89 0 147 55t58 150q0 86 -36 140.5t-127.5 86t-244.5 31.5h-176v671h792v-229h-548v-225h8q135 0 242.5 -26t190 -80t127 -144.5t44.5 -212.5q0 -107 -39.5 -194t-106 -141.5t-150.5 -84t-177 -29.5q-142 0 -265 61 t-204 195z" />
<glyph unicode="6" d="M100 481q0 145 47 286.5t136.5 265.5t234.5 213.5t326 119.5l57 -209q-164 -36 -288.5 -123t-178.5 -211q79 51 191 51q179 0 287 -123.5t108 -314.5q0 -73 -18 -140t-55.5 -125t-90.5 -101.5t-128 -68t-163 -24.5q-74 0 -141 18t-126.5 57.5t-103 97.5t-69 143 t-25.5 188zM381 465q0 -122 56 -188t132 -66q79 0 126.5 54t47.5 149q0 107 -50.5 169t-131.5 62q-83 0 -166 -47q-14 -54 -14 -133z" />
<glyph unicode="7" d="M61 1114v229h977v-163l-532 -1180h-289l500 1114h-656z" />
<glyph unicode="8" d="M84 379q0 94 47 180.5t129 132.5q-78 57 -116 133.5t-38 155.5q0 155 126 270t323 115q106 0 192 -31t140.5 -84t84 -121.5t29.5 -144.5q0 -79 -39.5 -159.5t-113.5 -131.5q83 -48 128.5 -133.5t45.5 -179.5q0 -78 -31.5 -150t-89.5 -129t-148.5 -91t-199.5 -34 t-199.5 34t-148.5 90.5t-89.5 128t-31.5 149.5zM356 393q0 -82 52.5 -133t146.5 -51q95 0 146 51.5t51 132.5q0 77 -55.5 132t-145.5 55q-89 0 -142 -55t-53 -132zM379 969q0 -74 49 -125t125 -51t126 52.5t50 123.5q0 70 -49 123t-127 53q-76 0 -125 -53.5t-49 -122.5z" />
<glyph unicode="9" d="M90 920q0 85 29 163.5t84 142t144 102t198 38.5q91 0 172.5 -30.5t148 -91t105.5 -160.5t39 -228q0 -119 -29 -233.5t-90 -220t-147.5 -191t-209.5 -147t-268 -87.5l-57 211q160 35 286 128.5t183 220.5q-80 -54 -193 -54q-93 0 -169.5 37t-124.5 99t-74.5 139.5 t-26.5 161.5zM369 922q0 -84 49 -147.5t131 -63.5q101 0 166 41q14 47 14 118q0 129 -56 194.5t-130 65.5q-80 0 -127 -62t-47 -146z" />
<glyph unicode=":" horiz-adv-x="454" d="M78 125q0 62 39 105.5t112 43.5q70 0 109 -44t39 -105q0 -60 -38.5 -104t-109.5 -44q-73 0 -112 43.5t-39 104.5zM78 838q0 62 39 105.5t112 43.5q70 0 109 -44t39 -105q0 -60 -38.5 -104t-109.5 -44q-73 0 -112 43.5t-39 104.5z" />
<glyph unicode=";" horiz-adv-x="477" d="M6 -111q46 10 90.5 34.5t65.5 49.5q-29 20 -45.5 57t-16.5 79q0 67 39.5 116t108.5 49q65 0 108 -46.5t43 -114.5q0 -97 -90.5 -190.5t-267.5 -139.5zM109 838q0 62 39 105.5t112 43.5q70 0 109 -44t39 -105q0 -60 -38.5 -104t-109.5 -44q-73 0 -112 43.5t-39 104.5z" />
<glyph unicode="&#x3c;" d="M47 465v170l940 317l70 -225l-539 -174l559 -193l-71 -229z" />
<glyph unicode="=" d="M47 217v225h1010v-225h-1010zM47 657v226h1010v-226h-1010z" />
<glyph unicode="&#x3e;" d="M29 360l559 193l-539 174l70 225l940 -317v-170l-959 -334z" />
<glyph unicode="?" horiz-adv-x="864" d="M-25 1139q164 256 457 256q201 0 310.5 -101.5t109.5 -277.5q0 -83 -43 -157.5t-129 -156.5q-139 -129 -139 -221v-49h-260v86q0 41 12 80.5t36 75t41.5 57t45.5 51.5q15 17 45.5 46.5t47 48t36 44t28.5 51t9 52.5q0 72 -43 111t-123 39q-65 0 -123.5 -36.5 t-120.5 -129.5zM244 143q0 66 48 116t118 50q72 0 120 -49t48 -117t-48 -117t-120 -49q-67 0 -116.5 48.5t-49.5 117.5z" />
<glyph unicode="@" horiz-adv-x="1695" d="M61 385q0 253 115 449.5t316 302.5t454 106q311 0 499.5 -174t188.5 -471q0 -118 -36 -227t-100 -194t-162 -136t-214 -51q-118 0 -176 80q-93 -80 -219 -80q-145 0 -224 93t-79 249q0 108 37 204.5t105.5 171t175.5 118.5t239 44q156 0 307 -43l-158 -534q-8 -24 -8 -53 q0 -52 52 -52q83 0 141 60t83 147.5t25 190.5q0 226 -132.5 347.5t-364.5 121.5q-136 0 -254 -47.5t-203.5 -133.5t-134.5 -214.5t-49 -282.5q0 -135 45 -239t127 -169t192 -98t244 -33q125 0 232.5 25.5t226.5 77.5l80 -172q-263 -123 -553 -123q-186 0 -335.5 47 t-257.5 137.5t-166.5 232t-58.5 322.5zM651 324q0 -68 27 -102t88 -34q67 0 125 37q2 25 14 80l109 367q-28 4 -53 4q-145 0 -227.5 -95.5t-82.5 -256.5z" />
<glyph unicode="A" horiz-adv-x="1325" d="M0 0l561 1366h195l569 -1366h-297l-110 274h-527l-112 -274h-279zM475 506h352l-176 448z" />
<glyph unicode="B" horiz-adv-x="1253" d="M158 0v1366h485q219 0 350 -92.5t131 -267.5q0 -96 -43 -161.5t-135 -121.5q256 -94 256 -338q0 -126 -63 -214.5t-166.5 -129.5t-237.5 -41h-577zM430 233h213q61 0 106 6.5t87 24.5t64 53.5t22 88.5t-22 89.5t-63 55t-87.5 26t-106.5 7.5h-213v-351zM430 807h154 q128 0 196 36.5t68 125.5q0 42 -14 72t-36 47.5t-58 28t-71.5 13.5t-84.5 3h-154v-326z" />
<glyph unicode="C" horiz-adv-x="1245" d="M92 678q0 143 32.5 262t89 202t133.5 141t164.5 85t182.5 27q185 0 304 -80.5t190 -239.5l-223 -123q-78 201 -265 201q-137 0 -232 -123t-95 -352q0 -210 96 -336.5t244 -126.5q95 0 158.5 43t109.5 145l215 -131q-91 -162 -207.5 -231.5t-286.5 -69.5 q-276 0 -443 187.5t-167 519.5z" />
<glyph unicode="D" horiz-adv-x="1357" d="M158 0v1366h405q214 0 352 -61q116 -53 196 -149t117.5 -213.5t37.5 -252.5q0 -131 -37.5 -249.5t-119 -217.5t-196.5 -153q-146 -70 -340 -70h-415zM434 246h111q156 0 248 51q94 49 143 152.5t49 228.5q0 124 -44 225t-132 156q-94 61 -258 61h-117v-874z" />
<glyph unicode="E" horiz-adv-x="1200" d="M158 0v1366h938v-248h-662v-311h547v-248h-547v-311h709v-248h-985z" />
<glyph unicode="F" horiz-adv-x="1097" d="M158 0v1366h929v-248h-653v-323h520v-244h-520v-551h-276z" />
<glyph unicode="G" horiz-adv-x="1284" d="M92 678q0 178 49 317.5t133 225.5t191 130t229 44q182 0 298.5 -72.5t189.5 -226.5l-224 -125q-87 182 -258 182q-64 0 -121.5 -29.5t-104 -86.5t-74 -149.5t-27.5 -209.5q0 -208 104 -335.5t258 -127.5q129 0 209 23v245h-223v236h481v-658q-208 -90 -497 -90 q-132 0 -244.5 48t-194 136.5t-128 223t-46.5 299.5z" />
<glyph unicode="H" horiz-adv-x="1411" d="M158 0v1366h276v-541h543v541h276v-1366h-276v578h-543v-578h-276z" />
<glyph unicode="I" horiz-adv-x="591" d="M158 0v1366h276v-1366h-276z" />
<glyph unicode="J" horiz-adv-x="608" d="M-88 -59q140 29 201 87t61 154v1184h277v-1229q0 -185 -127.5 -288t-360.5 -142z" />
<glyph unicode="K" horiz-adv-x="1312" d="M158 0v1366h276v-522l524 522h328l-536 -532l563 -834h-312l-440 647l-127 -127v-520h-276z" />
<glyph unicode="L" horiz-adv-x="1132" d="M158 0v1366h276v-1118h688v-248h-964z" />
<glyph unicode="M" horiz-adv-x="1650" d="M158 0v1366h282l404 -909l364 909h285v-1366h-272v764l-330 -772h-98l-363 780v-772h-272z" />
<glyph unicode="N" horiz-adv-x="1423" d="M158 0v1366h282l553 -852v852h273v-1366h-242l-594 903v-903h-272z" />
<glyph unicode="O" horiz-adv-x="1447" d="M92 684q0 107 24.5 209t76 193.5t124.5 160t177 108.5t227 40q124 0 229 -40t179 -108.5t126 -160t76.5 -193.5t24.5 -209t-24.5 -209t-76.5 -193.5t-126 -160.5t-179 -109.5t-229 -40.5q-123 0 -227.5 40.5t-177.5 109t-124.5 160.5t-75.5 194t-24 209zM371 684 q0 -93 23 -176.5t66 -149t111 -104.5t150 -39q84 0 152.5 39t111.5 105t66.5 149.5t23.5 175.5t-23.5 175.5t-66.5 149.5t-111.5 105t-152.5 39q-109 0 -190.5 -67.5t-120.5 -172.5t-39 -229z" />
<glyph unicode="P" horiz-adv-x="1214" d="M158 0v1366h458q143 0 249 -32t167.5 -90t91 -132t29.5 -166q0 -91 -27 -168.5t-85 -143.5t-163 -104t-247 -38h-203v-492h-270zM428 727h176q134 0 205.5 47.5t71.5 155.5q0 101 -64 150.5t-213 49.5h-176v-403z" />
<glyph unicode="Q" horiz-adv-x="1447" d="M92 684q0 107 24.5 209t76 193.5t124.5 160t177 108.5t227 40q124 0 229 -40t179 -108.5t126 -160t76.5 -193.5t24.5 -209q0 -148 -49.5 -286t-153.5 -248t-246 -152q22 -41 85.5 -57.5t174.5 -16.5l-32 -219q-247 7 -383 78.5t-187 208.5q-115 28 -207 97t-149 163.5 t-87 205t-30 226.5zM371 684q0 -81 19.5 -160t59.5 -150t110 -115t161 -44q84 0 152.5 39t111.5 105t66.5 149.5t23.5 175.5t-23.5 175.5t-66.5 149.5t-111.5 105t-152.5 39q-109 0 -190.5 -67.5t-120.5 -172.5t-39 -229z" />
<glyph unicode="R" horiz-adv-x="1275" d="M158 0v1366h547q75 0 142 -12t132.5 -41.5t112 -75t75.5 -118.5t29 -165q0 -154 -78.5 -264t-240.5 -158l352 -532h-314l-337 512h-150v-512h-270zM428 748h215q151 0 216 46.5t65 141.5q0 100 -64.5 146t-216.5 46h-215v-380z" />
<glyph unicode="S" horiz-adv-x="1138" d="M53 223l211 139q47 -77 126.5 -117t180.5 -40q104 0 167 40.5t63 108.5q0 86 -63.5 137t-252.5 117q-96 33 -161 66.5t-118 80.5t-78.5 111t-25.5 148q0 173 124 277t358 104q97 0 176 -19t135.5 -54t95 -74t72.5 -91l-199 -141q-82 151 -282 151q-102 0 -157.5 -36 t-55.5 -97q0 -68 63.5 -114t214.5 -101q110 -39 184 -78t130.5 -91.5t83 -121.5t26.5 -159q0 -97 -41.5 -174.5t-111.5 -125.5t-158 -73t-185 -25q-372 0 -522 252z" />
<glyph unicode="T" horiz-adv-x="1112" d="M10 1118v248h1092v-248h-406v-1118h-278v1118h-408z" />
<glyph unicode="U" horiz-adv-x="1406" d="M150 469v897h276v-870q0 -126 73.5 -203.5t205.5 -77.5t204 77t72 204v870h276v-897q0 -151 -74.5 -266t-200 -173.5t-280.5 -58.5q-154 0 -278.5 58.5t-199 173.5t-74.5 266z" />
<glyph unicode="V" horiz-adv-x="1298" d="M0 1366h295l391 -938l340 938h272l-524 -1366h-170z" />
<glyph unicode="W" horiz-adv-x="1593" d="M0 1366h276l168 -811l267 811h170l266 -811l172 811h274l-313 -1366h-174l-311 915l-310 -915h-174z" />
<glyph unicode="X" horiz-adv-x="1185" d="M0 0l444 711l-413 655h311l250 -416l250 416h311l-412 -655l445 -711h-309l-285 471l-283 -471h-309z" />
<glyph unicode="Y" horiz-adv-x="1189" d="M0 1366h307l297 -543l283 543h303l-453 -817v-549h-276v549z" />
<glyph unicode="Z" horiz-adv-x="1175" d="M70 0v225l696 893h-639v248h977v-233l-690 -885h702v-248h-1046z" />
<glyph unicode="[" horiz-adv-x="614" d="M135 -293v1800h479v-225h-223v-1350h223v-225h-479z" />
<glyph unicode="\" horiz-adv-x="1112" d="M0 1460l203 109l909 -1518l-207 -117z" />
<glyph unicode="]" horiz-adv-x="614" d="M0 -68h225v1350h-225v225h479v-1800h-479v225z" />
<glyph unicode="^" d="M113 659l338 707h198l346 -676l-239 -92l-205 436l-191 -454z" />
<glyph unicode="_" horiz-adv-x="1024" d="M0 -307h1024v-185h-1024v185z" />
<glyph unicode="`" horiz-adv-x="905" d="M182 1331l129 170l412 -289l-72 -110z" />
<glyph unicode="a" horiz-adv-x="1052" d="M70 291q0 60 21 110t53 84t82.5 61t98.5 42.5t111.5 27t111 16.5t107.5 9v33q0 63 -36 98t-107 35q-109 0 -184 -88l-183 127q71 90 177.5 128t212.5 38q181 0 286 -92.5t105 -284.5v-635h-246l-12 74q-44 -45 -111 -71t-145 -26q-89 0 -166.5 36.5t-126.5 109.5t-49 168 zM330 297q0 -51 37 -80t108 -29q99 0 182 72v201q-43 -3 -67.5 -5t-64 -7.5t-63 -12t-51.5 -19t-43.5 -28t-26.5 -39.5t-11 -53z" />
<glyph unicode="b" horiz-adv-x="1132" d="M133 61v1293l268 41v-406q94 23 174 23q95 0 176 -28t137 -76t96 -112t58.5 -136t18.5 -148q0 -112 -28.5 -202.5t-77.5 -151.5t-117.5 -102.5t-146.5 -60t-167 -18.5q-185 0 -391 84zM401 211q58 -18 113 -18q132 0 209.5 81t77.5 232q0 141 -75.5 216t-193.5 75 q-50 0 -131 -23v-563z" />
<glyph unicode="c" horiz-adv-x="997" d="M72 489q0 128 38.5 229.5t104 164.5t148 96t174.5 33q87 0 160 -25t123.5 -67.5t84 -91t53.5 -103.5l-210 -104q-64 178 -205 178q-87 0 -148 -78t-61 -227q0 -139 62 -218t163 -79q75 0 125 36.5t90 112.5l201 -108q-122 -261 -422 -261q-96 0 -182 33.5t-153 96 t-106.5 161.5t-39.5 221z" />
<glyph unicode="d" horiz-adv-x="1140" d="M72 498q0 98 31 188.5t90 164t155.5 117.5t216.5 44q75 0 176 -29v371l267 41v-1395h-244l-12 76q-95 -99 -238 -99q-139 0 -241 71t-151.5 187.5t-49.5 262.5zM332 504q0 -137 58 -223t177 -86q49 0 100 25.5t74 60.5v487q-85 29 -143 29q-127 0 -196.5 -86.5 t-69.5 -206.5z" />
<glyph unicode="e" horiz-adv-x="1075" d="M72 494q0 121 38 220.5t103.5 163.5t152 99t185.5 35q212 0 335.5 -147.5t127.5 -434.5h-674q11 -118 74 -176.5t151 -58.5q79 0 134.5 28t113.5 109l199 -121q-84 -126 -193 -180t-262 -54q-100 0 -186.5 32t-154 94t-106 162.5t-38.5 228.5zM346 612h395 q-7 93 -62.5 145t-127.5 52q-73 0 -133 -54t-72 -143z" />
<glyph unicode="f" horiz-adv-x="686" d="M33 782v205h137v35q0 187 94.5 280t249.5 93q180 0 303 -60l-78 -205q-87 41 -182 41q-121 0 -121 -151v-33h240l-33 -205h-205v-782h-268v782h-137z" />
<glyph unicode="g" horiz-adv-x="1134" d="M72 506q0 102 33.5 191t99.5 160.5t175 113t249 41.5q136 0 372 -33v-938q0 -238 -111 -346.5t-347 -108.5q-285 0 -432 172l174 138q57 -54 116.5 -77.5t141.5 -23.5q92 0 141 44.5t49 131.5v49q-56 -20 -147 -20q-228 0 -371 140.5t-143 365.5zM332 506q0 -133 78 -210 t213 -77q72 0 110 23v549q-52 8 -102 8q-141 0 -220 -78.5t-79 -214.5z" />
<glyph unicode="h" horiz-adv-x="1181" d="M133 0v1354l268 41v-473q121 90 283 90q190 0 280.5 -111t90.5 -315v-586h-269v567q0 118 -33.5 175t-131.5 57q-56 0 -114.5 -27.5t-105.5 -69.5v-702h-268z" />
<glyph unicode="i" horiz-adv-x="532" d="M106 1245q0 58 42.5 101t117.5 43t117.5 -43t42.5 -101q0 -60 -42.5 -102.5t-117.5 -42.5t-117.5 42.5t-42.5 102.5zM133 0v961l266 40v-1001h-266z" />
<glyph unicode="j" horiz-adv-x="552" d="M-16 -238q103 70 136.5 125.5t33.5 151.5v922l266 40v-962q0 -157 -69 -258.5t-220 -181.5zM129 1245q0 58 42.5 101t117.5 43q74 0 115.5 -43t41.5 -101q0 -60 -41.5 -102.5t-115.5 -42.5q-75 0 -117.5 42.5t-42.5 102.5z" />
<glyph unicode="k" horiz-adv-x="1081" d="M133 0v1354l268 41v-686l310 278h321l-340 -305l389 -682h-301l-282 510l-97 -90v-420h-268z" />
<glyph unicode="l" horiz-adv-x="534" d="M133 0v1354l268 41v-1395h-268z" />
<glyph unicode="m" horiz-adv-x="1798" d="M133 0v963l244 36l12 -86q49 43 120 71t140 28q200 0 303 -125q141 125 332 125q192 0 289.5 -107.5t97.5 -308.5v-596h-266v580q0 219 -164 219q-55 0 -114 -30.5t-99 -76.5q8 -41 8 -96v-596h-266v580q0 219 -164 219q-55 0 -110 -28.5t-95 -68.5v-702h-268z" />
<glyph unicode="n" horiz-adv-x="1189" d="M133 0v963l242 36l14 -90q61 49 141 76t160 27q190 0 281.5 -112t91.5 -316v-584h-268v563q0 63 -6 102.5t-24.5 72t-54 47t-92.5 14.5q-58 0 -115.5 -27.5t-101.5 -71.5v-700h-268z" />
<glyph unicode="o" horiz-adv-x="1138" d="M72 498q0 98 31.5 188.5t91 164t156.5 117.5t218 44t218 -44t157 -117.5t91.5 -164t31.5 -188.5t-31.5 -189.5t-91.5 -166.5t-157 -120t-218 -45t-218 45t-156.5 120t-91 166.5t-31.5 189.5zM334 498q0 -131 61.5 -216t173.5 -85t174 85t62 216q0 130 -62 214.5 t-174 84.5q-111 0 -173 -84.5t-62 -214.5z" />
<glyph unicode="p" horiz-adv-x="1134" d="M133 -387v1350l242 36l14 -86q103 99 244 99q209 0 319.5 -140.5t110.5 -369.5q0 -99 -31.5 -190.5t-93 -167.5t-164.5 -121.5t-235 -45.5q-67 0 -138 29v-393h-268zM399 227q70 -28 125 -28q137 0 208 86t71 209q0 87 -21 153t-73 109t-131 43q-53 0 -102.5 -28 t-76.5 -66v-478z" />
<glyph unicode="q" horiz-adv-x="1134" d="M72 496q0 103 33.5 194t99.5 164t175.5 115.5t248.5 42.5q117 0 372 -33v-1366h-268v383q-75 -19 -147 -19q-98 0 -182 27t-144.5 75t-103 113.5t-63.5 142.5t-21 161zM332 496q0 -131 76.5 -215t214.5 -84q71 0 110 22v572q-52 8 -102 8q-146 0 -222.5 -88t-76.5 -215z " />
<glyph unicode="r" horiz-adv-x="759" d="M133 0v963l242 36l14 -98q99 107 229 107q59 0 154 -31l-47 -232q-84 35 -147 35q-54 0 -101.5 -25t-75.5 -63v-692h-268z" />
<glyph unicode="s" horiz-adv-x="993" d="M59 211l199 121q82 -154 266 -154q162 0 162 96q0 45 -49 75.5t-182 58.5q-172 37 -259 106t-87 201t110.5 214.5t294.5 82.5q289 0 418 -187l-189 -129q-85 115 -229 115q-152 0 -152 -92q0 -45 38.5 -66t154.5 -45q194 -40 287.5 -111t93.5 -210q0 -78 -32.5 -138 t-90.5 -97t-134 -56t-167 -19q-319 0 -453 234z" />
<glyph unicode="t" horiz-adv-x="753" d="M31 782v205h145v230l266 40v-270h256l-32 -205h-224v-503q0 -43 19.5 -62.5t44.5 -19.5q68 0 147 63l97 -182q-154 -101 -301 -101q-54 0 -101 15t-86.5 45t-62.5 82t-23 121v542h-145z" />
<glyph unicode="u" horiz-adv-x="1185" d="M127 399v562l268 40v-575q0 -120 36 -176.5t136 -56.5q48 0 94 17t69.5 32.5t53.5 40.5v704h269v-987h-246l-10 78q-124 -98 -297 -98q-188 0 -280.5 111t-92.5 308z" />
<glyph unicode="v" horiz-adv-x="1091" d="M0 987h285l272 -655l262 655h273l-424 -987h-232z" />
<glyph unicode="w" horiz-adv-x="1468" d="M0 987h279l178 -594l194 594h164l197 -594l178 594h278l-352 -987h-194l-189 571l-186 -571h-195z" />
<glyph unicode="x" horiz-adv-x="1046" d="M0 987h301l227 -305l228 305h274l-360 -481l377 -506h-302l-229 311l-231 -311h-279l371 487z" />
<glyph unicode="y" horiz-adv-x="1058" d="M0 987h285l258 -674l245 674h271l-512 -1220q-73 -179 -283 -179q-121 0 -250 56l84 190q71 -35 142 -35q60 0 94 72l76 170z" />
<glyph unicode="z" horiz-adv-x="1040" d="M74 0v182l565 600h-543v205h850v-192l-557 -592h590l-33 -203h-872z" />
<glyph unicode="{" horiz-adv-x="600" d="M35 608v152q92 12 133 51.5t41 114.5v264q0 155 89 228.5t280 78.5l22 -178q-49 -2 -79.5 -15.5t-44.5 -39.5t-18.5 -51.5t-4.5 -65.5v-221q0 -183 -146 -242q76 -36 111 -92.5t35 -149.5v-225q0 -40 4.5 -65.5t19 -50t45 -37.5t78.5 -15l-22 -176q-190 1 -279.5 76 t-89.5 231v262q0 75 -41 114.5t-133 51.5z" />
<glyph unicode="|" horiz-adv-x="563" d="M154 -152v1663h256v-1663h-256z" />
<glyph unicode="}" horiz-adv-x="600" d="M0 49q48 2 78.5 15t45 37.5t19 50t4.5 65.5v225q0 93 35 149.5t111 92.5q-146 59 -146 242v221q0 40 -4.5 65.5t-18.5 51.5t-44.5 39.5t-79.5 15.5l23 178q191 -5 279.5 -78.5t88.5 -228.5v-264q0 -75 41 -114.5t133 -51.5v-152q-92 -12 -133 -51.5t-41 -114.5v-262 q0 -156 -89 -231t-279 -76z" />
<glyph unicode="~" d="M63 1036q23 146 100.5 220.5t203.5 74.5q62 0 116.5 -17t86 -38t67 -38t63.5 -17q42 0 69.5 23.5t37.5 90.5h235q-11 -156 -91.5 -230.5t-198.5 -74.5q-61 0 -115.5 17.5t-86.5 39t-71.5 39t-75.5 17.5q-43 0 -68.5 -24.5t-35.5 -82.5h-236z" />
<glyph unicode="&#xa2;" d="M170 678q0 97 35.5 180.5t115.5 145t193 77.5v285h172v-283q68 -4 137 -33t115 -67l-109 -182q-60 41 -109.5 62.5t-105.5 21.5q-98 0 -145 -61t-47 -148q0 -78 53 -139.5t148 -61.5q45 0 87.5 12.5t120.5 49.5l87 -183q-117 -67 -232 -80v-297h-172v302 q-163 28 -253.5 142t-90.5 257z" />
<glyph unicode="&#xa3;" d="M70 504v223h143v213q0 138 58.5 239.5t152.5 151t211 49.5q142 0 248.5 -67t160.5 -203l-239 -113q-38 81 -79.5 111.5t-90.5 30.5q-63 0 -111.5 -51t-48.5 -160v-201h408v-223h-408v-256h559v-248h-821v504h-143z" />
<glyph unicode="&#xa5;" d="M10 1356h307l248 -590l232 590h299l-342 -682h266v-137h-324v-119h324v-137h-324v-281h-276v281h-324v137h324v119h-324v137h264z" />
<glyph unicode="&#xa8;" horiz-adv-x="905" d="M127 1292q0 61 37 103.5t96 42.5q56 0 94.5 -42.5t38.5 -103.5q0 -58 -38.5 -101.5t-94.5 -43.5q-58 0 -95.5 43t-37.5 102zM512 1292q0 61 38.5 103.5t94.5 42.5q59 0 96 -42.5t37 -103.5q0 -59 -37.5 -102t-95.5 -43q-56 0 -94.5 43.5t-38.5 101.5z" />
<glyph unicode="&#xa9;" horiz-adv-x="1587" d="M90 608q0 116 28 225.5t86 207t140.5 171t198.5 116t252 42.5t252 -42.5t197.5 -116t139.5 -171t85.5 -207t27.5 -225.5q0 -117 -27.5 -227.5t-85.5 -208.5t-139.5 -171.5t-197.5 -116t-252 -42.5q-203 0 -364.5 98.5t-251 273.5t-89.5 394zM264 608q0 -94 21.5 -182 t65 -164.5t106 -133.5t149.5 -89.5t189 -32.5q126 0 228 50t166.5 134.5t99 192t34.5 225.5q0 117 -34.5 223.5t-99 191t-167 135t-227.5 50.5q-127 0 -230 -50.5t-167.5 -135t-99 -191t-34.5 -223.5zM395 604q0 116 33.5 207.5t91 148t129.5 86t154 29.5q128 0 211.5 -53 t134.5 -164l-164 -88q-37 67 -77.5 98t-100.5 31q-85 0 -144 -75.5t-59 -219.5q0 -131 61 -210t152 -79q108 0 180 121l160 -94q-126 -205 -346 -205q-188 0 -302 125t-114 342z" />
<glyph unicode="&#xab;" horiz-adv-x="1187" d="M31 512l424 434l176 -139l-293 -283l321 -276l-163 -156zM510 512l424 434l176 -139l-293 -283l322 -276l-164 -156z" />
<glyph unicode="&#xad;" horiz-adv-x="675" d="M78 436v226h520v-226h-520z" />
<glyph unicode="&#xae;" horiz-adv-x="1589" d="M92 608q0 116 28 225.5t86 207t140.5 171t198.5 116t252 42.5q135 0 250.5 -42.5t197 -116t139.5 -171t85.5 -207t27.5 -225.5q0 -117 -27.5 -227.5t-85.5 -208.5t-139.5 -171.5t-197.5 -116t-252 -42.5q-135 0 -250.5 42.5t-197.5 116t-140.5 171.5t-86.5 208.5 t-28 227.5zM264 608q0 -119 35 -226.5t100 -191.5t168 -134t230 -50q125 0 227 50t166.5 134.5t99.5 192t35 225.5q0 117 -34.5 223.5t-99 191t-167 135t-227.5 50.5q-127 0 -230.5 -50.5t-168 -135t-99.5 -191t-35 -223.5zM502 209v831h311q326 0 326 -262 q0 -189 -166 -246l174 -323h-203l-158 301h-94v-301h-190zM692 684h107q80 0 111.5 20.5t31.5 79.5q0 48 -29 65t-106 17h-115v-182z" />
<glyph unicode="&#xb4;" horiz-adv-x="905" d="M182 1212l412 289l129 -170l-467 -229z" />
<glyph unicode="&#xb8;" horiz-adv-x="905" d="M221 -348l51 137q70 -27 144 -27q73 0 73 50t-178 63l142 201h196l-104 -144q58 -8 99.5 -43t41.5 -88q0 -90 -72 -139t-200 -49q-107 0 -193 39z" />
<glyph unicode="&#xbb;" horiz-adv-x="1187" d="M49 248l322 276l-293 283l176 139l424 -434l-465 -420zM528 248l322 276l-293 283l176 139l424 -434l-465 -420z" />
<glyph unicode="&#xc0;" horiz-adv-x="1325" d="M0 0l561 1366h195l569 -1366h-297l-110 274h-527l-112 -274h-279zM375 1710l129 170l411 -289l-71 -110zM475 506h352l-176 448z" />
<glyph unicode="&#xc1;" horiz-adv-x="1325" d="M0 0l561 1366h195l569 -1366h-297l-110 274h-527l-112 -274h-279zM434 1591l412 289l129 -170l-467 -229zM475 506h352l-176 448z" />
<glyph unicode="&#xc2;" horiz-adv-x="1325" d="M0 0l561 1366h195l569 -1366h-297l-110 274h-527l-112 -274h-279zM305 1585l248 266h197l247 -270l-141 -86l-207 197l-207 -199zM475 506h352l-176 448z" />
<glyph unicode="&#xc3;" horiz-adv-x="1325" d="M0 0l561 1366h195l569 -1366h-297l-110 274h-527l-112 -274h-279zM254 1559q37 108 104 171.5t156 63.5q37 0 80 -18.5t75 -40t66 -40t56 -18.5q38 0 72.5 39.5t54.5 89.5l139 -71q-38 -113 -104 -175.5t-156 -62.5q-47 0 -102.5 29.5t-102 58.5t-72.5 29 q-71 0 -125 -129zM475 506h352l-176 448z" />
<glyph unicode="&#xc8;" horiz-adv-x="1200" d="M158 0v1366h938v-248h-662v-311h547v-248h-547v-311h709v-248h-985zM283 1710l129 170l411 -289l-71 -110z" />
<glyph unicode="&#xc9;" horiz-adv-x="1200" d="M158 0v1366h938v-248h-662v-311h547v-248h-547v-311h709v-248h-985zM414 1591l411 289l129 -170l-467 -229z" />
<glyph unicode="&#xca;" horiz-adv-x="1200" d="M158 0v1366h938v-248h-662v-311h547v-248h-547v-311h709v-248h-985zM276 1585l248 266h197l248 -270l-142 -86l-206 197l-207 -199z" />
<glyph unicode="&#xcc;" horiz-adv-x="591" d="M-51 1710l129 170l411 -289l-71 -110zM158 0v1366h276v-1366h-276z" />
<glyph unicode="&#xcd;" horiz-adv-x="591" d="M100 1591l412 289l129 -170l-467 -229zM158 0v1366h276v-1366h-276z" />
<glyph unicode="&#xd2;" horiz-adv-x="1447" d="M92 684q0 107 24.5 209t76 193.5t124.5 160t177 108.5t227 40q124 0 229 -40t179 -108.5t126 -160t76.5 -193.5t24.5 -209t-24.5 -209t-76.5 -193.5t-126 -160.5t-179 -109.5t-229 -40.5q-123 0 -227.5 40.5t-177.5 109t-124.5 160.5t-75.5 194t-24 209zM348 1710 l129 170l412 -289l-72 -110zM371 684q0 -93 23 -176.5t66 -149t111 -104.5t150 -39q84 0 152.5 39t111.5 105t66.5 149.5t23.5 175.5t-23.5 175.5t-66.5 149.5t-111.5 105t-152.5 39q-109 0 -190.5 -67.5t-120.5 -172.5t-39 -229z" />
<glyph unicode="&#xd3;" horiz-adv-x="1447" d="M92 684q0 107 24.5 209t76 193.5t124.5 160t177 108.5t227 40q124 0 229 -40t179 -108.5t126 -160t76.5 -193.5t24.5 -209t-24.5 -209t-76.5 -193.5t-126 -160.5t-179 -109.5t-229 -40.5q-123 0 -227.5 40.5t-177.5 109t-124.5 160.5t-75.5 194t-24 209zM371 684 q0 -93 23 -176.5t66 -149t111 -104.5t150 -39q84 0 152.5 39t111.5 105t66.5 149.5t23.5 175.5t-23.5 175.5t-66.5 149.5t-111.5 105t-152.5 39q-109 0 -190.5 -67.5t-120.5 -172.5t-39 -229zM498 1591l411 289l129 -170l-467 -229z" />
<glyph unicode="&#xd4;" horiz-adv-x="1447" d="M92 684q0 107 24.5 209t76 193.5t124.5 160t177 108.5t227 40q124 0 229 -40t179 -108.5t126 -160t76.5 -193.5t24.5 -209t-24.5 -209t-76.5 -193.5t-126 -160.5t-179 -109.5t-229 -40.5q-123 0 -227.5 40.5t-177.5 109t-124.5 160.5t-75.5 194t-24 209zM371 684 q0 -93 23 -176.5t66 -149t111 -104.5t150 -39q84 0 152.5 39t111.5 105t66.5 149.5t23.5 175.5t-23.5 175.5t-66.5 149.5t-111.5 105t-152.5 39q-109 0 -190.5 -67.5t-120.5 -172.5t-39 -229zM381 1585l248 266h196l248 -270l-141 -86l-207 197l-207 -199z" />
<glyph unicode="&#xd5;" horiz-adv-x="1447" d="M92 684q0 107 24.5 209t76 193.5t124.5 160t177 108.5t227 40q124 0 229 -40t179 -108.5t126 -160t76.5 -193.5t24.5 -209t-24.5 -209t-76.5 -193.5t-126 -160.5t-179 -109.5t-229 -40.5q-123 0 -227.5 40.5t-177.5 109t-124.5 160.5t-75.5 194t-24 209zM317 1559 q37 108 104.5 171.5t156.5 63.5q37 0 80 -18.5t74.5 -40t65.5 -40t56 -18.5q38 0 72.5 39.5t54.5 89.5l139 -71q-38 -113 -104 -175.5t-156 -62.5q-37 0 -80.5 18.5t-74.5 40t-65 40t-56 18.5q-71 0 -125 -129zM371 684q0 -93 23 -176.5t66 -149t111 -104.5t150 -39 q84 0 152.5 39t111.5 105t66.5 149.5t23.5 175.5t-23.5 175.5t-66.5 149.5t-111.5 105t-152.5 39q-109 0 -190.5 -67.5t-120.5 -172.5t-39 -229z" />
<glyph unicode="&#xd9;" horiz-adv-x="1406" d="M150 469v897h276v-870q0 -126 73.5 -203.5t205.5 -77.5t204 77t72 204v870h276v-897q0 -151 -74.5 -266t-200 -173.5t-280.5 -58.5q-154 0 -278.5 58.5t-199 173.5t-74.5 266zM348 1710l129 170l412 -289l-72 -110z" />
<glyph unicode="&#xda;" horiz-adv-x="1406" d="M150 469v897h276v-870q0 -126 73.5 -203.5t205.5 -77.5t204 77t72 204v870h276v-897q0 -151 -74.5 -266t-200 -173.5t-280.5 -58.5q-154 0 -278.5 58.5t-199 173.5t-74.5 266zM518 1591l412 289l129 -170l-467 -229z" />
<glyph unicode="&#xdd;" horiz-adv-x="1189" d="M0 1366h307l297 -543l283 543h303l-453 -817v-549h-276v549zM408 1591l411 289l129 -170l-467 -229z" />
<glyph unicode="&#xe0;" horiz-adv-x="1052" d="M70 291q0 60 21 110t53 84t82.5 61t98.5 42.5t111.5 27t111 16.5t107.5 9v33q0 63 -36 98t-107 35q-109 0 -184 -88l-183 127q71 90 177.5 128t212.5 38q181 0 286 -92.5t105 -284.5v-635h-246l-12 74q-44 -45 -111 -71t-145 -26q-89 0 -166.5 36.5t-126.5 109.5t-49 168 zM229 1331l129 170l412 -289l-72 -110zM330 297q0 -51 37 -80t108 -29q99 0 182 72v201q-43 -3 -67.5 -5t-64 -7.5t-63 -12t-51.5 -19t-43.5 -28t-26.5 -39.5t-11 -53z" />
<glyph unicode="&#xe1;" horiz-adv-x="1052" d="M70 291q0 60 21 110t53 84t82.5 61t98.5 42.5t111.5 27t111 16.5t107.5 9v33q0 63 -36 98t-107 35q-109 0 -184 -88l-183 127q71 90 177.5 128t212.5 38q181 0 286 -92.5t105 -284.5v-635h-246l-12 74q-44 -45 -111 -71t-145 -26q-89 0 -166.5 36.5t-126.5 109.5t-49 168 zM285 1212l411 289l129 -170l-467 -229zM330 297q0 -51 37 -80t108 -29q99 0 182 72v201q-43 -3 -67.5 -5t-64 -7.5t-63 -12t-51.5 -19t-43.5 -28t-26.5 -39.5t-11 -53z" />
<glyph unicode="&#xe2;" horiz-adv-x="1052" d="M70 291q0 60 21 110t53 84t82.5 61t98.5 42.5t111.5 27t111 16.5t107.5 9v33q0 63 -36 98t-107 35q-109 0 -184 -88l-183 127q71 90 177.5 128t212.5 38q181 0 286 -92.5t105 -284.5v-635h-246l-12 74q-44 -45 -111 -71t-145 -26q-89 0 -166.5 36.5t-126.5 109.5t-49 168 zM162 1206l248 267h196l248 -271l-141 -86l-207 197l-207 -199zM330 297q0 -51 37 -80t108 -29q99 0 182 72v201q-43 -3 -67.5 -5t-64 -7.5t-63 -12t-51.5 -19t-43.5 -28t-26.5 -39.5t-11 -53z" />
<glyph unicode="&#xe3;" horiz-adv-x="1052" d="M70 291q0 60 21 110t53 84t82.5 61t98.5 42.5t111.5 27t111 16.5t107.5 9v33q0 63 -36 98t-107 35q-109 0 -184 -88l-183 127q71 90 177.5 128t212.5 38q181 0 286 -92.5t105 -284.5v-635h-246l-12 74q-44 -45 -111 -71t-145 -26q-89 0 -166.5 36.5t-126.5 109.5t-49 168 zM113 1180q37 108 104 171.5t156 63.5q47 0 102 -29.5t101.5 -58.5t72.5 -29q38 0 72.5 39.5t54.5 89.5l139 -71q-38 -113 -104 -175.5t-156 -62.5q-37 0 -80.5 18.5t-75 40t-65 40t-55.5 18.5q-71 0 -125 -129zM330 297q0 -51 37 -80t108 -29q99 0 182 72v201 q-43 -3 -67.5 -5t-64 -7.5t-63 -12t-51.5 -19t-43.5 -28t-26.5 -39.5t-11 -53z" />
<glyph unicode="&#xe8;" horiz-adv-x="1075" d="M72 494q0 121 38 220.5t103.5 163.5t152 99t185.5 35q212 0 335.5 -147.5t127.5 -434.5h-674q11 -118 74 -176.5t151 -58.5q79 0 134.5 28t113.5 109l199 -121q-84 -126 -193 -180t-262 -54q-100 0 -186.5 32t-154 94t-106 162.5t-38.5 228.5zM227 1331l129 170l412 -289 l-72 -110zM346 612h395q-7 93 -62.5 145t-127.5 52q-73 0 -133 -54t-72 -143z" />
<glyph unicode="&#xe9;" horiz-adv-x="1075" d="M72 494q0 121 38 220.5t103.5 163.5t152 99t185.5 35q212 0 335.5 -147.5t127.5 -434.5h-674q11 -118 74 -176.5t151 -58.5q79 0 134.5 28t113.5 109l199 -121q-84 -126 -193 -180t-262 -54q-100 0 -186.5 32t-154 94t-106 162.5t-38.5 228.5zM322 1212l411 289l129 -170 l-467 -229zM346 612h395q-7 93 -62.5 145t-127.5 52q-73 0 -133 -54t-72 -143z" />
<glyph unicode="&#xea;" horiz-adv-x="1075" d="M72 494q0 121 38 220.5t103.5 163.5t152 99t185.5 35q212 0 335.5 -147.5t127.5 -434.5h-674q11 -118 74 -176.5t151 -58.5q79 0 134.5 28t113.5 109l199 -121q-84 -126 -193 -180t-262 -54q-100 0 -186.5 32t-154 94t-106 162.5t-38.5 228.5zM195 1206l247 267h197 l248 -271l-142 -86l-206 197l-207 -199zM346 612h395q-7 93 -62.5 145t-127.5 52q-73 0 -133 -54t-72 -143z" />
<glyph unicode="&#xec;" horiz-adv-x="532" d="M-78 1331l129 170l412 -289l-72 -110zM133 0v961l266 40v-1001h-266z" />
<glyph unicode="&#xed;" horiz-adv-x="532" d="M74 1212l411 289l129 -170l-467 -229zM133 0v961l266 40v-1001h-266z" />
<glyph unicode="&#xf2;" horiz-adv-x="1138" d="M72 498q0 98 31.5 188.5t91 164t156.5 117.5t218 44t218 -44t157 -117.5t91.5 -164t31.5 -188.5t-31.5 -189.5t-91.5 -166.5t-157 -120t-218 -45t-218 45t-156.5 120t-91 166.5t-31.5 189.5zM203 1331l129 170l411 -289l-71 -110zM334 498q0 -131 61.5 -216t173.5 -85 t174 85t62 216q0 130 -62 214.5t-174 84.5q-111 0 -173 -84.5t-62 -214.5z" />
<glyph unicode="&#xf3;" horiz-adv-x="1138" d="M72 498q0 98 31.5 188.5t91 164t156.5 117.5t218 44t218 -44t157 -117.5t91.5 -164t31.5 -188.5t-31.5 -189.5t-91.5 -166.5t-157 -120t-218 -45t-218 45t-156.5 120t-91 166.5t-31.5 189.5zM324 1212l411 289l129 -170l-467 -229zM334 498q0 -131 61.5 -216t173.5 -85 t174 85t62 216q0 130 -62 214.5t-174 84.5q-111 0 -173 -84.5t-62 -214.5z" />
<glyph unicode="&#xf4;" horiz-adv-x="1138" d="M72 498q0 98 31.5 188.5t91 164t156.5 117.5t218 44t218 -44t157 -117.5t91.5 -164t31.5 -188.5t-31.5 -189.5t-91.5 -166.5t-157 -120t-218 -45t-218 45t-156.5 120t-91 166.5t-31.5 189.5zM229 1206l248 267h197l248 -271l-142 -86l-207 197l-206 -199zM334 498 q0 -131 61.5 -216t173.5 -85t174 85t62 216q0 130 -62 214.5t-174 84.5q-111 0 -173 -84.5t-62 -214.5z" />
<glyph unicode="&#xf5;" horiz-adv-x="1138" d="M72 498q0 98 31.5 188.5t91 164t156.5 117.5t218 44t218 -44t157 -117.5t91.5 -164t31.5 -188.5t-31.5 -189.5t-91.5 -166.5t-157 -120t-218 -45t-218 45t-156.5 120t-91 166.5t-31.5 189.5zM176 1180q37 108 104 171.5t156 63.5q47 0 102 -29.5t102 -58.5t73 -29 q38 0 72.5 39.5t54.5 89.5l139 -71q-38 -113 -104 -175.5t-156 -62.5q-37 0 -80.5 18.5t-75 40t-65.5 40t-56 18.5q-71 0 -125 -129zM334 498q0 -131 61.5 -216t173.5 -85t174 85t62 216q0 130 -62 214.5t-174 84.5q-111 0 -173 -84.5t-62 -214.5z" />
<glyph unicode="&#xf9;" horiz-adv-x="1185" d="M127 399v562l268 40v-575q0 -120 36 -176.5t136 -56.5q48 0 94 17t69.5 32.5t53.5 40.5v704h269v-987h-246l-10 78q-124 -98 -297 -98q-188 0 -280.5 111t-92.5 308zM211 1331l129 170l412 -289l-72 -110z" />
<glyph unicode="&#xfa;" horiz-adv-x="1185" d="M127 399v562l268 40v-575q0 -120 36 -176.5t136 -56.5q48 0 94 17t69.5 32.5t53.5 40.5v704h269v-987h-246l-10 78q-124 -98 -297 -98q-188 0 -280.5 111t-92.5 308zM403 1212l412 289l129 -170l-467 -229z" />
<glyph unicode="&#xfd;" horiz-adv-x="1058" d="M0 987h285l258 -674l245 674h271l-512 -1220q-73 -179 -283 -179q-121 0 -250 56l84 190q71 -35 142 -35q60 0 94 72l76 170zM330 1212l411 289l129 -170l-467 -229z" />
<glyph unicode="&#x102;" horiz-adv-x="1325" d="M0 0l561 1366h195l569 -1366h-297l-110 274h-527l-112 -274h-279zM315 1772h211q26 -125 133 -125q54 0 90 33.5t48 91.5h204q-3 -88 -54.5 -155.5t-127.5 -100.5t-160 -33q-89 0 -165 31.5t-126 99t-53 158.5zM475 506h352l-176 448z" />
<glyph unicode="&#x103;" horiz-adv-x="1052" d="M70 291q0 60 21 110t53 84t82.5 61t98.5 42.5t111.5 27t111 16.5t107.5 9v33q0 63 -36 98t-107 35q-109 0 -184 -88l-183 127q71 90 177.5 128t212.5 38q181 0 286 -92.5t105 -284.5v-635h-246l-12 74q-44 -45 -111 -71t-145 -26q-89 0 -166.5 36.5t-126.5 109.5t-49 168 zM195 1393h211q26 -125 133 -125q54 0 89.5 33.5t47.5 91.5h205q-3 -88 -54.5 -155.5t-127.5 -100.5t-160 -33q-89 0 -165 31.5t-126 99t-53 158.5zM330 297q0 -51 37 -80t108 -29q99 0 182 72v201q-43 -3 -67.5 -5t-64 -7.5t-63 -12t-51.5 -19t-43.5 -28t-26.5 -39.5 t-11 -53z" />
<glyph unicode="&#x110;" horiz-adv-x="1357" d="M-12 596v215h170v555h405q214 0 352 -61q169 -79 260 -246.5t91 -368.5q0 -131 -38.5 -250t-119 -218t-193.5 -152q-146 -70 -342 -70h-415v596h-170zM434 246h113q149 0 248 51q94 49 142 152.5t48 228.5q0 122 -44.5 224t-129.5 157q-94 61 -260 61h-117v-309h311v-215 h-311v-350z" />
<glyph unicode="&#x111;" horiz-adv-x="1140" d="M72 492q0 78 19 151t59 137.5t97.5 112t139 75t178.5 27.5q78 0 176 -28v123h-245v170h245v94l267 41v-135h131v-170h-131v-1090h-244l-12 76q-95 -99 -238 -99q-139 0 -241 69.5t-151.5 184.5t-49.5 261zM332 498q0 -137 57.5 -220t177.5 -83q49 0 100 25.5t74 60.5v471 q-82 28 -143 28q-128 0 -197 -81.5t-69 -200.5z" />
<glyph unicode="&#x128;" horiz-adv-x="591" d="M-104 1559q37 108 104 171.5t156 63.5q37 0 80 -18.5t74.5 -40t65.5 -40t56 -18.5q38 0 72.5 39.5t54.5 89.5l139 -71q-38 -113 -104 -175.5t-156 -62.5q-37 0 -80.5 18.5t-74.5 40t-65 40t-56 18.5q-71 0 -125 -129zM158 0v1366h276v-1366h-276z" />
<glyph unicode="&#x129;" horiz-adv-x="532" d="M-133 1180q37 108 104 171.5t156 63.5q47 0 102 -29.5t101.5 -58.5t72.5 -29q38 0 72.5 39.5t54.5 89.5l140 -71q-38 -113 -104 -175.5t-156 -62.5q-37 0 -80.5 18.5t-75 40t-65.5 40t-56 18.5q-71 0 -125 -129zM133 0v961l266 40v-1001h-266z" />
<glyph unicode="&#x168;" horiz-adv-x="1406" d="M150 469v897h276v-870q0 -126 73.5 -203.5t205.5 -77.5t204 77t72 204v870h276v-897q0 -151 -74.5 -266t-200 -173.5t-280.5 -58.5q-154 0 -278.5 58.5t-199 173.5t-74.5 266zM307 1559q37 108 104 171.5t156 63.5q37 0 80 -18.5t75 -40t66 -40t56 -18.5q38 0 72.5 39.5 t54.5 89.5l139 -71q-38 -113 -104 -175.5t-156 -62.5q-47 0 -102.5 29.5t-102 58.5t-72.5 29q-70 0 -124 -129z" />
<glyph unicode="&#x169;" horiz-adv-x="1185" d="M127 399v562l268 40v-575q0 -120 36 -176.5t136 -56.5q48 0 94 17t69.5 32.5t53.5 40.5v704h269v-987h-246l-10 78q-124 -98 -297 -98q-188 0 -280.5 111t-92.5 308zM199 1180q37 108 104 171.5t156 63.5q47 0 102 -29.5t101.5 -58.5t72.5 -29q38 0 72.5 39.5t54.5 89.5 l139 -71q-38 -113 -104 -175.5t-156 -62.5q-37 0 -80.5 18.5t-75 40t-65 40t-55.5 18.5q-71 0 -125 -129z" />
<glyph unicode="&#x1a0;" horiz-adv-x="1447" d="M90 688q0 107 24.5 209t76 193.5t124.5 160t177 108.5t227 40q181 0 325 -88q19 7 43 28q16 13 39 43q9 13 13 21q10 17 16 49l2 16h197l-2 -24q-3 -85 -39 -148q-36 -59 -90 -104l-2 -2q-1 -1 -3.5 -2t-3.5 -2l-18 -12q77 -98 117.5 -225t40.5 -261q0 -107 -24.5 -209 t-76.5 -193.5t-126 -160.5t-179 -109.5t-229 -40.5q-123 0 -227.5 40.5t-177.5 109t-124.5 160.5t-75.5 194t-24 209zM369 688q0 -93 23 -176.5t66 -149t111 -104.5t150 -39q84 0 152.5 39t111.5 105t66.5 149.5t23.5 175.5t-23.5 175.5t-66.5 149.5t-111.5 105t-152.5 39 q-109 0 -190.5 -67.5t-120.5 -172.5t-39 -229z" />
<glyph unicode="&#x1a1;" horiz-adv-x="1138" d="M68 496q0 98 31.5 188.5t91 164t156.5 117.5t218 44q154 0 269 -72q22 10 47 25q26 21 45 49l2 2q16 25 24 71l2 15h162v-17q-3 -87 -37 -145q-33 -57 -84 -98v-2q-30 -18 -32 -19q100 -135 100 -323q0 -98 -31.5 -189.5t-91.5 -166.5t-157 -120t-218 -45t-218 45 t-156.5 120t-91 166.5t-31.5 189.5zM330 496q0 -131 61.5 -216t173.5 -85t174 85t62 216q0 130 -62 214.5t-174 84.5q-111 0 -173 -84.5t-62 -214.5z" />
<glyph unicode="&#x1af;" horiz-adv-x="1406" d="M145 467v897h277v-870q0 -126 73 -203.5t205 -77.5t204.5 77.5t72.5 203.5v870h276q25 3 56 22q6 6 16 11q22 16 35 35l12 18q6 15 12 45v2l2 14h191v-24q-3 -79 -39 -144q-41 -63 -90 -102l-2 -2h-2q-25 -19 -60 -31q-2 -2 -14.5 -7t-41.5 -14t-62 -16l-13 -2v-702 q0 -151 -74.5 -266t-200 -173.5t-280.5 -58.5q-154 0 -279 58.5t-199.5 173.5t-74.5 266z" />
<glyph unicode="&#x1b0;" horiz-adv-x="1185" d="M125 397v561l268 41v-575q0 -120 36 -177t136 -57q48 0 94.5 17.5t69 33t53.5 40.5v704h269q20 6 49 25q26 21 45 49l2 2q15 25 24 72l3 14h161v-17q-3 -87 -37 -145q-33 -57 -84 -98v-2q-39 -24 -55 -31q-34 -19 -108 -35v-821h-246l-10 78q-125 -99 -297 -99 q-188 0 -280.5 111.5t-92.5 308.5z" />
<glyph unicode="&#x2c6;" horiz-adv-x="905" d="M106 1206l248 267h197l248 -271l-142 -86l-206 197l-207 -199z" />
<glyph unicode="&#x2da;" horiz-adv-x="905" d="M240 1303q0 91 56.5 158t156.5 67q101 0 158 -66t57 -155t-57 -156.5t-158 -67.5q-96 0 -154.5 63t-58.5 157zM373 1309q0 -40 20.5 -68.5t59.5 -28.5q38 0 60 26.5t22 68.5t-22 68t-60 26q-37 0 -58.5 -25.5t-21.5 -66.5z" />
<glyph unicode="&#x2dc;" horiz-adv-x="905" d="M51 1180q37 108 104 171.5t156 63.5q47 0 102 -29.5t102 -58.5t73 -29q38 0 72.5 39.5t54.5 89.5l139 -71q-38 -113 -104 -175.5t-156 -62.5q-37 0 -80.5 18.5t-75 40t-65.5 40t-56 18.5q-70 0 -124 -129z" />
<glyph unicode="&#x1ea0;" horiz-adv-x="1325" d="M0 0l561 1366h195l569 -1366h-297l-110 274h-527l-112 -274h-279zM475 506h352l-176 448zM530 -262q0 61 43 104t105 43t104.5 -42.5t42.5 -104.5t-43 -105t-104 -43q-62 0 -105 43t-43 105z" />
<glyph unicode="&#x1ea1;" horiz-adv-x="1052" d="M70 291q0 60 21 110t53 84t82.5 61t98.5 42.5t111.5 27t111 16.5t107.5 9v33q0 63 -36 98t-107 35q-109 0 -184 -88l-183 127q71 90 177.5 128t212.5 38q181 0 286 -92.5t105 -284.5v-635h-246l-12 74q-44 -45 -111 -71t-145 -26q-89 0 -166.5 36.5t-126.5 109.5t-49 168 zM330 297q0 -51 37 -80t108 -29q99 0 182 72v201q-43 -3 -67.5 -5t-64 -7.5t-63 -12t-51.5 -19t-43.5 -28t-26.5 -39.5t-11 -53zM393 -262q0 61 43 104t105 43q61 0 104 -42.5t43 -104.5t-43 -105t-104 -43t-104.5 43t-43.5 105z" />
<glyph unicode="&#x1ea2;" horiz-adv-x="1325" d="M0 0l561 1366h195l569 -1366h-297l-110 274h-527l-112 -274h-279zM438 1743l8 14q73 146 216 146q79 0 133 -48q55 -46 55 -122q0 -67 -64 -140h-2l-51 -51q-26 -26 -39 -55l-6 -12l-127 32l4 17q11 36 31 61l20 25l21 22q45 48 45 78q0 29 -12 41t-39 12q-48 0 -88 -63 l-8 -14zM475 506h352l-176 448z" />
<glyph unicode="&#x1ea3;" horiz-adv-x="1052" d="M80 291q0 60 21 110t53.5 84t83 61t98.5 42.5t111.5 27t111 16.5t107.5 9v33q0 63 -36.5 98t-107.5 35q-109 0 -184 -88l-182 127q71 90 177 128t212 38q181 0 286 -92.5t105 -284.5v-635h-246l-12 74q-44 -45 -111 -71t-145 -26q-89 0 -166.5 36.5t-126.5 109.5t-49 168 zM303 1360l8 14q73 146 215 146q80 0 133 -47q56 -47 56 -123q0 -67 -64 -140h-2l-51 -51q-26 -26 -39 -55l-6 -12l-127 32l4 17q11 36 31 61l20 25l21 22q45 48 45 78q0 29 -12 41t-39 12q-48 0 -88 -63l-9 -14zM340 297q0 -51 37 -80t108 -29q100 0 183 72v201 q-50 -3 -79 -6t-73.5 -9.5t-70.5 -17.5t-53 -28t-39.5 -43t-12.5 -60z" />
<glyph unicode="&#x1ea4;" horiz-adv-x="1325" d="M0 0l561 1366h195l569 -1366h-297l-110 274h-527l-112 -274h-279zM305 1585l248 266h197l247 -270l-141 -86l-207 197l-207 -199zM475 506h352l-176 448zM895 1841l412 289l129 -170l-467 -229z" />
<glyph unicode="&#x1ea5;" horiz-adv-x="1052" d="M70 291q0 60 21 110t53 84t82.5 61t98.5 42.5t111.5 27t111 16.5t107.5 9v33q0 63 -36 98t-107 35q-109 0 -184 -88l-183 127q71 90 177.5 128t212.5 38q181 0 286 -92.5t105 -284.5v-635h-246l-12 74q-44 -45 -111 -71t-145 -26q-89 0 -166.5 36.5t-126.5 109.5t-49 168 zM162 1206l248 267h196l248 -271l-141 -86l-207 197l-207 -199zM330 297q0 -51 37 -80t108 -29q99 0 182 72v201q-43 -3 -67.5 -5t-64 -7.5t-63 -12t-51.5 -19t-43.5 -28t-26.5 -39.5t-11 -53zM680 1524l412 288l129 -170l-467 -229z" />
<glyph unicode="&#x1ea6;" horiz-adv-x="1325" d="M0 0l561 1366h195l569 -1366h-297l-110 274h-527l-112 -274h-279zM305 1585l248 266h197l247 -270l-141 -86l-207 197l-207 -199zM475 506h352l-176 448zM623 1985l129 169l411 -288l-71 -111z" />
<glyph unicode="&#x1ea7;" horiz-adv-x="1052" d="M70 291q0 60 21 110t53 84t82.5 61t98.5 42.5t111.5 27t111 16.5t107.5 9v33q0 63 -36 98t-107 35q-109 0 -184 -88l-183 127q71 90 177.5 128t212.5 38q181 0 286 -92.5t105 -284.5v-635h-246l-12 74q-44 -45 -111 -71t-145 -26q-89 0 -166.5 36.5t-126.5 109.5t-49 168 zM162 1206l248 267h196l248 -271l-141 -86l-207 197l-207 -199zM330 297q0 -51 37 -80t108 -29q99 0 182 72v201q-43 -3 -67.5 -5t-64 -7.5t-63 -12t-51.5 -19t-43.5 -28t-26.5 -39.5t-11 -53zM406 1647l129 170l411 -289l-72 -111z" />
<glyph unicode="&#x1ea8;" horiz-adv-x="1325" d="M0 0l561 1366h195l569 -1366h-297l-110 274h-527l-112 -274h-279zM305 1585l248 266h197l247 -270l-141 -86l-207 197l-207 -199zM475 506h352l-176 448zM797 2009l8 14q73 146 215 146q80 0 133 -47q55 -46 55 -123q0 -67 -63 -139h-2l-51 -52q-26 -26 -39 -55l-6 -12 l-127 33l4 16q12 38 30 61l21 25l20 22q45 48 45 78q0 29 -12 41.5t-39 12.5q-48 0 -88 -64l-8 -14z" />
<glyph unicode="&#x1ea9;" horiz-adv-x="1052" d="M70 291q0 60 21 110t53 84t82.5 61t98.5 42.5t111.5 27t111 16.5t107.5 9v33q0 63 -36 98t-107 35q-109 0 -184 -88l-183 127q71 90 177.5 128t212.5 38q181 0 286 -92.5t105 -284.5v-635h-246l-12 74q-44 -45 -111 -71t-145 -26q-89 0 -166.5 36.5t-126.5 109.5t-49 168 zM162 1206l248 267h196l248 -271l-141 -86l-207 197l-207 -199zM330 297q0 -51 37 -80t108 -29q99 0 182 72v201q-43 -3 -67.5 -5t-64 -7.5t-63 -12t-51.5 -19t-43.5 -28t-26.5 -39.5t-11 -53zM655 1636l9 15q72 145 215 145q80 0 133 -47q55 -46 55 -123q0 -67 -63 -139h-3 l-51 -51q-25 -25 -39 -56l-6 -12l-127 33l4 16q12 38 31 62l21 24l20 23q45 48 45 78q0 29 -12 41t-39 12q-48 0 -88 -64l-8 -14z" />
<glyph unicode="&#x1eaa;" horiz-adv-x="1325" d="M0 0l561 1366h195l569 -1366h-297l-110 274h-527l-112 -274h-279zM260 1966q37 108 104 172t156 64q37 0 80 -18.5t75 -40t66 -40t56 -18.5q38 0 72.5 39.5t54.5 89.5l139 -72q-38 -113 -104 -175t-156 -62q-47 0 -102.5 29t-102 58t-72.5 29q-71 0 -125 -129zM305 1585 l248 266h197l247 -270l-141 -86l-207 197l-207 -199zM475 506h352l-176 448z" />
<glyph unicode="&#x1eab;" horiz-adv-x="1052" d="M70 291q0 60 21 110t53 84t82.5 61t98.5 42.5t111.5 27t111 16.5t107.5 9v33q0 63 -36 98t-107 35q-109 0 -184 -88l-183 127q71 90 177.5 128t212.5 38q181 0 286 -92.5t105 -284.5v-635h-246l-12 74q-44 -45 -111 -71t-145 -26q-89 0 -166.5 36.5t-126.5 109.5t-49 168 zM125 1589q37 108 104 172t156 64q47 0 102 -29.5t102 -58.5t73 -29q38 0 72 39t54 90l140 -72q-38 -113 -104 -175t-156 -62q-37 0 -80.5 18.5t-75 40t-65.5 40t-56 18.5q-71 0 -125 -129zM162 1206l248 267h196l248 -271l-141 -86l-207 197l-207 -199zM330 297 q0 -51 37 -80t108 -29q99 0 182 72v201q-43 -3 -67.5 -5t-64 -7.5t-63 -12t-51.5 -19t-43.5 -28t-26.5 -39.5t-11 -53z" />
<glyph unicode="&#x1eac;" horiz-adv-x="1325" d="M0 0l561 1366h195l569 -1366h-297l-110 274h-527l-112 -274h-279zM315 1585l248 266h197l248 -270l-142 -86l-207 197l-206 -199zM475 506h352l-176 448zM526 -260q0 61 43 104t105 43t104.5 -42.5t42.5 -104.5t-43 -105t-104 -43q-62 0 -105 43t-43 105z" />
<glyph unicode="&#x1ead;" horiz-adv-x="1052" d="M70 291q0 60 21 110t53 84t82.5 61t98.5 42.5t111.5 27t111 16.5t107.5 9v33q0 63 -36 98t-107 35q-109 0 -184 -88l-183 127q71 90 177.5 128t212.5 38q181 0 286 -92.5t105 -284.5v-635h-246l-12 74q-44 -45 -111 -71t-145 -26q-89 0 -166.5 36.5t-126.5 109.5t-49 168 zM180 1206l248 267h197l247 -271l-141 -86l-207 197l-207 -199zM330 297q0 -51 37 -80t108 -29q99 0 182 72v201q-43 -3 -67.5 -5t-64 -7.5t-63 -12t-51.5 -19t-43.5 -28t-26.5 -39.5t-11 -53zM375 -256q0 62 42.5 104.5t104.5 42.5t105 -43t43 -104t-43 -104t-105 -43 t-104.5 42.5t-42.5 104.5z" />
<glyph unicode="&#x1eae;" horiz-adv-x="1325" d="M0 0l561 1366h195l569 -1366h-297l-110 274h-527l-112 -274h-279zM315 1772h211q26 -125 133 -125q54 0 90 33.5t48 91.5h204q-3 -88 -54.5 -155.5t-127.5 -100.5t-160 -33q-89 0 -165 31.5t-126 99t-53 158.5zM475 506h352l-176 448zM598 1890l412 289l129 -170 l-467 -229z" />
<glyph unicode="&#x1eaf;" horiz-adv-x="1052" d="M70 291q0 60 21 110t53 84t82.5 61t98.5 42.5t111.5 27t111 16.5t107.5 9v33q0 63 -36 98t-107 35q-109 0 -184 -88l-183 127q71 90 177.5 128t212.5 38q181 0 286 -92.5t105 -284.5v-635h-246l-12 74q-44 -45 -111 -71t-145 -26q-89 0 -166.5 36.5t-126.5 109.5t-49 168 zM195 1393h211q26 -125 133 -125q54 0 89.5 33.5t47.5 91.5h205q-3 -88 -54.5 -155.5t-127.5 -100.5t-160 -33q-89 0 -165 31.5t-126 99t-53 158.5zM330 297q0 -51 37 -80t108 -29q99 0 182 72v201q-43 -3 -67.5 -5t-64 -7.5t-63 -12t-51.5 -19t-43.5 -28t-26.5 -39.5 t-11 -53zM471 1516l412 288l129 -170l-467 -229z" />
<glyph unicode="&#x1eb0;" horiz-adv-x="1325" d="M0 0l561 1366h195l569 -1366h-297l-110 274h-527l-112 -274h-279zM209 2042l129 170l412 -289l-72 -111zM315 1772h211q26 -125 133 -125q54 0 90 33.5t48 91.5h204q-3 -88 -54.5 -155.5t-127.5 -100.5t-160 -33q-89 0 -165 31.5t-126 99t-53 158.5zM475 506h352 l-176 448z" />
<glyph unicode="&#x1eb1;" horiz-adv-x="1052" d="M70 291q0 60 21 110t53 84t82.5 61t98.5 42.5t111.5 27t111 16.5t107.5 9v33q0 63 -36 98t-107 35q-109 0 -184 -88l-183 127q71 90 177.5 128t212.5 38q181 0 286 -92.5t105 -284.5v-635h-246l-12 74q-44 -45 -111 -71t-145 -26q-89 0 -166.5 36.5t-126.5 109.5t-49 168 zM92 1659l129 170l412 -289l-72 -110zM195 1393h211q26 -125 133 -125q54 0 89.5 33.5t47.5 91.5h205q-3 -88 -54.5 -155.5t-127.5 -100.5t-160 -33q-89 0 -165 31.5t-126 99t-53 158.5zM330 297q0 -51 37 -80t108 -29q99 0 182 72v201q-43 -3 -67.5 -5t-64 -7.5t-63 -12 t-51.5 -19t-43.5 -28t-26.5 -39.5t-11 -53z" />
<glyph unicode="&#x1eb2;" horiz-adv-x="1325" d="M0 0l561 1366h195l569 -1366h-297l-110 274h-527l-112 -274h-279zM315 1772h211q26 -125 133 -125q54 0 90 33.5t48 91.5h204q-3 -88 -54.5 -155.5t-127.5 -100.5t-160 -33q-89 0 -165 31.5t-126 99t-53 158.5zM457 2109l8 15q73 145 215 145q80 0 133 -47 q55 -46 55 -123q0 -67 -63 -139h-2l-51 -51q-25 -25 -39 -56l-6 -12l-127 33l4 16q13 40 30 62l21 24l20 23q45 48 45 78q0 29 -12 41t-39 12q-48 0 -88 -64l-8 -14zM475 506h352l-176 448z" />
<glyph unicode="&#x1eb3;" horiz-adv-x="1052" d="M70 291q0 60 21 110t53 84t82.5 61t98.5 42.5t111.5 27t111 16.5t107.5 9v33q0 63 -36 98t-107 35q-109 0 -184 -88l-183 127q71 90 177.5 128t212.5 38q181 0 286 -92.5t105 -284.5v-635h-246l-12 74q-44 -45 -111 -71t-145 -26q-89 0 -166.5 36.5t-126.5 109.5t-49 168 zM195 1393h211q26 -125 133 -125q54 0 89.5 33.5t47.5 91.5h205q-3 -88 -54.5 -155.5t-127.5 -100.5t-160 -33q-89 0 -165 31.5t-126 99t-53 158.5zM330 297q0 -51 37 -80t108 -29q99 0 182 72v201q-43 -3 -67.5 -5t-64 -7.5t-63 -12t-51.5 -19t-43.5 -28t-26.5 -39.5 t-11 -53zM348 1638l8 15q72 145 215 145q81 0 134 -47q55 -46 55 -123q0 -66 -64 -139h-2l-51 -51q-25 -25 -39 -56l-6 -12l-127 33l4 16q12 38 31 62l20 24l21 23q45 48 45 78q0 29 -12 41t-39 12q-48 0 -88 -64l-9 -14z" />
<glyph unicode="&#x1eb4;" horiz-adv-x="1325" d="M0 0l561 1366h195l569 -1366h-297l-110 274h-527l-112 -274h-279zM260 1927q37 108 104 172t156 64q47 0 102 -29.5t102 -58.5t73 -29q38 0 72.5 39.5t54.5 89.5l139 -72q-38 -113 -104 -175t-156 -62q-47 0 -102.5 29t-102 58t-72.5 29q-71 0 -125 -129zM315 1772h211 q26 -125 133 -125q54 0 90 33.5t48 91.5h204q-3 -88 -54.5 -155.5t-127.5 -100.5t-160 -33q-89 0 -165 31.5t-126 99t-53 158.5zM475 506h352l-176 448z" />
<glyph unicode="&#x1eb5;" horiz-adv-x="1052" d="M70 291q0 60 21 110t53 84t82.5 61t98.5 42.5t111.5 27t111 16.5t107.5 9v33q0 63 -36 98t-107 35q-109 0 -184 -88l-183 127q71 90 177.5 128t212.5 38q181 0 286 -92.5t105 -284.5v-635h-246l-12 74q-44 -45 -111 -71t-145 -26q-89 0 -166.5 36.5t-126.5 109.5t-49 168 zM125 1548q37 108 104 172t156 64q37 0 80 -18.5t75 -40t66 -40t56 -18.5q38 0 72 39t54 90l140 -72q-38 -113 -104 -175t-156 -62q-47 0 -102.5 29.5t-102 58.5t-72.5 29q-71 0 -125 -129zM195 1393h211q26 -125 133 -125q54 0 89.5 33.5t47.5 91.5h205 q-3 -88 -54.5 -155.5t-127.5 -100.5t-160 -33q-89 0 -165 31.5t-126 99t-53 158.5zM330 297q0 -51 37 -80t108 -29q99 0 182 72v201q-43 -3 -67.5 -5t-64 -7.5t-63 -12t-51.5 -19t-43.5 -28t-26.5 -39.5t-11 -53z" />
<glyph unicode="&#x1eb6;" horiz-adv-x="1325" d="M0 0l561 1366h195l569 -1366h-297l-110 274h-527l-112 -274h-279zM319 1772h211q12 -59 46 -92t88 -33t89.5 33.5t47.5 91.5h205q-3 -88 -54.5 -155.5t-127.5 -100.5t-160 -33q-89 0 -165 31.5t-126.5 99t-53.5 158.5zM475 506h352l-176 448zM514 -268q0 61 43 104 t105 43t104.5 -42.5t42.5 -104.5t-43 -105t-104 -43q-62 0 -105 43t-43 105z" />
<glyph unicode="&#x1eb7;" horiz-adv-x="1052" d="M70 291q0 60 21 110t53 84t82.5 61t98.5 42.5t111.5 27t111 16.5t107.5 9v33q0 63 -36 98t-107 35q-109 0 -184 -88l-183 127q71 90 177.5 128t212.5 38q181 0 286 -92.5t105 -284.5v-635h-246l-12 74q-44 -45 -111 -71t-145 -26q-89 0 -166.5 36.5t-126.5 109.5t-49 168 zM182 1393h211q26 -125 133 -125q54 0 90 33.5t48 91.5h204q-3 -88 -54.5 -155.5t-127.5 -100.5t-160 -33q-89 0 -165 31.5t-126 99t-53 158.5zM330 297q0 -51 37 -80t108 -29q99 0 182 72v201q-43 -3 -67.5 -5t-64 -7.5t-63 -12t-51.5 -19t-43.5 -28t-26.5 -39.5t-11 -53z M393 -262q0 61 43 104t105 43q61 0 104 -42.5t43 -104.5t-43 -105t-104 -43t-104.5 43t-43.5 105z" />
<glyph unicode="&#x1eb8;" horiz-adv-x="1200" d="M158 0v1366h938v-248h-662v-311h547v-248h-547v-311h709v-248h-985zM524 -260q0 61 43 104t105 43t104.5 -42.5t42.5 -104.5t-43 -105t-104 -43q-62 0 -105 43t-43 105z" />
<glyph unicode="&#x1eb9;" horiz-adv-x="1075" d="M72 494q0 121 38 220.5t103.5 163.5t152 99t185.5 35q212 0 335.5 -147.5t127.5 -434.5h-674q11 -118 74 -176.5t151 -58.5q79 0 134.5 28t113.5 109l199 -121q-84 -126 -193 -180t-262 -54q-100 0 -186.5 32t-154 94t-106 162.5t-38.5 228.5zM346 612h395 q-7 93 -62.5 145t-127.5 52q-73 0 -133 -54t-72 -143zM406 -256q0 62 43 104.5t104 42.5t104 -42.5t43 -104.5t-43 -104.5t-104 -42.5t-104 42.5t-43 104.5z" />
<glyph unicode="&#x1eba;" horiz-adv-x="1200" d="M158 0v1366h938v-248h-662v-311h547v-248h-547v-311h709v-248h-985zM438 1731l8 14q72 145 216 145q80 0 133 -47q55 -46 55 -123q0 -66 -64 -139h-2l-51 -51q-26 -26 -39 -55l-6 -13l-127 33l4 16q12 38 31 62l20 24l21 23q45 48 45 78q0 29 -12 41t-39 12 q-48 0 -88 -63l-8 -15z" />
<glyph unicode="&#x1ebb;" horiz-adv-x="1075" d="M72 494q0 121 38 220.5t103.5 163.5t152 99t185.5 35q212 0 335.5 -147.5t127.5 -434.5h-674q11 -118 74 -176.5t151 -58.5q79 0 134.5 28t113.5 109l199 -121q-84 -126 -193 -180t-262 -54q-100 0 -186.5 32t-154 94t-106 162.5t-38.5 228.5zM315 1360l9 14 q73 146 215 146q80 0 133 -47q55 -46 55 -123q0 -68 -63 -140h-2l-52 -51q-26 -26 -39 -55l-6 -12l-127 32l4 17q11 36 31 61l21 25l20 22q45 48 45 78q0 29 -12 41t-39 12q-48 0 -88 -63l-8 -14zM346 612h395q-7 93 -62.5 145t-127.5 52q-73 0 -133 -54t-72 -143z" />
<glyph unicode="&#x1ebc;" horiz-adv-x="1200" d="M158 0v1366h938v-248h-662v-311h547v-248h-547v-311h709v-248h-985zM199 1559q37 108 104 171.5t156 63.5q37 0 80 -18.5t74.5 -40t65.5 -40t56 -18.5q38 0 72.5 39.5t54.5 89.5l139 -71q-38 -113 -104 -175.5t-156 -62.5q-37 0 -80.5 18.5t-75 40t-65 40t-55.5 18.5 q-71 0 -125 -129z" />
<glyph unicode="&#x1ebd;" horiz-adv-x="1075" d="M72 494q0 121 38 220.5t103.5 163.5t152 99t185.5 35q212 0 335.5 -147.5t127.5 -434.5h-674q11 -118 74 -176.5t151 -58.5q79 0 134.5 28t113.5 109l199 -121q-84 -126 -193 -180t-262 -54q-100 0 -186.5 32t-154 94t-106 162.5t-38.5 228.5zM135 1180q37 108 104 171.5 t156 63.5q47 0 102 -29.5t102 -58.5t73 -29q38 0 72.5 39.5t54.5 89.5l139 -71q-38 -113 -104 -175.5t-156 -62.5q-37 0 -80.5 18.5t-75 40t-65.5 40t-56 18.5q-71 0 -125 -129zM346 612h395q-7 93 -62.5 145t-127.5 52q-73 0 -133 -54t-72 -143z" />
<glyph unicode="&#x1ebe;" horiz-adv-x="1200" d="M158 0v1366h938v-248h-662v-311h547v-248h-547v-311h709v-248h-985zM276 1585l248 266h197l248 -270l-142 -86l-206 197l-207 -199zM844 1823l411 288l129 -169l-466 -230z" />
<glyph unicode="&#x1ebf;" horiz-adv-x="1075" d="M72 494q0 121 38 220.5t103.5 163.5t152 99t185.5 35q212 0 335.5 -147.5t127.5 -434.5h-674q11 -118 74 -176.5t151 -58.5q79 0 134.5 28t113.5 109l199 -121q-84 -126 -193 -180t-262 -54q-100 0 -186.5 32t-154 94t-106 162.5t-38.5 228.5zM195 1206l247 267h197 l248 -271l-142 -86l-206 197l-207 -199zM346 612h395q-7 93 -62.5 145t-127.5 52q-73 0 -133 -54t-72 -143zM772 1470l412 289l129 -170l-467 -229z" />
<glyph unicode="&#x1ec0;" horiz-adv-x="1200" d="M158 0v1366h938v-248h-662v-311h547v-248h-547v-311h709v-248h-985zM276 1585l248 266h197l248 -270l-142 -86l-206 197l-207 -199zM612 1968l129 170l412 -289l-72 -110z" />
<glyph unicode="&#x1ec1;" horiz-adv-x="1075" d="M72 494q0 121 38 220.5t103.5 163.5t152 99t185.5 35q212 0 335.5 -147.5t127.5 -434.5h-674q11 -118 74 -176.5t151 -58.5q79 0 134.5 28t113.5 109l199 -121q-84 -126 -193 -180t-262 -54q-100 0 -186.5 32t-154 94t-106 162.5t-38.5 228.5zM195 1206l247 267h197 l248 -271l-142 -86l-206 197l-207 -199zM346 612h395q-7 93 -62.5 145t-127.5 52q-73 0 -133 -54t-72 -143zM506 1614l129 170l412 -289l-72 -111z" />
<glyph unicode="&#x1ec2;" horiz-adv-x="1200" d="M158 0v1366h938v-248h-662v-311h547v-248h-547v-311h709v-248h-985zM276 1585l248 266h197l248 -270l-142 -86l-206 197l-207 -199zM766 1997l8 14q73 146 215 146q79 0 133 -48q56 -47 56 -122q0 -67 -64 -140h-2l-51 -51q-26 -26 -39 -55l-6 -12l-127 32l4 17 q11 36 31 61l20 25l21 22q45 48 45 78q0 29 -12.5 41t-39.5 12q-48 0 -88 -63l-8 -15z" />
<glyph unicode="&#x1ec3;" horiz-adv-x="1075" d="M72 494q0 121 38 220.5t103.5 163.5t152 99t185.5 35q212 0 335.5 -147.5t127.5 -434.5h-674q11 -118 74 -176.5t151 -58.5q79 0 134.5 28t113.5 109l199 -121q-84 -126 -193 -180t-262 -54q-100 0 -186.5 32t-154 94t-106 162.5t-38.5 228.5zM195 1206l247 267h197 l248 -271l-142 -86l-206 197l-207 -199zM346 612h395q-7 93 -62.5 145t-127.5 52q-73 0 -133 -54t-72 -143zM662 1649l8 14q72 145 215 145q80 0 133 -47q55 -46 55 -123q0 -67 -63 -139h-2l-52 -51q-24 -24 -38 -55l-7 -13l-127 33l4 17q11 36 31 61l21 25l20 22 q45 48 45 78q0 29 -12 41t-39 12q-48 0 -88 -63l-8 -15z" />
<glyph unicode="&#x1ec4;" horiz-adv-x="1200" d="M158 0v1366h938v-248h-662v-311h547v-248h-547v-311h709v-248h-985zM199 1985q37 108 104 171.5t156 63.5q37 0 80 -18.5t74.5 -40t65.5 -40t56 -18.5q38 0 72.5 39.5t54.5 89.5l139 -71q-38 -113 -104 -175.5t-156 -62.5q-37 0 -80.5 18.5t-75 40t-65 40t-55.5 18.5 q-71 0 -125 -129zM276 1585l248 266h197l248 -270l-142 -86l-206 197l-207 -199z" />
<glyph unicode="&#x1ec5;" horiz-adv-x="1075" d="M72 494q0 121 38 220.5t103.5 163.5t152 99t185.5 35q212 0 335.5 -147.5t127.5 -434.5h-674q11 -118 74 -176.5t151 -58.5q79 0 134.5 28t113.5 109l199 -121q-84 -126 -193 -180t-262 -54q-100 0 -186.5 32t-154 94t-106 162.5t-38.5 228.5zM135 1597q37 108 104 172 t156 64q47 0 102 -29.5t102 -58.5t73 -29q38 0 72.5 39.5t54.5 89.5l139 -71q-38 -113 -104 -175.5t-156 -62.5q-37 0 -80.5 18.5t-75 40t-65.5 40t-56 18.5q-71 0 -125 -129zM195 1206l247 267h197l248 -271l-142 -86l-206 197l-207 -199zM346 612h395q-7 93 -62.5 145 t-127.5 52q-73 0 -133 -54t-72 -143z" />
<glyph unicode="&#x1ec6;" horiz-adv-x="1200" d="M158 0v1366h938v-248h-662v-311h547v-248h-547v-311h709v-248h-985zM254 1585l248 266h196l248 -270l-141 -86l-207 197l-207 -199zM520 -260q0 61 43 104t105 43t104.5 -42.5t42.5 -104.5t-43 -105t-104 -43q-62 0 -105 43t-43 105z" />
<glyph unicode="&#x1ec7;" horiz-adv-x="1075" d="M72 494q0 121 38 220.5t103.5 163.5t152 99t185.5 35q212 0 335.5 -147.5t127.5 -434.5h-674q11 -118 74 -176.5t151 -58.5q79 0 134.5 28t113.5 109l199 -121q-84 -126 -193 -180t-262 -54q-100 0 -186.5 32t-154 94t-106 162.5t-38.5 228.5zM190 1206l248 267h197 l248 -271l-142 -86l-206 197l-207 -199zM346 612h395q-7 93 -62.5 145t-127.5 52q-73 0 -133 -54t-72 -143zM412 -262q0 62 43 104.5t104 42.5q62 0 105 -43t43 -104q0 -62 -43.5 -105t-104.5 -43t-104 43t-43 105z" />
<glyph unicode="&#x1ec8;" horiz-adv-x="591" d="M90 1724l8 15q72 145 215 145q80 0 133 -47q56 -47 56 -123q0 -66 -64 -139h-2l-51 -51q-25 -25 -39 -56l-6 -12l-127 33l4 16q12 38 31 62l20 24l21 23q45 48 45 78q0 29 -12 41t-39 12q-48 0 -88 -64l-9 -14zM158 0v1366h276v-1366h-276z" />
<glyph unicode="&#x1ec9;" horiz-adv-x="532" d="M59 1366l9 14q73 146 215 146q80 0 133 -47q55 -46 55 -123q0 -67 -63 -139h-2l-52 -52q-26 -26 -39 -55l-6 -12l-127 32l4 17q11 36 31 61l21 25l20 22q45 48 45 78q0 29 -12 41t-39 12q-48 0 -88 -63l-8 -14zM133 0v961l266 40v-1001h-266z" />
<glyph unicode="&#x1eca;" horiz-adv-x="591" d="M154 -258q0 62 43 104.5t104 42.5q62 0 105 -43t43 -104q0 -62 -43.5 -105t-104.5 -43t-104 43t-43 105zM158 0v1366h276v-1366h-276z" />
<glyph unicode="&#x1ecb;" horiz-adv-x="532" d="M106 1245q0 58 42.5 101t117.5 43t117.5 -43t42.5 -101q0 -60 -42.5 -102.5t-117.5 -42.5t-117.5 42.5t-42.5 102.5zM121 -262q0 62 42.5 104.5t104.5 42.5t105 -43t43 -104q0 -62 -43 -105t-105 -43q-61 0 -104 43t-43 105zM133 0v961l266 40v-1001h-266z" />
<glyph unicode="&#x1ecc;" horiz-adv-x="1447" d="M92 684q0 107 24.5 209t76 193.5t124.5 160t177 108.5t227 40q124 0 229 -40t179 -108.5t126 -160t76.5 -193.5t24.5 -209t-24.5 -209t-76.5 -193.5t-126 -160.5t-179 -109.5t-229 -40.5q-123 0 -227.5 40.5t-177.5 109t-124.5 160.5t-75.5 194t-24 209zM371 684 q0 -93 23 -176.5t66 -149t111 -104.5t150 -39q84 0 152.5 39t111.5 105t66.5 149.5t23.5 175.5t-23.5 175.5t-66.5 149.5t-111.5 105t-152.5 39q-109 0 -190.5 -67.5t-120.5 -172.5t-39 -229zM580 -268q0 62 43 104.5t104 42.5t104 -42.5t43 -104.5t-43 -105t-104 -43 t-104 43t-43 105z" />
<glyph unicode="&#x1ecd;" horiz-adv-x="1138" d="M72 498q0 98 31.5 188.5t91 164t156.5 117.5t218 44t218 -44t157 -117.5t91.5 -164t31.5 -188.5t-31.5 -189.5t-91.5 -166.5t-157 -120t-218 -45t-218 45t-156.5 120t-91 166.5t-31.5 189.5zM334 498q0 -131 61.5 -216t173.5 -85t174 85t62 216q0 130 -62 214.5 t-174 84.5q-111 0 -173 -84.5t-62 -214.5zM428 -256q0 62 43 104.5t104 42.5q62 0 105 -43t43 -104t-43 -104t-105 -43q-61 0 -104 42.5t-43 104.5z" />
<glyph unicode="&#x1ece;" horiz-adv-x="1447" d="M92 684q0 107 24.5 209t76 193.5t124.5 160t177 108.5t227 40q124 0 229 -40t179 -108.5t126 -160t76.5 -193.5t24.5 -209t-24.5 -209t-76.5 -193.5t-126 -160.5t-179 -109.5t-229 -40.5q-123 0 -227.5 40.5t-177.5 109t-124.5 160.5t-75.5 194t-24 209zM371 684 q0 -93 23 -176.5t66 -149t111 -104.5t150 -39q84 0 152.5 39t111.5 105t66.5 149.5t23.5 175.5t-23.5 175.5t-66.5 149.5t-111.5 105t-152.5 39q-109 0 -190.5 -67.5t-120.5 -172.5t-39 -229zM496 1731l8 14q72 145 215 145q80 0 133 -47q55 -46 55 -123q0 -67 -63 -139h-2 l-51 -51q-26 -26 -39 -55l-7 -13l-127 33l5 16q13 40 30 62l21 24l20 23q45 48 45 78q0 29 -12 41t-39 12q-48 0 -88 -63l-8 -15z" />
<glyph unicode="&#x1ecf;" horiz-adv-x="1138" d="M72 498q0 98 31.5 188.5t91 164t156.5 117.5t218 44t218 -44t157 -117.5t91.5 -164t31.5 -188.5t-31.5 -189.5t-91.5 -166.5t-157 -120t-218 -45t-218 45t-156.5 120t-91 166.5t-31.5 189.5zM334 498q0 -131 61.5 -216t173.5 -85t174 85t62 216q0 130 -62 214.5 t-174 84.5q-111 0 -173 -84.5t-62 -214.5zM385 1360l8 14q73 146 215 146q80 0 133 -47q56 -47 56 -123q0 -67 -64 -140h-2l-51 -51q-26 -26 -39 -55l-6 -12l-127 32l4 17q11 36 31 61l20 25l21 22q45 48 45 78q0 29 -12 41t-39 12q-49 0 -89 -63l-8 -14z" />
<glyph unicode="&#x1ed0;" horiz-adv-x="1447" d="M92 684q0 107 24.5 209t76 193.5t124.5 160t177 108.5t227 40q124 0 229 -40t179 -108.5t126 -160t76.5 -193.5t24.5 -209t-24.5 -209t-76.5 -193.5t-126 -160.5t-179 -109.5t-229 -40.5q-123 0 -227.5 40.5t-177.5 109t-124.5 160.5t-75.5 194t-24 209zM371 684 q0 -93 23 -176.5t66 -149t111 -104.5t150 -39q84 0 152.5 39t111.5 105t66.5 149.5t23.5 175.5t-23.5 175.5t-66.5 149.5t-111.5 105t-152.5 39q-109 0 -190.5 -67.5t-120.5 -172.5t-39 -229zM381 1585l248 266h196l248 -270l-141 -86l-207 197l-207 -199zM942 1868l412 289 l129 -170l-467 -230z" />
<glyph unicode="&#x1ed1;" horiz-adv-x="1138" d="M72 498q0 98 31.5 188.5t91 164t156.5 117.5t218 44t218 -44t157 -117.5t91.5 -164t31.5 -188.5t-31.5 -189.5t-91.5 -166.5t-157 -120t-218 -45t-218 45t-156.5 120t-91 166.5t-31.5 189.5zM229 1206l248 267h197l248 -271l-142 -86l-207 197l-206 -199zM334 498 q0 -131 61.5 -216t173.5 -85t174 85t62 216q0 130 -62 214.5t-174 84.5q-111 0 -173 -84.5t-62 -214.5zM780 1462l412 289l129 -170l-467 -229z" />
<glyph unicode="&#x1ed2;" horiz-adv-x="1447" d="M92 684q0 107 24.5 209t76 193.5t124.5 160t177 108.5t227 40q124 0 229 -40t179 -108.5t126 -160t76.5 -193.5t24.5 -209t-24.5 -209t-76.5 -193.5t-126 -160.5t-179 -109.5t-229 -40.5q-123 0 -227.5 40.5t-177.5 109t-124.5 160.5t-75.5 194t-24 209zM371 684 q0 -93 23 -176.5t66 -149t111 -104.5t150 -39q84 0 152.5 39t111.5 105t66.5 149.5t23.5 175.5t-23.5 175.5t-66.5 149.5t-111.5 105t-152.5 39q-109 0 -190.5 -67.5t-120.5 -172.5t-39 -229zM381 1585l248 266h196l248 -270l-141 -86l-207 197l-207 -199zM735 1985l129 169 l412 -288l-72 -111z" />
<glyph unicode="&#x1ed3;" horiz-adv-x="1138" d="M72 498q0 98 31.5 188.5t91 164t156.5 117.5t218 44t218 -44t157 -117.5t91.5 -164t31.5 -188.5t-31.5 -189.5t-91.5 -166.5t-157 -120t-218 -45t-218 45t-156.5 120t-91 166.5t-31.5 189.5zM229 1206l248 267h197l248 -271l-142 -86l-207 197l-206 -199zM334 498 q0 -131 61.5 -216t173.5 -85t174 85t62 216q0 130 -62 214.5t-174 84.5q-111 0 -173 -84.5t-62 -214.5zM526 1624l129 170l412 -289l-72 -110z" />
<glyph unicode="&#x1ed4;" horiz-adv-x="1447" d="M92 684q0 107 24.5 209t76 193.5t124.5 160t177 108.5t227 40q124 0 229 -40t179 -108.5t126 -160t76.5 -193.5t24.5 -209t-24.5 -209t-76.5 -193.5t-126 -160.5t-179 -109.5t-229 -40.5q-123 0 -227.5 40.5t-177.5 109t-124.5 160.5t-75.5 194t-24 209zM371 684 q0 -93 23 -176.5t66 -149t111 -104.5t150 -39q84 0 152.5 39t111.5 105t66.5 149.5t23.5 175.5t-23.5 175.5t-66.5 149.5t-111.5 105t-152.5 39q-109 0 -190.5 -67.5t-120.5 -172.5t-39 -229zM381 1585l248 266h196l248 -270l-141 -86l-207 197l-207 -199zM874 2023l9 15 q73 145 215 145q80 0 133 -47q55 -46 55 -123q0 -67 -63 -139h-2l-52 -51q-25 -25 -39 -56l-6 -12l-127 33l4 16q12 38 31 62l21 24l20 23q45 48 45 78q0 29 -12 41t-39 12q-48 0 -88 -64l-8 -14z" />
<glyph unicode="&#x1ed5;" horiz-adv-x="1138" d="M72 498q0 98 31.5 188.5t91 164t156.5 117.5t218 44t218 -44t157 -117.5t91.5 -164t31.5 -188.5t-31.5 -189.5t-91.5 -166.5t-157 -120t-218 -45t-218 45t-156.5 120t-91 166.5t-31.5 189.5zM229 1206l248 267h197l248 -271l-142 -86l-207 197l-206 -199zM334 498 q0 -131 61.5 -216t173.5 -85t174 85t62 216q0 130 -62 214.5t-174 84.5q-111 0 -173 -84.5t-62 -214.5zM700 1620l9 14q73 146 215 146q80 0 133 -47q55 -46 55 -123q0 -68 -63 -140h-2l-52 -51q-26 -26 -39 -55l-6 -12l-127 32l4 17q11 36 31 61l21 25l20 22q45 48 45 78 q0 29 -12 41t-39 12q-48 0 -88 -63l-8 -14z" />
<glyph unicode="&#x1ed6;" horiz-adv-x="1447" d="M92 684q0 107 24.5 209t76 193.5t124.5 160t177 108.5t227 40q124 0 229 -40t179 -108.5t126 -160t76.5 -193.5t24.5 -209t-24.5 -209t-76.5 -193.5t-126 -160.5t-179 -109.5t-229 -40.5q-123 0 -227.5 40.5t-177.5 109t-124.5 160.5t-75.5 194t-24 209zM322 1978 q37 108 104 172t156 64q37 0 80 -18.5t74.5 -40t65.5 -40t56 -18.5q38 0 72.5 39.5t54.5 89.5l139 -72q-38 -113 -104 -175t-156 -62q-37 0 -80.5 18.5t-74.5 40t-65 40t-56 18.5q-71 0 -125 -129zM371 684q0 -93 23 -176.5t66 -149t111 -104.5t150 -39q84 0 152.5 39 t111.5 105t66.5 149.5t23.5 175.5t-23.5 175.5t-66.5 149.5t-111.5 105t-152.5 39q-109 0 -190.5 -67.5t-120.5 -172.5t-39 -229zM381 1585l248 266h196l248 -270l-141 -86l-207 197l-207 -199z" />
<glyph unicode="&#x1ed7;" horiz-adv-x="1138" d="M72 498q0 98 31.5 188.5t91 164t156.5 117.5t218 44t218 -44t157 -117.5t91.5 -164t31.5 -188.5t-31.5 -189.5t-91.5 -166.5t-157 -120t-218 -45t-218 45t-156.5 120t-91 166.5t-31.5 189.5zM180 1585q37 108 104 172t156 64q47 0 102 -29.5t102 -58.5t73 -29 q38 0 72.5 39.5t54.5 89.5l139 -72q-38 -113 -104 -175t-156 -62q-47 0 -102.5 29t-102 58t-72.5 29q-70 0 -124 -129zM229 1206l248 267h197l248 -271l-142 -86l-207 197l-206 -199zM334 498q0 -131 61.5 -216t173.5 -85t174 85t62 216q0 130 -62 214.5t-174 84.5 q-111 0 -173 -84.5t-62 -214.5z" />
<glyph unicode="&#x1ed8;" horiz-adv-x="1447" d="M92 684q0 107 24.5 209t76 193.5t124.5 160t177 108.5t227 40q124 0 229 -40t179 -108.5t126 -160t76.5 -193.5t24.5 -209t-24.5 -209t-76.5 -193.5t-126 -160.5t-179 -109.5t-229 -40.5q-123 0 -227.5 40.5t-177.5 109t-124.5 160.5t-75.5 194t-24 209zM371 684 q0 -93 23 -176.5t66 -149t111 -104.5t150 -39q84 0 152.5 39t111.5 105t66.5 149.5t23.5 175.5t-23.5 175.5t-66.5 149.5t-111.5 105t-152.5 39q-109 0 -190.5 -67.5t-120.5 -172.5t-39 -229zM377 1585l248 266h196l248 -270l-141 -86l-207 197l-207 -199zM575 -262 q0 61 43 104t105 43q61 0 104 -42.5t43 -104.5t-43 -105t-104 -43t-104.5 43t-43.5 105z" />
<glyph unicode="&#x1ed9;" horiz-adv-x="1138" d="M72 498q0 98 31.5 188.5t91 164t156.5 117.5t218 44t218 -44t157 -117.5t91.5 -164t31.5 -188.5t-31.5 -189.5t-91.5 -166.5t-157 -120t-218 -45t-218 45t-156.5 120t-91 166.5t-31.5 189.5zM223 1206l248 267h197l247 -271l-141 -86l-207 197l-207 -199zM334 498 q0 -131 61.5 -216t173.5 -85t174 85t62 216q0 130 -62 214.5t-174 84.5q-111 0 -173 -84.5t-62 -214.5zM428 -266q0 62 43 104.5t104 42.5q62 0 105 -43t43 -104q0 -62 -43.5 -105t-104.5 -43t-104 43t-43 105z" />
<glyph unicode="&#x1eda;" horiz-adv-x="1447" d="M90 688q0 107 24.5 209t76 193.5t124.5 160t177 108.5t227 40q181 0 325 -88q19 7 43 28q16 13 39 43q9 13 13 21q10 17 16 49l2 16h197l-2 -24q-3 -85 -39 -148q-36 -59 -90 -104l-2 -2q-1 -1 -3.5 -2t-3.5 -2l-18 -12q77 -98 117.5 -225t40.5 -261q0 -107 -24.5 -209 t-76.5 -193.5t-126 -160.5t-179 -109.5t-229 -40.5q-123 0 -227.5 40.5t-177.5 109t-124.5 160.5t-75.5 194t-24 209zM369 688q0 -93 23 -176.5t66 -149t111 -104.5t150 -39q84 0 152.5 39t111.5 105t66.5 149.5t23.5 175.5t-23.5 175.5t-66.5 149.5t-111.5 105t-152.5 39 q-109 0 -190.5 -67.5t-120.5 -172.5t-39 -229zM453 1591l411 289l129 -170l-467 -229z" />
<glyph unicode="&#x1edb;" horiz-adv-x="1138" d="M68 496q0 98 31.5 188.5t91 164t156.5 117.5t218 44q154 0 269 -72q22 10 47 25q26 21 45 49l2 2q16 25 24 71l2 15h162v-17q-3 -87 -37 -145q-33 -57 -84 -98v-2q-30 -18 -32 -19q100 -135 100 -323q0 -98 -31.5 -189.5t-91.5 -166.5t-157 -120t-218 -45t-218 45 t-156.5 120t-91 166.5t-31.5 189.5zM299 1212l412 289l129 -170l-467 -229zM330 496q0 -131 61.5 -216t173.5 -85t174 85t62 216q0 130 -62 214.5t-174 84.5q-111 0 -173 -84.5t-62 -214.5z" />
<glyph unicode="&#x1edc;" horiz-adv-x="1447" d="M90 688q0 107 24.5 209t76 193.5t124.5 160t177 108.5t227 40q181 0 325 -88q19 7 43 28q16 13 39 43q9 13 13 21q10 17 16 49l2 16h197l-2 -24q-3 -85 -39 -148q-36 -59 -90 -104l-2 -2q-1 -1 -3.5 -2t-3.5 -2l-18 -12q77 -98 117.5 -225t40.5 -261q0 -107 -24.5 -209 t-76.5 -193.5t-126 -160.5t-179 -109.5t-229 -40.5q-123 0 -227.5 40.5t-177.5 109t-124.5 160.5t-75.5 194t-24 209zM369 688q0 -93 23 -176.5t66 -149t111 -104.5t150 -39q84 0 152.5 39t111.5 105t66.5 149.5t23.5 175.5t-23.5 175.5t-66.5 149.5t-111.5 105t-152.5 39 q-109 0 -190.5 -67.5t-120.5 -172.5t-39 -229zM453 1710l129 170l411 -289l-71 -110z" />
<glyph unicode="&#x1edd;" horiz-adv-x="1138" d="M68 496q0 98 31.5 188.5t91 164t156.5 117.5t218 44q154 0 269 -72q22 10 47 25q26 21 45 49l2 2q16 25 24 71l2 15h162v-17q-3 -87 -37 -145q-33 -57 -84 -98v-2q-30 -18 -32 -19q100 -135 100 -323q0 -98 -31.5 -189.5t-91.5 -166.5t-157 -120t-218 -45t-218 45 t-156.5 120t-91 166.5t-31.5 189.5zM299 1331l129 170l412 -289l-72 -110zM330 496q0 -131 61.5 -216t173.5 -85t174 85t62 216q0 130 -62 214.5t-174 84.5q-111 0 -173 -84.5t-62 -214.5z" />
<glyph unicode="&#x1ede;" horiz-adv-x="1447" d="M90 688q0 107 24.5 209t76 193.5t124.5 160t177 108.5t227 40q181 0 325 -88q19 7 43 28q16 13 39 43q9 13 13 21q10 17 16 49l2 16h197l-2 -24q-3 -85 -39 -148q-36 -59 -90 -104l-2 -2q-1 -1 -3.5 -2t-3.5 -2l-18 -12q77 -98 117.5 -225t40.5 -261q0 -107 -24.5 -209 t-76.5 -193.5t-126 -160.5t-179 -109.5t-229 -40.5q-123 0 -227.5 40.5t-177.5 109t-124.5 160.5t-75.5 194t-24 209zM369 688q0 -93 23 -176.5t66 -149t111 -104.5t150 -39q84 0 152.5 39t111.5 105t66.5 149.5t23.5 175.5t-23.5 175.5t-66.5 149.5t-111.5 105t-152.5 39 q-109 0 -190.5 -67.5t-120.5 -172.5t-39 -229zM508 1731l8 14q72 145 215 145q80 0 133 -47q56 -47 56 -123q0 -66 -64 -139h-2l-51 -51q-26 -26 -39 -55l-6 -13l-127 33l4 16q12 38 31 62l20 24l21 23q45 48 45 78q0 29 -12.5 41t-39.5 12q-48 0 -88 -63l-8 -15z" />
<glyph unicode="&#x1edf;" horiz-adv-x="1138" d="M68 496q0 98 31.5 188.5t91 164t156.5 117.5t218 44q154 0 269 -72q22 10 47 25q26 21 45 49l2 2q16 25 24 71l2 15h162v-17q-3 -87 -37 -145q-33 -57 -84 -98v-2q-30 -18 -32 -19q100 -135 100 -323q0 -98 -31.5 -189.5t-91.5 -166.5t-157 -120t-218 -45t-218 45 t-156.5 120t-91 166.5t-31.5 189.5zM330 496q0 -131 61.5 -216t173.5 -85t174 85t62 216q0 130 -62 214.5t-174 84.5q-111 0 -173 -84.5t-62 -214.5zM369 1360l8 14q73 146 215 146q80 0 133 -47q55 -46 55 -123q0 -68 -63 -140h-2l-51 -51q-26 -26 -39 -55l-7 -12l-126 32 l4 17q12 38 30 61l21 25l20 22q45 48 45 78q0 29 -12 41t-39 12q-48 0 -88 -63l-8 -14z" />
<glyph unicode="&#x1ee0;" horiz-adv-x="1447" d="M90 688q0 107 24.5 209t76 193.5t124.5 160t177 108.5t227 40q181 0 325 -88q19 7 43 28q16 13 39 43q9 13 13 21q10 17 16 49l2 16h197l-2 -24q-3 -85 -39 -148q-36 -59 -90 -104l-2 -2q-1 -1 -3.5 -2t-3.5 -2l-18 -12q77 -98 117.5 -225t40.5 -261q0 -107 -24.5 -209 t-76.5 -193.5t-126 -160.5t-179 -109.5t-229 -40.5q-123 0 -227.5 40.5t-177.5 109t-124.5 160.5t-75.5 194t-24 209zM322 1559q37 108 104 171.5t156 63.5q37 0 80 -18.5t74.5 -40t65.5 -40t56 -18.5q38 0 72.5 39.5t54.5 89.5l139 -71q-38 -113 -104 -175.5t-156 -62.5 q-37 0 -80.5 18.5t-74.5 40t-65 40t-56 18.5q-71 0 -125 -129zM369 688q0 -93 23 -176.5t66 -149t111 -104.5t150 -39q84 0 152.5 39t111.5 105t66.5 149.5t23.5 175.5t-23.5 175.5t-66.5 149.5t-111.5 105t-152.5 39q-109 0 -190.5 -67.5t-120.5 -172.5t-39 -229z" />
<glyph unicode="&#x1ee1;" horiz-adv-x="1138" d="M68 496q0 98 31.5 188.5t91 164t156.5 117.5t218 44q154 0 269 -72q22 10 47 25q26 21 45 49l2 2q16 25 24 71l2 15h162v-17q-3 -87 -37 -145q-33 -57 -84 -98v-2q-30 -18 -32 -19q100 -135 100 -323q0 -98 -31.5 -189.5t-91.5 -166.5t-157 -120t-218 -45t-218 45 t-156.5 120t-91 166.5t-31.5 189.5zM168 1180q37 108 104 171.5t156 63.5q47 0 102 -29.5t102 -58.5t73 -29q38 0 72 39t54 90l140 -71q-38 -113 -104 -175.5t-156 -62.5q-37 0 -80.5 18.5t-75 40t-65.5 40t-56 18.5q-71 0 -125 -129zM330 496q0 -131 61.5 -216t173.5 -85 t174 85t62 216q0 130 -62 214.5t-174 84.5q-111 0 -173 -84.5t-62 -214.5z" />
<glyph unicode="&#x1ee2;" horiz-adv-x="1447" d="M90 688q0 107 24.5 209t76 193.5t124.5 160t177 108.5t227 40q181 0 325 -88q19 7 43 28q16 13 39 43q9 13 13 21q10 17 16 49l2 16h197l-2 -24q-3 -85 -39 -148q-36 -59 -90 -104l-2 -2q-1 -1 -3.5 -2t-3.5 -2l-18 -12q77 -98 117.5 -225t40.5 -261q0 -107 -24.5 -209 t-76.5 -193.5t-126 -160.5t-179 -109.5t-229 -40.5q-123 0 -227.5 40.5t-177.5 109t-124.5 160.5t-75.5 194t-24 209zM369 688q0 -93 23 -176.5t66 -149t111 -104.5t150 -39q84 0 152.5 39t111.5 105t66.5 149.5t23.5 175.5t-23.5 175.5t-66.5 149.5t-111.5 105t-152.5 39 q-109 0 -190.5 -67.5t-120.5 -172.5t-39 -229zM575 -266q0 61 43 104t105 43q61 0 104 -42.5t43 -104.5t-43 -105t-104 -43t-104.5 43t-43.5 105z" />
<glyph unicode="&#x1ee3;" horiz-adv-x="1138" d="M68 496q0 98 31.5 188.5t91 164t156.5 117.5t218 44q154 0 269 -72q22 10 47 25q26 21 45 49l2 2q16 25 24 71l2 15h162v-17q-3 -87 -37 -145q-33 -57 -84 -98v-2q-30 -18 -32 -19q100 -135 100 -323q0 -98 -31.5 -189.5t-91.5 -166.5t-157 -120t-218 -45t-218 45 t-156.5 120t-91 166.5t-31.5 189.5zM330 496q0 -131 61.5 -216t173.5 -85t174 85t62 216q0 130 -62 214.5t-174 84.5q-111 0 -173 -84.5t-62 -214.5zM438 -256q0 61 43 104t105 43t104.5 -42.5t42.5 -104.5t-42.5 -104.5t-104.5 -42.5t-105 43t-43 104z" />
<glyph unicode="&#x1ee4;" horiz-adv-x="1406" d="M150 469v897h276v-870q0 -126 73.5 -203.5t205.5 -77.5t204 77t72 204v870h276v-897q0 -151 -74.5 -266t-200 -173.5t-280.5 -58.5q-154 0 -278.5 58.5t-199 173.5t-74.5 266zM557 -258q0 61 43 104t105 43q61 0 104 -42.5t43 -104.5t-43 -105t-104 -43t-104.5 43 t-43.5 105z" />
<glyph unicode="&#x1ee5;" horiz-adv-x="1185" d="M127 399v562l268 40v-575q0 -120 36 -176.5t136 -56.5q48 0 94 17t69.5 32.5t53.5 40.5v704h269v-987h-246l-10 78q-124 -98 -297 -98q-188 0 -280.5 111t-92.5 308zM440 -254q0 62 43 105t105 43q61 0 104 -43t43 -105t-42.5 -104.5t-104.5 -42.5t-105 43t-43 104z" />
<glyph unicode="&#x1ee6;" horiz-adv-x="1406" d="M150 469v897h276v-870q0 -126 73.5 -203.5t205.5 -77.5t204 77t72 204v870h276v-897q0 -151 -74.5 -266t-200 -173.5t-280.5 -58.5q-154 0 -278.5 58.5t-199 173.5t-74.5 266zM479 1731l8 14q73 145 215 145q81 0 134 -47q55 -46 55 -123q0 -66 -64 -139h-2l-51 -51 q-26 -26 -39 -55l-6 -13l-127 33l4 16q12 38 31 62l20 24l21 23q45 48 45 78q0 29 -12 41t-39 12q-48 0 -88 -63l-9 -15z" />
<glyph unicode="&#x1ee7;" horiz-adv-x="1185" d="M127 399v562l268 40v-575q0 -120 36 -176.5t136 -56.5q48 0 94 17t69.5 32.5t53.5 40.5v704h269v-987h-246l-10 78q-124 -98 -297 -98q-188 0 -280.5 111t-92.5 308zM365 1360l8 14q73 146 215 146q80 0 133 -47q55 -46 55 -123q0 -68 -63 -140h-2l-52 -51 q-24 -24 -38 -55l-7 -12l-127 32l5 17q12 38 30 61l21 25l20 22q45 48 45 78q0 29 -12 41t-39 12q-48 0 -88 -63l-8 -14z" />
<glyph unicode="&#x1ee8;" horiz-adv-x="1406" d="M145 467v897h277v-870q0 -126 73 -203.5t205 -77.5t204.5 77.5t72.5 203.5v870h276q25 3 56 22q6 6 16 11q22 16 35 35l12 18q6 15 12 45v2l2 14h191v-24q-3 -79 -39 -144q-41 -63 -90 -102l-2 -2h-2q-25 -19 -60 -31q-2 -2 -14.5 -7t-41.5 -14t-62 -16l-13 -2v-702 q0 -151 -74.5 -266t-200 -173.5t-280.5 -58.5q-154 0 -279 58.5t-199.5 173.5t-74.5 266zM432 1591l412 289l129 -170l-467 -229z" />
<glyph unicode="&#x1ee9;" horiz-adv-x="1185" d="M125 397v561l268 41v-575q0 -120 36 -177t136 -57q48 0 94.5 17.5t69 33t53.5 40.5v704h269q20 6 49 25q26 21 45 49l2 2q15 25 24 72l3 14h161v-17q-3 -87 -37 -145q-33 -57 -84 -98v-2q-39 -24 -55 -31q-34 -19 -108 -35v-821h-246l-10 78q-125 -99 -297 -99 q-188 0 -280.5 111.5t-92.5 308.5zM322 1212l411 289l129 -170l-467 -229z" />
<glyph unicode="&#x1eea;" horiz-adv-x="1406" d="M145 467v897h277v-870q0 -126 73 -203.5t205 -77.5t204.5 77.5t72.5 203.5v870h276q25 3 56 22q6 6 16 11q22 16 35 35l12 18q6 15 12 45v2l2 14h191v-24q-3 -79 -39 -144q-41 -63 -90 -102l-2 -2h-2q-25 -19 -60 -31q-2 -2 -14.5 -7t-41.5 -14t-62 -16l-13 -2v-702 q0 -151 -74.5 -266t-200 -173.5t-280.5 -58.5q-154 0 -279 58.5t-199.5 173.5t-74.5 266zM432 1710l129 170l412 -289l-72 -110z" />
<glyph unicode="&#x1eeb;" horiz-adv-x="1185" d="M125 397v561l268 41v-575q0 -120 36 -177t136 -57q48 0 94.5 17.5t69 33t53.5 40.5v704h269q20 6 49 25q26 21 45 49l2 2q15 25 24 72l3 14h161v-17q-3 -87 -37 -145q-33 -57 -84 -98v-2q-39 -24 -55 -31q-34 -19 -108 -35v-821h-246l-10 78q-125 -99 -297 -99 q-188 0 -280.5 111.5t-92.5 308.5zM322 1331l129 170l411 -289l-71 -110z" />
<glyph unicode="&#x1eec;" horiz-adv-x="1406" d="M145 467v897h277v-870q0 -126 73 -203.5t205 -77.5t204.5 77.5t72.5 203.5v870h276q25 3 56 22q6 6 16 11q22 16 35 35l12 18q6 15 12 45v2l2 14h191v-24q-3 -79 -39 -144q-41 -63 -90 -102l-2 -2h-2q-25 -19 -60 -31q-2 -2 -14.5 -7t-41.5 -14t-62 -16l-13 -2v-702 q0 -151 -74.5 -266t-200 -173.5t-280.5 -58.5q-154 0 -279 58.5t-199.5 173.5t-74.5 266zM487 1731l9 14q72 145 215 145q80 0 133 -47q55 -46 55 -123q0 -67 -63 -139h-2l-52 -51q-26 -26 -39 -55l-6 -13l-127 33l4 16q12 38 31 62l21 24l20 23q45 48 45 78q0 29 -12 41 t-39 12q-48 0 -88 -63l-8 -15z" />
<glyph unicode="&#x1eed;" horiz-adv-x="1185" d="M125 397v561l268 41v-575q0 -120 36 -177t136 -57q48 0 94.5 17.5t69 33t53.5 40.5v704h269q20 6 49 25q26 21 45 49l2 2q15 25 24 72l3 14h161v-17q-3 -87 -37 -145q-33 -57 -84 -98v-2q-39 -24 -55 -31q-34 -19 -108 -35v-821h-246l-10 78q-125 -99 -297 -99 q-188 0 -280.5 111.5t-92.5 308.5zM371 1339l8 15q73 145 215 145q80 0 133 -47q55 -46 55 -123q0 -67 -63 -139h-2l-51 -51q-25 -25 -39 -56l-6 -12l-127 33l4 16q13 40 30 62l21 24l20 23q45 48 45 78q0 29 -12 41t-39 12q-48 0 -88 -64l-8 -14z" />
<glyph unicode="&#x1eee;" horiz-adv-x="1406" d="M145 467v897h277v-870q0 -126 73 -203.5t205 -77.5t204.5 77.5t72.5 203.5v870h276q25 3 56 22q6 6 16 11q22 16 35 35l12 18q6 15 12 45v2l2 14h191v-24q-3 -79 -39 -144q-41 -63 -90 -102l-2 -2h-2q-25 -19 -60 -31q-2 -2 -14.5 -7t-41.5 -14t-62 -16l-13 -2v-702 q0 -151 -74.5 -266t-200 -173.5t-280.5 -58.5q-154 0 -279 58.5t-199.5 173.5t-74.5 266zM301 1559q37 108 104 171.5t156 63.5q37 0 80 -18.5t75 -40t66 -40t56 -18.5q38 0 72.5 39.5t54.5 89.5l139 -71q-38 -113 -104 -175.5t-156 -62.5q-47 0 -102.5 29.5t-102 58.5 t-72.5 29q-71 0 -125 -129z" />
<glyph unicode="&#x1eef;" horiz-adv-x="1185" d="M125 397v561l268 41v-575q0 -120 36 -177t136 -57q48 0 94.5 17.5t69 33t53.5 40.5v704h269q20 6 49 25q26 21 45 49l2 2q15 25 24 72l3 14h161v-17q-3 -87 -37 -145q-33 -57 -84 -98v-2q-39 -24 -55 -31q-34 -19 -108 -35v-821h-246l-10 78q-125 -99 -297 -99 q-188 0 -280.5 111.5t-92.5 308.5zM190 1180q37 108 104.5 171.5t156.5 63.5q47 0 102 -29.5t101.5 -58.5t72.5 -29q38 0 72.5 39.5t54.5 89.5l139 -71q-38 -113 -104 -175.5t-156 -62.5q-37 0 -80.5 18.5t-75 40t-65 40t-55.5 18.5q-71 0 -125 -129z" />
<glyph unicode="&#x1ef0;" horiz-adv-x="1406" d="M145 467v897h277v-870q0 -126 73 -203.5t205 -77.5t204.5 77.5t72.5 203.5v870h276q25 3 56 22q6 6 16 11q22 16 35 35l12 18q6 15 12 45v2l2 14h191v-24q-3 -79 -39 -144q-41 -63 -90 -102l-2 -2h-2q-25 -19 -60 -31q-2 -2 -14.5 -7t-41.5 -14t-62 -16l-13 -2v-702 q0 -151 -74.5 -266t-200 -173.5t-280.5 -58.5q-154 0 -279 58.5t-199.5 173.5t-74.5 266zM565 -258q0 61 43 104t105 43q61 0 104 -42.5t43 -104.5t-43 -105t-104 -43t-104.5 43t-43.5 105z" />
<glyph unicode="&#x1ef1;" horiz-adv-x="1185" d="M125 397v561l268 41v-575q0 -120 36 -177t136 -57q48 0 94.5 17.5t69 33t53.5 40.5v704h269q20 6 49 25q26 21 45 49l2 2q15 25 24 72l3 14h161v-17q-3 -87 -37 -145q-33 -57 -84 -98v-2q-39 -24 -55 -31q-34 -19 -108 -35v-821h-246l-10 78q-125 -99 -297 -99 q-188 0 -280.5 111.5t-92.5 308.5zM436 -260q0 61 43 104t105 43t104.5 -42.5t42.5 -104.5t-43 -105t-104 -43q-62 0 -105 43t-43 105z" />
<glyph unicode="&#x1ef2;" horiz-adv-x="1189" d="M0 1366h307l297 -543l283 543h303l-453 -817v-549h-276v549zM303 1710l129 170l412 -289l-72 -110z" />
<glyph unicode="&#x1ef3;" horiz-adv-x="1058" d="M0 987h285l258 -674l245 674h271l-512 -1220q-73 -179 -283 -179q-121 0 -250 56l84 190q71 -35 142 -35q60 0 94 72l76 170zM203 1331l129 170l411 -289l-71 -110z" />
<glyph unicode="&#x1ef4;" horiz-adv-x="1189" d="M0 1366h307l297 -543l283 543h303l-453 -817v-549h-276v549zM451 -258q0 62 42.5 104.5t104.5 42.5t104.5 -42.5t42.5 -104.5t-43 -105t-104 -43t-104 43t-43 105z" />
<glyph unicode="&#x1ef5;" horiz-adv-x="1058" d="M0 987h285l258 -674l245 674h271l-512 -1220q-73 -179 -283 -179q-121 0 -250 56l84 190q71 -35 142 -35q60 0 94 72l76 170zM596 -268q0 62 43 104.5t104 42.5q62 0 105 -43t43 -104q0 -62 -43.5 -105t-104.5 -43t-104 43t-43 105z" />
<glyph unicode="&#x1ef6;" horiz-adv-x="1189" d="M0 1366h307l297 -543l283 543h303l-453 -817v-549h-276v549zM389 1720l8 15q73 145 215 145q80 0 133 -47q56 -47 56 -123q0 -66 -64 -139h-2l-51 -51q-25 -25 -39 -56l-6 -12l-127 33l4 16q12 38 31 62l20 24l21 23q45 48 45 78q0 29 -12 41t-39 12q-48 0 -88 -64 l-9 -14z" />
<glyph unicode="&#x1ef7;" horiz-adv-x="1058" d="M0 987h285l258 -674l245 674h271l-512 -1220q-73 -179 -283 -179q-121 0 -250 56l84 190q71 -35 142 -35q60 0 94 72l76 170zM303 1360l8 14q73 146 215 146q80 0 133 -47q56 -47 56 -123q0 -67 -64 -140h-2l-51 -51q-26 -26 -39 -55l-6 -12l-127 32l4 17q11 36 31 61 l20 25l21 22q45 48 45 78q0 29 -12 41t-39 12q-48 0 -88 -63l-9 -14z" />
<glyph unicode="&#x1ef8;" horiz-adv-x="1189" d="M0 1366h307l297 -543l283 543h303l-453 -817v-549h-276v549zM193 1559q37 108 104 171.5t156 63.5q37 0 80 -18.5t74.5 -40t65.5 -40t56 -18.5q38 0 72.5 39.5t54.5 89.5l139 -71q-38 -113 -104 -175.5t-156 -62.5q-37 0 -80.5 18.5t-75 40t-65 40t-55.5 18.5 q-71 0 -125 -129z" />
<glyph unicode="&#x1ef9;" horiz-adv-x="1058" d="M0 987h285l258 -674l245 674h271l-512 -1220q-73 -179 -283 -179q-121 0 -250 56l84 190q71 -35 142 -35q60 0 94 72l76 170zM127 1180q37 108 104 171.5t156 63.5q47 0 102 -29.5t102 -58.5t73 -29q38 0 72.5 39.5t54.5 89.5l139 -71q-38 -113 -104 -175.5t-156 -62.5 q-37 0 -80.5 18.5t-75 40t-65.5 40t-56 18.5q-71 0 -125 -129z" />
<glyph unicode="&#x2000;" horiz-adv-x="1134" />
<glyph unicode="&#x2001;" horiz-adv-x="2269" />
<glyph unicode="&#x2002;" horiz-adv-x="1134" />
<glyph unicode="&#x2003;" horiz-adv-x="2269" />
<glyph unicode="&#x2004;" horiz-adv-x="756" />
<glyph unicode="&#x2005;" horiz-adv-x="567" />
<glyph unicode="&#x2006;" horiz-adv-x="378" />
<glyph unicode="&#x2007;" horiz-adv-x="378" />
<glyph unicode="&#x2008;" horiz-adv-x="283" />
<glyph unicode="&#x2009;" horiz-adv-x="453" />
<glyph unicode="&#x200a;" horiz-adv-x="126" />
<glyph unicode="&#x2010;" horiz-adv-x="675" d="M78 436v226h520v-226h-520z" />
<glyph unicode="&#x2011;" horiz-adv-x="675" d="M78 436v226h520v-226h-520z" />
<glyph unicode="&#x2012;" horiz-adv-x="675" d="M78 436v226h520v-226h-520z" />
<glyph unicode="&#x2013;" horiz-adv-x="1024" d="M0 436v226h1024v-226h-1024z" />
<glyph unicode="&#x2014;" horiz-adv-x="1380" d="M0 436v226h1380v-226h-1380z" />
<glyph unicode="&#x2018;" horiz-adv-x="471" d="M72 1020q0 92 69.5 185t214.5 167l58 -98q-45 -21 -83.5 -52.5t-51.5 -60.5q42 -23 67 -67t25 -95q0 -68 -41 -111.5t-107 -43.5q-67 0 -109 51t-42 125z" />
<glyph unicode="&#x2019;" horiz-adv-x="471" d="M57 942q45 21 84 52.5t52 60.5q-40 17 -66.5 64t-26.5 98q0 64 39.5 109.5t108.5 45.5q66 0 108.5 -51t42.5 -125q0 -92 -69.5 -185t-214.5 -167z" />
<glyph unicode="&#x201a;" horiz-adv-x="471" d="M57 -156q45 21 84 52.5t52 60.5q-40 17 -66.5 64t-26.5 98q0 64 39.5 109.5t108.5 45.5q66 0 108.5 -51t42.5 -125q0 -92 -69.5 -185t-214.5 -167z" />
<glyph unicode="&#x201c;" horiz-adv-x="876" d="M72 1020q0 92 69.5 185t214.5 167l58 -98q-45 -21 -83.5 -52.5t-51.5 -60.5q42 -23 67 -67t25 -95q0 -68 -41 -111.5t-107 -43.5q-67 0 -109 51t-42 125zM477 1020q0 92 70 185t215 167l57 -98q-45 -21 -83.5 -52.5t-51.5 -60.5q42 -23 67 -67t25 -95q0 -68 -40.5 -111.5 t-106.5 -43.5q-67 0 -109.5 51t-42.5 125z" />
<glyph unicode="&#x201d;" horiz-adv-x="876" d="M57 942q45 21 84 52.5t52 60.5q-40 17 -66.5 64t-26.5 98q0 64 39.5 109.5t108.5 45.5q66 0 108.5 -51t42.5 -125q0 -92 -69.5 -185t-214.5 -167zM463 942q45 21 83.5 52.5t51.5 60.5q-40 17 -66 64t-26 98q0 64 39 109.5t108 45.5q66 0 109 -51.5t43 -124.5 q0 -92 -70 -185t-215 -167z" />
<glyph unicode="&#x201e;" horiz-adv-x="876" d="M57 -156q45 21 84 52.5t52 60.5q-40 17 -66.5 64t-26.5 98q0 64 39.5 109.5t108.5 45.5q66 0 108.5 -51t42.5 -125q0 -92 -69.5 -185t-214.5 -167zM463 -156q45 21 83.5 52.5t51.5 60.5q-40 17 -66 64t-26 98q0 64 39 109.5t108 45.5q66 0 109 -51.5t43 -124.5 q0 -92 -70 -185t-215 -167z" />
<glyph unicode="&#x2026;" horiz-adv-x="1406" d="M78 125q0 62 39 105.5t112 43.5q70 0 109 -44t39 -105q0 -60 -38.5 -104t-109.5 -44q-73 0 -112 43.5t-39 104.5zM553 125q0 62 39 105.5t113 43.5q70 0 108.5 -44t38.5 -105t-38 -104.5t-109 -43.5q-73 0 -112.5 43.5t-39.5 104.5zM1030 125q0 62 39 105.5t113 43.5 q70 0 108.5 -44t38.5 -105t-38 -104.5t-109 -43.5q-73 0 -112.5 43.5t-39.5 104.5z" />
<glyph unicode="&#x202f;" horiz-adv-x="453" />
<glyph unicode="&#x2039;" horiz-adv-x="708" d="M31 512l424 434l176 -139l-293 -283l321 -276l-163 -156z" />
<glyph unicode="&#x203a;" horiz-adv-x="708" d="M49 248l322 276l-293 283l176 139l424 -434l-465 -420z" />
<glyph unicode="&#x205f;" horiz-adv-x="567" />
<glyph unicode="&#x20ac;" d="M29 481v137h127v119h-127v137h141q17 111 53.5 200.5t96.5 159.5t150 108t204 38q163 0 265.5 -73t168.5 -234l-234 -90q-64 158 -190 158q-175 0 -215 -267h365v-137h-377v-119h377v-137h-365q41 -268 225 -268q61 0 111 37t104 135l201 -119q-43 -94 -97.5 -155 t-139.5 -97.5t-197 -36.5q-116 0 -207 37t-151.5 105.5t-97.5 158.5t-52 203h-139z" />
<glyph unicode="&#x2122;" horiz-adv-x="1345" d="M39 1204v162h485v-162h-164v-426h-157v426h-164zM604 778v588h189l131 -295l120 295h187v-588h-154v344l-137 -348h-31l-151 342v-338h-154z" />
<glyph unicode="&#x25fc;" horiz-adv-x="983" d="M0 0v983h983v-983h-983z" />
</font>
</defs>
</svg>
